<ttFont>
    <TTGlyph name="A" xMin="-140" yMin="-22" xMax="546" yMax="720">
      <contour>
        <pt x="312" y="197" on="1"/>
        <pt x="312" y="233" on="1"/>
        <pt x="312" y="314" on="0"/>
        <pt x="321" y="395" on="1"/>
        <pt x="160" y="197" on="1"/>
      </contour>
      <contour>
        <pt x="314" y="147" on="1"/>
        <pt x="119" y="147" on="1"/>
        <pt x="48" y="60" on="1"/>
        <pt x="-13" y="-14" on="0"/>
        <pt x="-65" y="-14" on="1"/>
        <pt x="-98" y="-14" on="0"/>
        <pt x="-140" y="18" on="0"/>
        <pt x="-140" y="47" on="1"/>
        <pt x="-140" y="59" on="0"/>
        <pt x="-132" y="72" on="1"/>
        <pt x="-103" y="74" on="1"/>
        <pt x="-45" y="78" on="0"/>
        <pt x="172" y="303" on="0"/>
        <pt x="342" y="526" on="1"/>
        <pt x="360" y="613" on="0"/>
        <pt x="411" y="720" on="0"/>
        <pt x="465" y="720" on="0"/>
        <pt x="526" y="671" on="0"/>
        <pt x="526" y="642" on="0"/>
        <pt x="519" y="616" on="0"/>
        <pt x="502" y="584" on="0"/>
        <pt x="491" y="565" on="0"/>
        <pt x="466" y="525" on="0"/>
        <pt x="463" y="520" on="1"/>
        <pt x="441" y="382" on="0"/>
        <pt x="441" y="265" on="1"/>
        <pt x="441" y="79" on="0"/>
        <pt x="539" y="45" on="1"/>
        <pt x="546" y="39" on="0"/>
        <pt x="546" y="30" on="1"/>
        <pt x="546" y="8" on="0"/>
        <pt x="467" y="-22" on="0"/>
        <pt x="427" y="-22" on="1"/>
        <pt x="366" y="-22" on="0"/>
        <pt x="318" y="64" on="0"/>
      </contour>
    </TTGlyph>
    <TTGlyph name="A.alt" xMin="0" yMin="-96" xMax="1030" yMax="707">
      <contour>
        <pt x="406" y="134" on="1"/>
        <pt x="309" y="152" on="0"/>
        <pt x="191" y="152" on="0"/>
        <pt x="91" y="72" on="0"/>
        <pt x="91" y="13" on="1"/>
        <pt x="91" y="-5" on="0"/>
        <pt x="112" y="-24" on="0"/>
        <pt x="126" y="-24" on="1"/>
        <pt x="202" y="-24" on="0"/>
      </contour>
      <contour>
        <pt x="556" y="174" on="1"/>
        <pt x="658" y="154" on="1"/>
        <pt x="658" y="138" on="0"/>
        <pt x="611" y="92" on="0"/>
        <pt x="590" y="92" on="1"/>
        <pt x="552" y="104" on="0"/>
        <pt x="490" y="117" on="1"/>
        <pt x="236" y="-96" on="0"/>
        <pt x="92" y="-96" on="1"/>
        <pt x="49" y="-96" on="0"/>
        <pt x="0" y="-49" on="0"/>
        <pt x="0" y="-6" on="1"/>
        <pt x="0" y="73" on="0"/>
        <pt x="165" y="210" on="0"/>
        <pt x="276" y="210" on="1"/>
        <pt x="341" y="210" on="0"/>
        <pt x="474" y="189" on="1"/>
        <pt x="646" y="331" on="0"/>
        <pt x="791" y="491" on="1"/>
        <pt x="877" y="683" on="0"/>
        <pt x="937" y="707" on="1"/>
        <pt x="961" y="707" on="0"/>
        <pt x="1030" y="671" on="0"/>
        <pt x="1030" y="635" on="0"/>
        <pt x="1014" y="598" on="0"/>
        <pt x="978" y="552" on="0"/>
        <pt x="966" y="538" on="1"/>
        <pt x="935" y="500" on="0"/>
        <pt x="899" y="464" on="1"/>
        <pt x="827" y="202" on="0"/>
        <pt x="827" y="105" on="1"/>
        <pt x="829" y="53" on="0"/>
        <pt x="883" y="53" on="1"/>
        <pt x="911" y="53" on="0"/>
        <pt x="946" y="73" on="1"/>
        <pt x="959" y="80" on="1"/>
        <pt x="969" y="67" on="0"/>
        <pt x="972" y="41" on="1"/>
        <pt x="973" y="32" on="0"/>
        <pt x="923" y="6" on="0"/>
        <pt x="840" y="-15" on="0"/>
        <pt x="801" y="-15" on="1"/>
        <pt x="680" y="-15" on="0"/>
        <pt x="680" y="80" on="1"/>
        <pt x="680" y="186" on="0"/>
        <pt x="738" y="357" on="1"/>
        <pt x="654" y="265" on="0"/>
      </contour>
    </TTGlyph>
    <TTGlyph name="A.alt2" xMin="0" yMin="-59" xMax="957" yMax="714">
      <contour>
        <pt x="545" y="214" on="1"/>
        <pt x="687" y="214" on="1"/>
        <pt x="700" y="298" on="0"/>
        <pt x="726" y="410" on="1"/>
        <pt x="637" y="304" on="0"/>
      </contour>
      <contour>
        <pt x="679" y="159" on="1"/>
        <pt x="487" y="159" on="1"/>
        <pt x="247" y="-59" on="0"/>
        <pt x="114" y="-59" on="1"/>
        <pt x="66" y="-59" on="0"/>
        <pt x="0" y="9" on="0"/>
        <pt x="0" y="126" on="0"/>
        <pt x="48" y="133" on="1"/>
        <pt x="78" y="52" on="0"/>
        <pt x="161" y="52" on="1"/>
        <pt x="266" y="52" on="0"/>
        <pt x="587" y="306" on="0"/>
        <pt x="758" y="534" on="1"/>
        <pt x="801" y="714" on="0"/>
        <pt x="877" y="714" on="1"/>
        <pt x="907" y="714" on="0"/>
        <pt x="957" y="681" on="0"/>
        <pt x="957" y="644" on="0"/>
        <pt x="918" y="593" on="0"/>
        <pt x="889" y="573" on="1"/>
        <pt x="873" y="504" on="0"/>
        <pt x="807" y="171" on="0"/>
        <pt x="807" y="79" on="0"/>
        <pt x="833" y="55" on="0"/>
        <pt x="852" y="55" on="1"/>
        <pt x="886" y="55" on="0"/>
        <pt x="922" y="75" on="1"/>
        <pt x="934" y="82" on="1"/>
        <pt x="954" y="67" on="0"/>
        <pt x="954" y="42" on="1"/>
        <pt x="868" y="-20" on="0"/>
        <pt x="778" y="-20" on="1"/>
        <pt x="674" y="-20" on="0"/>
        <pt x="674" y="88" on="1"/>
        <pt x="674" y="111" on="0"/>
      </contour>
    </TTGlyph>
    <TTGlyph name="A.smcp" xMin="-94" yMin="-18" xMax="471" yMax="533">
      <contour>
        <pt x="265" y="162" on="1"/>
        <pt x="265" y="185" on="1"/>
        <pt x="265" y="217" on="0"/>
        <pt x="273" y="305" on="1"/>
        <pt x="162" y="162" on="1"/>
      </contour>
      <contour>
        <pt x="267" y="113" on="1"/>
        <pt x="123" y="113" on="1"/>
        <pt x="69" y="48" on="1"/>
        <pt x="20" y="-12" on="0"/>
        <pt x="-26" y="-12" on="1"/>
        <pt x="-56" y="-12" on="0"/>
        <pt x="-94" y="17" on="0"/>
        <pt x="-94" y="41" on="1"/>
        <pt x="-94" y="57" on="0"/>
        <pt x="-84" y="73" on="1"/>
        <pt x="-72" y="67" on="0"/>
        <pt x="-55" y="67" on="1"/>
        <pt x="-15" y="71" on="0"/>
        <pt x="148" y="249" on="0"/>
        <pt x="285" y="428" on="1"/>
        <pt x="296" y="490" on="0"/>
        <pt x="327" y="533" on="0"/>
        <pt x="378" y="533" on="0"/>
        <pt x="442" y="492" on="0"/>
        <pt x="442" y="465" on="0"/>
        <pt x="432" y="446" on="0"/>
        <pt x="406" y="421" on="0"/>
        <pt x="405" y="420" on="1"/>
        <pt x="385" y="302" on="0"/>
        <pt x="385" y="140" on="0"/>
        <pt x="419" y="49" on="0"/>
        <pt x="452" y="49" on="1"/>
        <pt x="461" y="49" on="0"/>
        <pt x="470" y="52" on="1"/>
        <pt x="471" y="48" on="0"/>
        <pt x="471" y="41" on="1"/>
        <pt x="471" y="13" on="0"/>
        <pt x="407" y="-18" on="0"/>
        <pt x="312" y="-18" on="0"/>
        <pt x="269" y="49" on="0"/>
      </contour>
    </TTGlyph>
    <TTGlyph name="A.smcp.titl" xMin="-8" yMin="-206" xMax="742" yMax="716">
      <contour>
        <pt x="742" y="-206" on="1"/>
        <pt x="-8" y="-206" on="1"/>
        <pt x="-8" y="-180" on="1"/>
        <pt x="742" y="-180" on="1"/>
      </contour>
      <contour>
        <pt x="742" y="690" on="1"/>
        <pt x="-8" y="690" on="1"/>
        <pt x="-8" y="716" on="1"/>
        <pt x="742" y="716" on="1"/>
      </contour>
      <contour>
        <pt x="742" y="-106" on="1"/>
        <pt x="-8" y="-106" on="1"/>
        <pt x="-8" y="636" on="1"/>
        <pt x="742" y="636" on="1"/>
      </contour>
      <contour>
        <pt x="388" y="162" on="1"/>
        <pt x="285" y="162" on="1"/>
        <pt x="396" y="305" on="1"/>
        <pt x="388" y="217" on="0"/>
        <pt x="388" y="185" on="1"/>
      </contour>
      <contour>
        <pt x="68" y="67" on="1"/>
        <pt x="53" y="67" on="0"/>
        <pt x="39" y="73" on="1"/>
        <pt x="29" y="60" on="0"/>
        <pt x="29" y="17" on="0"/>
        <pt x="67" y="-12" on="0"/>
        <pt x="97" y="-12" on="1"/>
        <pt x="143" y="-12" on="0"/>
        <pt x="192" y="48" on="1"/>
        <pt x="246" y="113" on="1"/>
        <pt x="390" y="113" on="1"/>
        <pt x="392" y="49" on="0"/>
        <pt x="435" y="-18" on="0"/>
        <pt x="530" y="-18" on="0"/>
        <pt x="594" y="13" on="0"/>
        <pt x="594" y="41" on="1"/>
        <pt x="594" y="48" on="0"/>
        <pt x="593" y="52" on="1"/>
        <pt x="584" y="49" on="0"/>
        <pt x="575" y="49" on="1"/>
        <pt x="542" y="49" on="0"/>
        <pt x="508" y="140" on="0"/>
        <pt x="508" y="302" on="0"/>
        <pt x="528" y="420" on="1"/>
        <pt x="529" y="421" on="0"/>
        <pt x="542" y="434" on="1"/>
        <pt x="565" y="456" on="0"/>
        <pt x="565" y="492" on="0"/>
        <pt x="501" y="533" on="0"/>
        <pt x="450" y="533" on="0"/>
        <pt x="419" y="490" on="0"/>
        <pt x="408" y="428" on="1"/>
        <pt x="271" y="249" on="0"/>
        <pt x="108" y="71" on="0"/>
      </contour>
    </TTGlyph>
    <TTGlyph name="AE" xMin="-180" yMin="-24" xMax="817" yMax="671">
      <contour>
        <pt x="147" y="197" on="1"/>
        <pt x="273" y="197" on="1"/>
        <pt x="281" y="237" on="0"/>
        <pt x="347" y="342" on="0"/>
        <pt x="395" y="364" on="1"/>
        <pt x="377" y="393" on="0"/>
        <pt x="377" y="428" on="1"/>
        <pt x="377" y="441" on="0"/>
        <pt x="379" y="446" on="1"/>
      </contour>
      <contour>
        <pt x="269" y="147" on="1"/>
        <pt x="100" y="147" on="1"/>
        <pt x="9" y="49" on="0"/>
        <pt x="-72" y="-14" on="0"/>
        <pt x="-139" y="-14" on="0"/>
        <pt x="-180" y="16" on="0"/>
        <pt x="-180" y="47" on="1"/>
        <pt x="-180" y="55" on="0"/>
        <pt x="-170" y="72" on="1"/>
        <pt x="-141" y="72" on="1"/>
        <pt x="-112" y="72" on="0"/>
        <pt x="-35" y="118" on="0"/>
        <pt x="104" y="247" on="0"/>
        <pt x="221" y="366" on="0"/>
        <pt x="434" y="589" on="0"/>
        <pt x="571" y="671" on="0"/>
        <pt x="731" y="671" on="0"/>
        <pt x="817" y="626" on="0"/>
        <pt x="817" y="549" on="0"/>
        <pt x="756" y="482" on="0"/>
        <pt x="711" y="470" on="1"/>
        <pt x="702" y="471" on="0"/>
        <pt x="688" y="489" on="0"/>
        <pt x="688" y="499" on="1"/>
        <pt x="712" y="530" on="0"/>
        <pt x="712" y="579" on="0"/>
        <pt x="662" y="604" on="0"/>
        <pt x="598" y="604" on="0"/>
        <pt x="575" y="598" on="1"/>
        <pt x="535" y="574" on="0"/>
        <pt x="477" y="492" on="0"/>
        <pt x="477" y="455" on="1"/>
        <pt x="477" y="424" on="0"/>
        <pt x="484" y="416" on="1"/>
        <pt x="494" y="403" on="0"/>
        <pt x="503" y="401" on="1"/>
        <pt x="553" y="417" on="0"/>
        <pt x="597" y="417" on="1"/>
        <pt x="664" y="417" on="0"/>
        <pt x="664" y="375" on="1"/>
        <pt x="664" y="338" on="0"/>
        <pt x="584" y="291" on="0"/>
        <pt x="488" y="291" on="0"/>
        <pt x="459" y="310" on="1"/>
        <pt x="436" y="288" on="0"/>
        <pt x="406" y="215" on="0"/>
        <pt x="406" y="183" on="1"/>
        <pt x="406" y="66" on="0"/>
        <pt x="529" y="66" on="1"/>
        <pt x="631" y="66" on="0"/>
        <pt x="685" y="135" on="1"/>
        <pt x="714" y="130" on="0"/>
        <pt x="723" y="101" on="1"/>
        <pt x="696" y="49" on="0"/>
        <pt x="548" y="-24" on="0"/>
        <pt x="378" y="-24" on="0"/>
        <pt x="270" y="63" on="0"/>
      </contour>
    </TTGlyph>
    <TTGlyph name="Aacute" xMin="-140" yMin="-22" xMax="641" yMax="928">
      <contour>
        <pt x="641" y="817" on="1"/>
        <pt x="576" y="817" on="0"/>
        <pt x="440" y="762" on="0"/>
        <pt x="392" y="716" on="1"/>
        <pt x="385" y="716" on="0"/>
        <pt x="371" y="734" on="0"/>
        <pt x="371" y="755" on="0"/>
        <pt x="442" y="844" on="0"/>
        <pt x="547" y="928" on="0"/>
        <pt x="584" y="928" on="1"/>
        <pt x="603" y="928" on="0"/>
        <pt x="641" y="865" on="0"/>
      </contour>
      <contour>
        <pt x="312" y="197" on="1"/>
        <pt x="312" y="233" on="1"/>
        <pt x="312" y="314" on="0"/>
        <pt x="321" y="395" on="1"/>
        <pt x="160" y="197" on="1"/>
      </contour>
      <contour>
        <pt x="314" y="147" on="1"/>
        <pt x="119" y="147" on="1"/>
        <pt x="48" y="60" on="1"/>
        <pt x="-13" y="-14" on="0"/>
        <pt x="-65" y="-14" on="1"/>
        <pt x="-98" y="-14" on="0"/>
        <pt x="-140" y="18" on="0"/>
        <pt x="-140" y="47" on="1"/>
        <pt x="-140" y="59" on="0"/>
        <pt x="-132" y="72" on="1"/>
        <pt x="-103" y="74" on="1"/>
        <pt x="-45" y="78" on="0"/>
        <pt x="172" y="303" on="0"/>
        <pt x="342" y="526" on="1"/>
        <pt x="360" y="613" on="0"/>
        <pt x="411" y="720" on="0"/>
        <pt x="465" y="720" on="0"/>
        <pt x="526" y="671" on="0"/>
        <pt x="526" y="642" on="0"/>
        <pt x="519" y="616" on="0"/>
        <pt x="502" y="584" on="0"/>
        <pt x="491" y="565" on="0"/>
        <pt x="466" y="525" on="0"/>
        <pt x="463" y="520" on="1"/>
        <pt x="441" y="382" on="0"/>
        <pt x="441" y="265" on="1"/>
        <pt x="441" y="79" on="0"/>
        <pt x="539" y="45" on="1"/>
        <pt x="546" y="39" on="0"/>
        <pt x="546" y="30" on="1"/>
        <pt x="546" y="8" on="0"/>
        <pt x="467" y="-22" on="0"/>
        <pt x="427" y="-22" on="1"/>
        <pt x="366" y="-22" on="0"/>
        <pt x="318" y="64" on="0"/>
      </contour>
    </TTGlyph>
    <TTGlyph name="Abreve" xMin="-140" yMin="-22" xMax="674" yMax="952">
      <contour>
        <pt x="618" y="952" on="1"/>
        <pt x="618" y="952" on="0"/>
        <pt x="644" y="951" on="1"/>
        <pt x="670" y="951" on="0"/>
        <pt x="673" y="938" on="1"/>
        <pt x="674" y="934" on="0"/>
        <pt x="674" y="929" on="1"/>
        <pt x="674" y="853" on="0"/>
        <pt x="555" y="769" on="0"/>
        <pt x="419" y="769" on="0"/>
        <pt x="336" y="822" on="0"/>
        <pt x="336" y="870" on="1"/>
        <pt x="336" y="894" on="0"/>
        <pt x="366" y="939" on="0"/>
        <pt x="395" y="952" on="1"/>
        <pt x="402" y="914" on="0"/>
        <pt x="472" y="864" on="0"/>
        <pt x="551" y="864" on="0"/>
        <pt x="608" y="908" on="0"/>
      </contour>
      <contour>
        <pt x="312" y="197" on="1"/>
        <pt x="312" y="233" on="1"/>
        <pt x="312" y="314" on="0"/>
        <pt x="321" y="395" on="1"/>
        <pt x="160" y="197" on="1"/>
      </contour>
      <contour>
        <pt x="314" y="147" on="1"/>
        <pt x="119" y="147" on="1"/>
        <pt x="48" y="60" on="1"/>
        <pt x="-13" y="-14" on="0"/>
        <pt x="-65" y="-14" on="1"/>
        <pt x="-98" y="-14" on="0"/>
        <pt x="-140" y="18" on="0"/>
        <pt x="-140" y="47" on="1"/>
        <pt x="-140" y="59" on="0"/>
        <pt x="-132" y="72" on="1"/>
        <pt x="-103" y="74" on="1"/>
        <pt x="-45" y="78" on="0"/>
        <pt x="172" y="303" on="0"/>
        <pt x="342" y="526" on="1"/>
        <pt x="360" y="613" on="0"/>
        <pt x="411" y="720" on="0"/>
        <pt x="465" y="720" on="0"/>
        <pt x="526" y="671" on="0"/>
        <pt x="526" y="642" on="0"/>
        <pt x="519" y="616" on="0"/>
        <pt x="502" y="584" on="0"/>
        <pt x="491" y="565" on="0"/>
        <pt x="466" y="525" on="0"/>
        <pt x="463" y="520" on="1"/>
        <pt x="441" y="382" on="0"/>
        <pt x="441" y="265" on="1"/>
        <pt x="441" y="79" on="0"/>
        <pt x="539" y="45" on="1"/>
        <pt x="546" y="39" on="0"/>
        <pt x="546" y="30" on="1"/>
        <pt x="546" y="8" on="0"/>
        <pt x="467" y="-22" on="0"/>
        <pt x="427" y="-22" on="1"/>
        <pt x="366" y="-22" on="0"/>
        <pt x="318" y="64" on="0"/>
      </contour>
    </TTGlyph>
    <TTGlyph name="Acircumflex" xMin="-140" yMin="-22" xMax="594" yMax="936">
      <contour>
        <pt x="552" y="717" on="1"/>
        <pt x="522" y="769" on="0"/>
        <pt x="479" y="815" on="1"/>
        <pt x="400" y="775" on="0"/>
        <pt x="327" y="719" on="1"/>
        <pt x="320" y="719" on="0"/>
        <pt x="300" y="746" on="0"/>
        <pt x="300" y="760" on="0"/>
        <pt x="394" y="849" on="0"/>
        <pt x="504" y="936" on="0"/>
        <pt x="520" y="936" on="1"/>
        <pt x="546" y="936" on="0"/>
        <pt x="594" y="769" on="0"/>
        <pt x="594" y="745" on="1"/>
        <pt x="593" y="737" on="0"/>
        <pt x="560" y="717" on="0"/>
      </contour>
      <contour>
        <pt x="312" y="197" on="1"/>
        <pt x="312" y="233" on="1"/>
        <pt x="312" y="314" on="0"/>
        <pt x="321" y="395" on="1"/>
        <pt x="160" y="197" on="1"/>
      </contour>
      <contour>
        <pt x="314" y="147" on="1"/>
        <pt x="119" y="147" on="1"/>
        <pt x="48" y="60" on="1"/>
        <pt x="-13" y="-14" on="0"/>
        <pt x="-65" y="-14" on="1"/>
        <pt x="-98" y="-14" on="0"/>
        <pt x="-140" y="18" on="0"/>
        <pt x="-140" y="47" on="1"/>
        <pt x="-140" y="59" on="0"/>
        <pt x="-132" y="72" on="1"/>
        <pt x="-103" y="74" on="1"/>
        <pt x="-45" y="78" on="0"/>
        <pt x="172" y="303" on="0"/>
        <pt x="342" y="526" on="1"/>
        <pt x="360" y="613" on="0"/>
        <pt x="411" y="720" on="0"/>
        <pt x="465" y="720" on="0"/>
        <pt x="526" y="671" on="0"/>
        <pt x="526" y="642" on="0"/>
        <pt x="519" y="616" on="0"/>
        <pt x="502" y="584" on="0"/>
        <pt x="491" y="565" on="0"/>
        <pt x="466" y="525" on="0"/>
        <pt x="463" y="520" on="1"/>
        <pt x="441" y="382" on="0"/>
        <pt x="441" y="265" on="1"/>
        <pt x="441" y="79" on="0"/>
        <pt x="539" y="45" on="1"/>
        <pt x="546" y="39" on="0"/>
        <pt x="546" y="30" on="1"/>
        <pt x="546" y="8" on="0"/>
        <pt x="467" y="-22" on="0"/>
        <pt x="427" y="-22" on="1"/>
        <pt x="366" y="-22" on="0"/>
        <pt x="318" y="64" on="0"/>
      </contour>
    </TTGlyph>
    <TTGlyph name="Adieresis" xMin="-140" yMin="-22" xMax="664" yMax="892">
      <contour>
        <pt x="433" y="761" on="1"/>
        <pt x="413" y="751" on="0"/>
        <pt x="326" y="751" on="0"/>
        <pt x="311" y="757" on="1"/>
        <pt x="319" y="786" on="0"/>
        <pt x="319" y="836" on="0"/>
        <pt x="318" y="844" on="1"/>
        <pt x="330" y="862" on="0"/>
        <pt x="415" y="892" on="0"/>
        <pt x="462" y="892" on="1"/>
        <pt x="468" y="892" on="0"/>
        <pt x="468" y="847" on="0"/>
        <pt x="446" y="772" on="0"/>
      </contour>
      <contour>
        <pt x="629" y="761" on="1"/>
        <pt x="609" y="751" on="0"/>
        <pt x="522" y="751" on="0"/>
        <pt x="507" y="757" on="1"/>
        <pt x="515" y="786" on="0"/>
        <pt x="515" y="836" on="0"/>
        <pt x="514" y="844" on="1"/>
        <pt x="526" y="862" on="0"/>
        <pt x="611" y="892" on="0"/>
        <pt x="658" y="892" on="1"/>
        <pt x="664" y="892" on="0"/>
        <pt x="664" y="847" on="0"/>
        <pt x="642" y="772" on="0"/>
      </contour>
      <contour>
        <pt x="312" y="197" on="1"/>
        <pt x="312" y="233" on="1"/>
        <pt x="312" y="314" on="0"/>
        <pt x="321" y="395" on="1"/>
        <pt x="160" y="197" on="1"/>
      </contour>
      <contour>
        <pt x="314" y="147" on="1"/>
        <pt x="119" y="147" on="1"/>
        <pt x="48" y="60" on="1"/>
        <pt x="-13" y="-14" on="0"/>
        <pt x="-65" y="-14" on="1"/>
        <pt x="-98" y="-14" on="0"/>
        <pt x="-140" y="18" on="0"/>
        <pt x="-140" y="47" on="1"/>
        <pt x="-140" y="59" on="0"/>
        <pt x="-132" y="72" on="1"/>
        <pt x="-103" y="74" on="1"/>
        <pt x="-45" y="78" on="0"/>
        <pt x="172" y="303" on="0"/>
        <pt x="342" y="526" on="1"/>
        <pt x="360" y="613" on="0"/>
        <pt x="411" y="720" on="0"/>
        <pt x="465" y="720" on="0"/>
        <pt x="526" y="671" on="0"/>
        <pt x="526" y="642" on="0"/>
        <pt x="519" y="616" on="0"/>
        <pt x="502" y="584" on="0"/>
        <pt x="491" y="565" on="0"/>
        <pt x="466" y="525" on="0"/>
        <pt x="463" y="520" on="1"/>
        <pt x="441" y="382" on="0"/>
        <pt x="441" y="265" on="1"/>
        <pt x="441" y="79" on="0"/>
        <pt x="539" y="45" on="1"/>
        <pt x="546" y="39" on="0"/>
        <pt x="546" y="30" on="1"/>
        <pt x="546" y="8" on="0"/>
        <pt x="467" y="-22" on="0"/>
        <pt x="427" y="-22" on="1"/>
        <pt x="366" y="-22" on="0"/>
        <pt x="318" y="64" on="0"/>
      </contour>
    </TTGlyph>
    <TTGlyph name="Agrave" xMin="-140" yMin="-22" xMax="583" yMax="923">
      <contour>
        <pt x="373" y="923" on="1"/>
        <pt x="404" y="866" on="0"/>
        <pt x="519" y="775" on="0"/>
        <pt x="582" y="755" on="1"/>
        <pt x="583" y="753" on="0"/>
        <pt x="583" y="748" on="1"/>
        <pt x="583" y="722" on="0"/>
        <pt x="524" y="722" on="0"/>
        <pt x="411" y="746" on="0"/>
        <pt x="301" y="800" on="0"/>
        <pt x="301" y="832" on="1"/>
        <pt x="301" y="852" on="0"/>
        <pt x="338" y="903" on="0"/>
      </contour>
      <contour>
        <pt x="312" y="197" on="1"/>
        <pt x="312" y="233" on="1"/>
        <pt x="312" y="314" on="0"/>
        <pt x="321" y="395" on="1"/>
        <pt x="160" y="197" on="1"/>
      </contour>
      <contour>
        <pt x="314" y="147" on="1"/>
        <pt x="119" y="147" on="1"/>
        <pt x="48" y="60" on="1"/>
        <pt x="-13" y="-14" on="0"/>
        <pt x="-65" y="-14" on="1"/>
        <pt x="-98" y="-14" on="0"/>
        <pt x="-140" y="18" on="0"/>
        <pt x="-140" y="47" on="1"/>
        <pt x="-140" y="59" on="0"/>
        <pt x="-132" y="72" on="1"/>
        <pt x="-103" y="74" on="1"/>
        <pt x="-45" y="78" on="0"/>
        <pt x="172" y="303" on="0"/>
        <pt x="342" y="526" on="1"/>
        <pt x="360" y="613" on="0"/>
        <pt x="411" y="720" on="0"/>
        <pt x="465" y="720" on="0"/>
        <pt x="526" y="671" on="0"/>
        <pt x="526" y="642" on="0"/>
        <pt x="519" y="616" on="0"/>
        <pt x="502" y="584" on="0"/>
        <pt x="491" y="565" on="0"/>
        <pt x="466" y="525" on="0"/>
        <pt x="463" y="520" on="1"/>
        <pt x="441" y="382" on="0"/>
        <pt x="441" y="265" on="1"/>
        <pt x="441" y="79" on="0"/>
        <pt x="539" y="45" on="1"/>
        <pt x="546" y="39" on="0"/>
        <pt x="546" y="30" on="1"/>
        <pt x="546" y="8" on="0"/>
        <pt x="467" y="-22" on="0"/>
        <pt x="427" y="-22" on="1"/>
        <pt x="366" y="-22" on="0"/>
        <pt x="318" y="64" on="0"/>
      </contour>
    </TTGlyph>
    <TTGlyph name="Amacron" xMin="-140" yMin="-22" xMax="647" yMax="861">
      <contour>
        <pt x="624" y="783" on="1"/>
        <pt x="502" y="757" on="0"/>
        <pt x="340" y="757" on="1"/>
        <pt x="333" y="757" on="0"/>
        <pt x="333" y="773" on="1"/>
        <pt x="333" y="816" on="0"/>
        <pt x="368" y="861" on="1"/>
        <pt x="450" y="850" on="0"/>
        <pt x="560" y="850" on="0"/>
        <pt x="642" y="855" on="1"/>
        <pt x="647" y="855" on="0"/>
        <pt x="647" y="842" on="1"/>
        <pt x="647" y="808" on="0"/>
      </contour>
      <contour>
        <pt x="312" y="197" on="1"/>
        <pt x="312" y="233" on="1"/>
        <pt x="312" y="314" on="0"/>
        <pt x="321" y="395" on="1"/>
        <pt x="160" y="197" on="1"/>
      </contour>
      <contour>
        <pt x="314" y="147" on="1"/>
        <pt x="119" y="147" on="1"/>
        <pt x="48" y="60" on="1"/>
        <pt x="-13" y="-14" on="0"/>
        <pt x="-65" y="-14" on="1"/>
        <pt x="-98" y="-14" on="0"/>
        <pt x="-140" y="18" on="0"/>
        <pt x="-140" y="47" on="1"/>
        <pt x="-140" y="59" on="0"/>
        <pt x="-132" y="72" on="1"/>
        <pt x="-103" y="74" on="1"/>
        <pt x="-45" y="78" on="0"/>
        <pt x="172" y="303" on="0"/>
        <pt x="342" y="526" on="1"/>
        <pt x="360" y="613" on="0"/>
        <pt x="411" y="720" on="0"/>
        <pt x="465" y="720" on="0"/>
        <pt x="526" y="671" on="0"/>
        <pt x="526" y="642" on="0"/>
        <pt x="519" y="616" on="0"/>
        <pt x="502" y="584" on="0"/>
        <pt x="491" y="565" on="0"/>
        <pt x="466" y="525" on="0"/>
        <pt x="463" y="520" on="1"/>
        <pt x="441" y="382" on="0"/>
        <pt x="441" y="265" on="1"/>
        <pt x="441" y="79" on="0"/>
        <pt x="539" y="45" on="1"/>
        <pt x="546" y="39" on="0"/>
        <pt x="546" y="30" on="1"/>
        <pt x="546" y="8" on="0"/>
        <pt x="467" y="-22" on="0"/>
        <pt x="427" y="-22" on="1"/>
        <pt x="366" y="-22" on="0"/>
        <pt x="318" y="64" on="0"/>
      </contour>
    </TTGlyph>
    <TTGlyph name="Aogonek" xMin="-140" yMin="-200" xMax="590" yMax="720">
      <contour>
        <pt x="314" y="147" on="1"/>
        <pt x="119" y="147" on="1"/>
        <pt x="48" y="60" on="1"/>
        <pt x="-13" y="-14" on="0"/>
        <pt x="-65" y="-14" on="1"/>
        <pt x="-98" y="-14" on="0"/>
        <pt x="-140" y="18" on="0"/>
        <pt x="-140" y="47" on="1"/>
        <pt x="-140" y="59" on="0"/>
        <pt x="-132" y="72" on="1"/>
        <pt x="-103" y="74" on="1"/>
        <pt x="-45" y="78" on="0"/>
        <pt x="172" y="303" on="0"/>
        <pt x="342" y="526" on="1"/>
        <pt x="360" y="613" on="0"/>
        <pt x="411" y="720" on="0"/>
        <pt x="465" y="720" on="0"/>
        <pt x="526" y="671" on="0"/>
        <pt x="526" y="642" on="0"/>
        <pt x="519" y="616" on="0"/>
        <pt x="502" y="584" on="0"/>
        <pt x="491" y="565" on="0"/>
        <pt x="466" y="525" on="0"/>
        <pt x="463" y="520" on="1"/>
        <pt x="441" y="382" on="0"/>
        <pt x="441" y="265" on="1"/>
        <pt x="441" y="79" on="0"/>
        <pt x="539" y="45" on="1"/>
        <pt x="546" y="39" on="0"/>
        <pt x="546" y="30" on="1"/>
        <pt x="546" y="6" on="0"/>
        <pt x="503" y="-8" on="1"/>
        <pt x="471" y="-54" on="0"/>
        <pt x="471" y="-141" on="0"/>
        <pt x="504" y="-141" on="1"/>
        <pt x="529" y="-141" on="0"/>
        <pt x="574" y="-114" on="1"/>
        <pt x="590" y="-128" on="0"/>
        <pt x="590" y="-149" on="1"/>
        <pt x="568" y="-169" on="0"/>
        <pt x="490" y="-200" on="0"/>
        <pt x="456" y="-200" on="1"/>
        <pt x="384" y="-200" on="0"/>
        <pt x="384" y="-131" on="1"/>
        <pt x="384" y="-73" on="0"/>
        <pt x="429" y="-22" on="1"/>
        <pt x="427" y="-22" on="1"/>
        <pt x="366" y="-22" on="0"/>
        <pt x="318" y="64" on="0"/>
      </contour>
      <contour>
        <pt x="312" y="197" on="1"/>
        <pt x="312" y="233" on="1"/>
        <pt x="312" y="314" on="0"/>
        <pt x="321" y="395" on="1"/>
        <pt x="160" y="197" on="1"/>
      </contour>
    </TTGlyph>
    <TTGlyph name="Aring" xMin="-140" yMin="-22" xMax="658" yMax="967">
      <contour>
        <pt x="522" y="917" on="0"/>
        <pt x="481" y="865" on="0"/>
        <pt x="481" y="809" on="0"/>
        <pt x="536" y="809" on="0"/>
        <pt x="579" y="859" on="0"/>
        <pt x="579" y="917" on="0"/>
      </contour>
      <contour>
        <pt x="658" y="900" on="1"/>
        <pt x="658" y="844" on="0"/>
        <pt x="543" y="758" on="0"/>
        <pt x="476" y="758" on="1"/>
        <pt x="442" y="758" on="0"/>
        <pt x="398" y="797" on="0"/>
        <pt x="398" y="826" on="1"/>
        <pt x="398" y="876" on="0"/>
        <pt x="503" y="967" on="0"/>
        <pt x="570" y="967" on="1"/>
        <pt x="611" y="967" on="0"/>
        <pt x="658" y="929" on="0"/>
      </contour>
      <contour>
        <pt x="312" y="197" on="1"/>
        <pt x="312" y="233" on="1"/>
        <pt x="312" y="314" on="0"/>
        <pt x="321" y="395" on="1"/>
        <pt x="160" y="197" on="1"/>
      </contour>
      <contour>
        <pt x="314" y="147" on="1"/>
        <pt x="119" y="147" on="1"/>
        <pt x="48" y="60" on="1"/>
        <pt x="-13" y="-14" on="0"/>
        <pt x="-65" y="-14" on="1"/>
        <pt x="-98" y="-14" on="0"/>
        <pt x="-140" y="18" on="0"/>
        <pt x="-140" y="47" on="1"/>
        <pt x="-140" y="59" on="0"/>
        <pt x="-132" y="72" on="1"/>
        <pt x="-103" y="74" on="1"/>
        <pt x="-45" y="78" on="0"/>
        <pt x="172" y="303" on="0"/>
        <pt x="342" y="526" on="1"/>
        <pt x="360" y="613" on="0"/>
        <pt x="411" y="720" on="0"/>
        <pt x="465" y="720" on="0"/>
        <pt x="526" y="671" on="0"/>
        <pt x="526" y="642" on="0"/>
        <pt x="519" y="616" on="0"/>
        <pt x="502" y="584" on="0"/>
        <pt x="491" y="565" on="0"/>
        <pt x="466" y="525" on="0"/>
        <pt x="463" y="520" on="1"/>
        <pt x="441" y="382" on="0"/>
        <pt x="441" y="265" on="1"/>
        <pt x="441" y="79" on="0"/>
        <pt x="539" y="45" on="1"/>
        <pt x="546" y="39" on="0"/>
        <pt x="546" y="30" on="1"/>
        <pt x="546" y="8" on="0"/>
        <pt x="467" y="-22" on="0"/>
        <pt x="427" y="-22" on="1"/>
        <pt x="366" y="-22" on="0"/>
        <pt x="318" y="64" on="0"/>
      </contour>
    </TTGlyph>
    <TTGlyph name="Atilde" xMin="-140" yMin="-22" xMax="679" yMax="944">
      <contour>
        <pt x="653" y="942" on="1"/>
        <pt x="679" y="938" on="0"/>
        <pt x="679" y="918" on="1"/>
        <pt x="679" y="879" on="0"/>
        <pt x="595" y="778" on="0"/>
        <pt x="471" y="778" on="0"/>
        <pt x="419" y="832" on="1"/>
        <pt x="345" y="832" on="0"/>
        <pt x="306" y="780" on="1"/>
        <pt x="281" y="784" on="0"/>
        <pt x="281" y="804" on="1"/>
        <pt x="281" y="838" on="0"/>
        <pt x="374" y="936" on="0"/>
        <pt x="428" y="944" on="1"/>
        <pt x="498" y="880" on="0"/>
        <pt x="619" y="880" on="0"/>
      </contour>
      <contour>
        <pt x="312" y="197" on="1"/>
        <pt x="312" y="233" on="1"/>
        <pt x="312" y="314" on="0"/>
        <pt x="321" y="395" on="1"/>
        <pt x="160" y="197" on="1"/>
      </contour>
      <contour>
        <pt x="314" y="147" on="1"/>
        <pt x="119" y="147" on="1"/>
        <pt x="48" y="60" on="1"/>
        <pt x="-13" y="-14" on="0"/>
        <pt x="-65" y="-14" on="1"/>
        <pt x="-98" y="-14" on="0"/>
        <pt x="-140" y="18" on="0"/>
        <pt x="-140" y="47" on="1"/>
        <pt x="-140" y="59" on="0"/>
        <pt x="-132" y="72" on="1"/>
        <pt x="-103" y="74" on="1"/>
        <pt x="-45" y="78" on="0"/>
        <pt x="172" y="303" on="0"/>
        <pt x="342" y="526" on="1"/>
        <pt x="360" y="613" on="0"/>
        <pt x="411" y="720" on="0"/>
        <pt x="465" y="720" on="0"/>
        <pt x="526" y="671" on="0"/>
        <pt x="526" y="642" on="0"/>
        <pt x="519" y="616" on="0"/>
        <pt x="502" y="584" on="0"/>
        <pt x="491" y="565" on="0"/>
        <pt x="466" y="525" on="0"/>
        <pt x="463" y="520" on="1"/>
        <pt x="441" y="382" on="0"/>
        <pt x="441" y="265" on="1"/>
        <pt x="441" y="79" on="0"/>
        <pt x="539" y="45" on="1"/>
        <pt x="546" y="39" on="0"/>
        <pt x="546" y="30" on="1"/>
        <pt x="546" y="8" on="0"/>
        <pt x="467" y="-22" on="0"/>
        <pt x="427" y="-22" on="1"/>
        <pt x="366" y="-22" on="0"/>
        <pt x="318" y="64" on="0"/>
      </contour>
    </TTGlyph>
    <TTGlyph name="B" xMin="75" yMin="-14" xMax="654" yMax="661">
      <contour>
        <pt x="419" y="307" on="1"/>
        <pt x="413" y="303" on="0"/>
        <pt x="372" y="288" on="0"/>
        <pt x="362" y="288" on="1"/>
        <pt x="335" y="288" on="0"/>
        <pt x="335" y="317" on="1"/>
        <pt x="335" y="341" on="0"/>
        <pt x="374" y="397" on="0"/>
        <pt x="390" y="397" on="1"/>
        <pt x="422" y="397" on="0"/>
        <pt x="463" y="380" on="1"/>
        <pt x="512" y="431" on="0"/>
        <pt x="512" y="540" on="0"/>
        <pt x="456" y="592" on="0"/>
        <pt x="412" y="592" on="1"/>
        <pt x="401" y="592" on="0"/>
        <pt x="383" y="590" on="1"/>
        <pt x="383" y="559" on="0"/>
        <pt x="223" y="164" on="0"/>
        <pt x="223" y="110" on="1"/>
        <pt x="223" y="62" on="0"/>
        <pt x="277" y="62" on="1"/>
        <pt x="352" y="62" on="0"/>
        <pt x="460" y="146" on="0"/>
        <pt x="460" y="275" on="0"/>
      </contour>
      <contour>
        <pt x="292" y="652" on="1"/>
        <pt x="485" y="661" on="1"/>
        <pt x="562" y="661" on="0"/>
        <pt x="654" y="599" on="0"/>
        <pt x="654" y="473" on="0"/>
        <pt x="576" y="393" on="0"/>
        <pt x="506" y="360" on="1"/>
        <pt x="610" y="322" on="0"/>
        <pt x="610" y="230" on="1"/>
        <pt x="610" y="162" on="0"/>
        <pt x="488" y="46" on="0"/>
        <pt x="316" y="-14" on="0"/>
        <pt x="155" y="-14" on="0"/>
        <pt x="75" y="26" on="0"/>
        <pt x="75" y="112" on="0"/>
        <pt x="153" y="310" on="0"/>
        <pt x="231" y="520" on="0"/>
        <pt x="231" y="573" on="1"/>
        <pt x="231" y="586" on="0"/>
        <pt x="211" y="601" on="0"/>
        <pt x="188" y="605" on="0"/>
        <pt x="163" y="608" on="1"/>
        <pt x="154" y="610" on="0"/>
        <pt x="154" y="637" on="0"/>
        <pt x="166" y="661" on="0"/>
        <pt x="170" y="661" on="1"/>
        <pt x="242" y="652" on="0"/>
      </contour>
    </TTGlyph>
    <TTGlyph name="B.alt" xMin="0" yMin="-37" xMax="735" yMax="714">
      <contour>
        <pt x="598" y="360" on="1"/>
        <pt x="695" y="320" on="0"/>
        <pt x="695" y="229" on="1"/>
        <pt x="695" y="168" on="0"/>
        <pt x="626" y="70" on="0"/>
        <pt x="570" y="41" on="1"/>
        <pt x="454" y="-19" on="0"/>
        <pt x="319" y="-19" on="1"/>
        <pt x="241" y="-19" on="0"/>
        <pt x="184" y="1" on="1"/>
        <pt x="149" y="-20" on="0"/>
        <pt x="101" y="-37" on="0"/>
        <pt x="38" y="-37" on="0"/>
        <pt x="0" y="18" on="0"/>
        <pt x="0" y="44" on="1"/>
        <pt x="0" y="99" on="0"/>
        <pt x="66" y="99" on="1"/>
        <pt x="101" y="99" on="0"/>
        <pt x="144" y="85" on="1"/>
        <pt x="191" y="153" on="0"/>
        <pt x="246" y="325" on="1"/>
        <pt x="198" y="308" on="0"/>
        <pt x="105" y="308" on="0"/>
        <pt x="47" y="365" on="0"/>
        <pt x="47" y="410" on="1"/>
        <pt x="47" y="476" on="0"/>
        <pt x="134" y="594" on="0"/>
        <pt x="270" y="670" on="0"/>
        <pt x="430" y="714" on="0"/>
        <pt x="506" y="714" on="1"/>
        <pt x="611" y="714" on="0"/>
        <pt x="735" y="612" on="0"/>
        <pt x="735" y="540" on="1"/>
        <pt x="735" y="488" on="0"/>
        <pt x="666" y="392" on="0"/>
      </contour>
      <contour>
        <pt x="509" y="307" on="1"/>
        <pt x="471" y="288" on="0"/>
        <pt x="451" y="288" on="1"/>
        <pt x="425" y="288" on="0"/>
        <pt x="425" y="340" on="0"/>
        <pt x="468" y="397" on="0"/>
        <pt x="484" y="397" on="1"/>
        <pt x="512" y="397" on="0"/>
        <pt x="547" y="383" on="1"/>
        <pt x="601" y="437" on="0"/>
        <pt x="601" y="560" on="0"/>
        <pt x="500" y="621" on="0"/>
        <pt x="322" y="621" on="0"/>
        <pt x="163" y="527" on="0"/>
        <pt x="163" y="448" on="1"/>
        <pt x="163" y="420" on="0"/>
        <pt x="196" y="385" on="0"/>
        <pt x="243" y="385" on="0"/>
        <pt x="267" y="391" on="1"/>
        <pt x="294" y="467" on="0"/>
        <pt x="350" y="546" on="0"/>
        <pt x="395" y="546" on="1"/>
        <pt x="467" y="546" on="0"/>
        <pt x="467" y="504" on="1"/>
        <pt x="467" y="476" on="0"/>
        <pt x="409" y="405" on="1"/>
        <pt x="393" y="367" on="0"/>
        <pt x="328" y="198" on="0"/>
        <pt x="281" y="99" on="0"/>
        <pt x="253" y="62" on="1"/>
        <pt x="282" y="53" on="0"/>
        <pt x="326" y="53" on="1"/>
        <pt x="414" y="53" on="0"/>
        <pt x="544" y="136" on="0"/>
        <pt x="544" y="214" on="1"/>
        <pt x="544" y="275" on="0"/>
      </contour>
    </TTGlyph>
    <TTGlyph name="B.smcp" xMin="32" yMin="-12" xMax="529" yMax="520">
      <contour>
        <pt x="210" y="512" on="1"/>
        <pt x="389" y="520" on="1"/>
        <pt x="529" y="520" on="0"/>
        <pt x="529" y="415" on="1"/>
        <pt x="529" y="338" on="0"/>
        <pt x="421" y="282" on="1"/>
        <pt x="496" y="249" on="0"/>
        <pt x="496" y="182" on="1"/>
        <pt x="496" y="128" on="0"/>
        <pt x="398" y="36" on="0"/>
        <pt x="260" y="-12" on="0"/>
        <pt x="125" y="-12" on="0"/>
        <pt x="32" y="24" on="0"/>
        <pt x="32" y="98" on="0"/>
        <pt x="87" y="231" on="1"/>
        <pt x="152" y="394" on="0"/>
        <pt x="152" y="447" on="1"/>
        <pt x="152" y="463" on="0"/>
        <pt x="131" y="466" on="1"/>
        <pt x="123" y="468" on="0"/>
        <pt x="107" y="469" on="1"/>
        <pt x="94" y="473" on="0"/>
        <pt x="94" y="498" on="0"/>
        <pt x="113" y="520" on="0"/>
        <pt x="121" y="520" on="1"/>
        <pt x="169" y="512" on="0"/>
      </contour>
      <contour>
        <pt x="336" y="233" on="1"/>
        <pt x="314" y="222" on="0"/>
        <pt x="294" y="222" on="1"/>
        <pt x="263" y="222" on="0"/>
        <pt x="263" y="250" on="1"/>
        <pt x="263" y="270" on="0"/>
        <pt x="300" y="316" on="0"/>
        <pt x="341" y="316" on="0"/>
        <pt x="369" y="306" on="1"/>
        <pt x="400" y="339" on="0"/>
        <pt x="400" y="419" on="0"/>
        <pt x="362" y="456" on="0"/>
        <pt x="332" y="456" on="1"/>
        <pt x="290" y="456" on="1"/>
        <pt x="287" y="425" on="0"/>
        <pt x="203" y="219" on="0"/>
        <pt x="191" y="185" on="0"/>
        <pt x="182" y="160" on="1"/>
        <pt x="166" y="116" on="0"/>
        <pt x="166" y="89" on="1"/>
        <pt x="166" y="74" on="0"/>
        <pt x="209" y="57" on="0"/>
        <pt x="229" y="57" on="1"/>
        <pt x="283" y="57" on="0"/>
        <pt x="360" y="119" on="0"/>
        <pt x="360" y="209" on="0"/>
      </contour>
    </TTGlyph>
    <TTGlyph name="B.smcp.titl" xMin="-23" yMin="-206" xMax="780" yMax="716">
      <contour>
        <pt x="780" y="-106" on="1"/>
        <pt x="-23" y="-106" on="1"/>
        <pt x="-23" y="636" on="1"/>
        <pt x="780" y="636" on="1"/>
      </contour>
      <contour>
        <pt x="489" y="520" on="1"/>
        <pt x="310" y="512" on="1"/>
        <pt x="269" y="512" on="0"/>
        <pt x="221" y="520" on="1"/>
        <pt x="213" y="520" on="0"/>
        <pt x="194" y="498" on="0"/>
        <pt x="194" y="473" on="0"/>
        <pt x="207" y="469" on="1"/>
        <pt x="236" y="467" on="0"/>
        <pt x="252" y="456" on="0"/>
        <pt x="252" y="447" on="1"/>
        <pt x="252" y="394" on="0"/>
        <pt x="187" y="231" on="1"/>
        <pt x="132" y="98" on="0"/>
        <pt x="132" y="24" on="0"/>
        <pt x="225" y="-12" on="0"/>
        <pt x="360" y="-12" on="0"/>
        <pt x="498" y="36" on="0"/>
        <pt x="596" y="128" on="0"/>
        <pt x="596" y="182" on="1"/>
        <pt x="596" y="249" on="0"/>
        <pt x="521" y="282" on="1"/>
        <pt x="629" y="338" on="0"/>
        <pt x="629" y="415" on="1"/>
        <pt x="629" y="520" on="0"/>
      </contour>
      <contour>
        <pt x="436" y="233" on="1"/>
        <pt x="460" y="209" on="0"/>
        <pt x="460" y="119" on="0"/>
        <pt x="383" y="57" on="0"/>
        <pt x="329" y="57" on="1"/>
        <pt x="309" y="57" on="0"/>
        <pt x="266" y="74" on="0"/>
        <pt x="266" y="101" on="0"/>
        <pt x="273" y="135" on="0"/>
        <pt x="291" y="185" on="0"/>
        <pt x="303" y="219" on="0"/>
        <pt x="317" y="254" on="1"/>
        <pt x="387" y="425" on="0"/>
        <pt x="390" y="456" on="1"/>
        <pt x="432" y="456" on="1"/>
        <pt x="462" y="456" on="0"/>
        <pt x="500" y="419" on="0"/>
        <pt x="500" y="339" on="0"/>
        <pt x="469" y="306" on="1"/>
        <pt x="441" y="316" on="0"/>
        <pt x="400" y="316" on="0"/>
        <pt x="363" y="270" on="0"/>
        <pt x="363" y="250" on="1"/>
        <pt x="363" y="222" on="0"/>
        <pt x="394" y="222" on="1"/>
        <pt x="414" y="222" on="0"/>
      </contour>
      <contour>
        <pt x="780" y="-206" on="1"/>
        <pt x="-23" y="-206" on="1"/>
        <pt x="-23" y="-180" on="1"/>
        <pt x="780" y="-180" on="1"/>
      </contour>
      <contour>
        <pt x="780" y="690" on="1"/>
        <pt x="-23" y="690" on="1"/>
        <pt x="-23" y="716" on="1"/>
        <pt x="780" y="716" on="1"/>
      </contour>
    </TTGlyph>
    <TTGlyph name="B_c_n" xMin="0" yMin="-66" xMax="1752" yMax="708">
      <contour>
        <pt x="450" y="358" on="0"/>
        <pt x="488" y="358" on="0"/>
        <pt x="526" y="348" on="1"/>
        <pt x="534" y="355" on="0"/>
        <pt x="557" y="378" on="0"/>
        <pt x="596" y="445" on="0"/>
        <pt x="596" y="519" on="0"/>
        <pt x="575" y="564" on="0"/>
        <pt x="495" y="602" on="0"/>
        <pt x="335" y="616" on="0"/>
        <pt x="197" y="616" on="1"/>
        <pt x="168" y="616" on="0"/>
        <pt x="112" y="528" on="0"/>
        <pt x="112" y="456" on="1"/>
        <pt x="112" y="440" on="0"/>
        <pt x="131" y="421" on="0"/>
        <pt x="145" y="421" on="1"/>
        <pt x="177" y="421" on="0"/>
        <pt x="194" y="444" on="1"/>
        <pt x="200" y="444" on="0"/>
        <pt x="216" y="430" on="1"/>
        <pt x="213" y="419" on="0"/>
        <pt x="186" y="381" on="0"/>
        <pt x="172" y="368" on="1"/>
        <pt x="136" y="335" on="0"/>
        <pt x="49" y="335" on="0"/>
        <pt x="0" y="383" on="0"/>
        <pt x="0" y="421" on="1"/>
        <pt x="0" y="480" on="0"/>
        <pt x="77" y="613" on="0"/>
        <pt x="207" y="708" on="0"/>
        <pt x="275" y="708" on="1"/>
        <pt x="528" y="708" on="0"/>
        <pt x="739" y="632" on="0"/>
        <pt x="739" y="532" on="1"/>
        <pt x="739" y="495" on="0"/>
        <pt x="704" y="427" on="0"/>
        <pt x="659" y="382" on="0"/>
        <pt x="632" y="364" on="1"/>
        <pt x="596" y="339" on="0"/>
        <pt x="569" y="328" on="1"/>
        <pt x="610" y="316" on="0"/>
        <pt x="645" y="286" on="1"/>
        <pt x="659" y="274" on="0"/>
        <pt x="684" y="231" on="0"/>
        <pt x="684" y="207" on="1"/>
        <pt x="684" y="141" on="0"/>
        <pt x="580" y="26" on="0"/>
        <pt x="424" y="-39" on="0"/>
        <pt x="259" y="-39" on="0"/>
        <pt x="183" y="16" on="1"/>
        <pt x="136" y="-13" on="0"/>
        <pt x="62" y="-13" on="0"/>
        <pt x="14" y="33" on="0"/>
        <pt x="14" y="76" on="0"/>
        <pt x="69" y="129" on="0"/>
        <pt x="85" y="129" on="1"/>
        <pt x="129" y="129" on="0"/>
        <pt x="164" y="108" on="1"/>
        <pt x="191" y="135" on="0"/>
        <pt x="216" y="193" on="0"/>
        <pt x="229" y="229" on="0"/>
        <pt x="247" y="295" on="0"/>
        <pt x="258" y="337" on="0"/>
        <pt x="280" y="427" on="0"/>
        <pt x="287" y="453" on="1"/>
        <pt x="316" y="566" on="0"/>
        <pt x="394" y="566" on="1"/>
        <pt x="427" y="566" on="0"/>
        <pt x="450" y="550" on="1"/>
        <pt x="459" y="545" on="1"/>
        <pt x="447" y="529" on="0"/>
        <pt x="434" y="490" on="1"/>
        <pt x="383" y="338" on="0"/>
        <pt x="287" y="123" on="0"/>
        <pt x="231" y="59" on="1"/>
        <pt x="293" y="30" on="0"/>
        <pt x="349" y="30" on="1"/>
        <pt x="433" y="30" on="0"/>
        <pt x="536" y="122" on="0"/>
        <pt x="536" y="192" on="1"/>
        <pt x="536" y="216" on="0"/>
        <pt x="522" y="257" on="0"/>
        <pt x="515" y="266" on="1"/>
        <pt x="508" y="275" on="1"/>
        <pt x="466" y="253" on="0"/>
        <pt x="415" y="253" on="0"/>
        <pt x="415" y="310" on="0"/>
      </contour>
      <contour>
        <pt x="1355" y="261" on="1"/>
        <pt x="1333" y="161" on="0"/>
        <pt x="1243" y="-8" on="0"/>
        <pt x="1193" y="-8" on="0"/>
        <pt x="1138" y="11" on="0"/>
        <pt x="1138" y="30" on="1"/>
        <pt x="1138" y="64" on="0"/>
        <pt x="1191" y="168" on="0"/>
        <pt x="1218" y="203" on="1"/>
        <pt x="1244" y="238" on="1"/>
        <pt x="1264" y="306" on="0"/>
        <pt x="1264" y="387" on="1"/>
        <pt x="1264" y="423" on="0"/>
        <pt x="1249" y="423" on="1"/>
        <pt x="1239" y="423" on="0"/>
        <pt x="1169" y="377" on="1"/>
        <pt x="1166" y="331" on="0"/>
        <pt x="1075" y="258" on="0"/>
        <pt x="1008" y="258" on="0"/>
        <pt x="1008" y="288" on="1"/>
        <pt x="1008" y="324" on="0"/>
        <pt x="1043" y="346" on="1"/>
        <pt x="1040" y="403" on="0"/>
        <pt x="982" y="403" on="1"/>
        <pt x="964" y="403" on="0"/>
        <pt x="942" y="396" on="1"/>
        <pt x="878" y="348" on="0"/>
        <pt x="850" y="258" on="1"/>
        <pt x="839" y="220" on="0"/>
        <pt x="838" y="180" on="1"/>
        <pt x="838" y="177" on="1"/>
        <pt x="838" y="138" on="0"/>
        <pt x="878" y="83" on="0"/>
        <pt x="953" y="83" on="0"/>
        <pt x="1024" y="116" on="0"/>
        <pt x="1070" y="149" on="0"/>
        <pt x="1078" y="149" on="0"/>
        <pt x="1091" y="131" on="0"/>
        <pt x="1091" y="122" on="0"/>
        <pt x="1067" y="94" on="0"/>
        <pt x="1021" y="54" on="0"/>
        <pt x="993" y="36" on="1"/>
        <pt x="924" y="-10" on="0"/>
        <pt x="788" y="-10" on="0"/>
        <pt x="717" y="68" on="0"/>
        <pt x="717" y="205" on="0"/>
        <pt x="813" y="368" on="0"/>
        <pt x="978" y="480" on="0"/>
        <pt x="1143" y="480" on="0"/>
        <pt x="1162" y="425" on="1"/>
        <pt x="1288" y="504" on="0"/>
        <pt x="1338" y="504" on="1"/>
        <pt x="1353" y="504" on="0"/>
        <pt x="1374" y="450" on="0"/>
        <pt x="1374" y="387" on="0"/>
        <pt x="1372" y="351" on="1"/>
        <pt x="1428" y="420" on="0"/>
        <pt x="1563" y="523" on="0"/>
        <pt x="1649" y="523" on="0"/>
        <pt x="1689" y="477" on="0"/>
        <pt x="1689" y="441" on="1"/>
        <pt x="1689" y="387" on="0"/>
        <pt x="1549" y="83" on="0"/>
        <pt x="1549" y="48" on="1"/>
        <pt x="1549" y="30" on="0"/>
        <pt x="1568" y="9" on="0"/>
        <pt x="1610" y="9" on="0"/>
        <pt x="1678" y="50" on="0"/>
        <pt x="1726" y="90" on="0"/>
        <pt x="1733" y="90" on="0"/>
        <pt x="1752" y="69" on="0"/>
        <pt x="1752" y="54" on="0"/>
        <pt x="1728" y="28" on="0"/>
        <pt x="1681" y="-9" on="0"/>
        <pt x="1652" y="-26" on="1"/>
        <pt x="1581" y="-66" on="0"/>
        <pt x="1507" y="-66" on="1"/>
        <pt x="1466" y="-66" on="0"/>
        <pt x="1418" y="-21" on="0"/>
        <pt x="1418" y="56" on="0"/>
        <pt x="1484" y="201" on="0"/>
        <pt x="1550" y="357" on="0"/>
        <pt x="1550" y="402" on="1"/>
        <pt x="1550" y="415" on="0"/>
        <pt x="1540" y="431" on="0"/>
        <pt x="1529" y="433" on="1"/>
        <pt x="1485" y="405" on="0"/>
        <pt x="1379" y="302" on="0"/>
      </contour>
    </TTGlyph>
    <TTGlyph name="B_s_A_s" xMin="-205" yMin="-243" xMax="2200" yMax="714">
      <contour>
        <pt x="1554" y="187" on="1"/>
        <pt x="1575" y="321" on="0"/>
        <pt x="1596" y="410" on="1"/>
        <pt x="1530" y="296" on="0"/>
        <pt x="1476" y="216" on="1"/>
        <pt x="1520" y="192" on="0"/>
      </contour>
      <contour>
        <pt x="1075" y="327" on="1"/>
        <pt x="1061" y="327" on="0"/>
        <pt x="1078" y="367" on="0"/>
        <pt x="1078" y="407" on="0"/>
        <pt x="1041" y="433" on="0"/>
        <pt x="994" y="433" on="0"/>
        <pt x="968" y="427" on="1"/>
        <pt x="953" y="402" on="0"/>
        <pt x="953" y="347" on="0"/>
        <pt x="1004" y="288" on="0"/>
        <pt x="1065" y="247" on="0"/>
        <pt x="1116" y="190" on="0"/>
        <pt x="1116" y="162" on="1"/>
        <pt x="1116" y="82" on="0"/>
        <pt x="980" y="-9" on="0"/>
        <pt x="821" y="-9" on="0"/>
        <pt x="731" y="63" on="0"/>
        <pt x="731" y="142" on="0"/>
        <pt x="786" y="189" on="0"/>
        <pt x="841" y="189" on="1"/>
        <pt x="849" y="189" on="0"/>
        <pt x="849" y="181" on="1"/>
        <pt x="849" y="178" on="0"/>
        <pt x="837" y="138" on="0"/>
        <pt x="837" y="122" on="1"/>
        <pt x="837" y="88" on="0"/>
        <pt x="882" y="51" on="0"/>
        <pt x="945" y="51" on="0"/>
        <pt x="990" y="87" on="0"/>
        <pt x="990" y="143" on="0"/>
        <pt x="942" y="189" on="0"/>
        <pt x="886" y="223" on="0"/>
        <pt x="838" y="288" on="0"/>
        <pt x="838" y="329" on="1"/>
        <pt x="838" y="409" on="0"/>
        <pt x="972" y="502" on="0"/>
        <pt x="1058" y="502" on="1"/>
        <pt x="1113" y="502" on="0"/>
        <pt x="1181" y="460" on="0"/>
        <pt x="1181" y="420" on="1"/>
        <pt x="1181" y="394" on="0"/>
        <pt x="1159" y="356" on="0"/>
        <pt x="1131" y="338" on="0"/>
        <pt x="1113" y="333" on="1"/>
        <pt x="1091" y="327" on="0"/>
      </contour>
      <contour>
        <pt x="461" y="547" on="1"/>
        <pt x="391" y="274" on="0"/>
        <pt x="311" y="102" on="1"/>
        <pt x="236" y="-57" on="0"/>
        <pt x="150" y="-142" on="1"/>
        <pt x="104" y="-187" on="0"/>
        <pt x="-11" y="-243" on="0"/>
        <pt x="-134" y="-243" on="0"/>
        <pt x="-205" y="-186" on="0"/>
        <pt x="-205" y="-95" on="0"/>
        <pt x="-127" y="-35" on="0"/>
        <pt x="-102" y="-35" on="1"/>
        <pt x="-100" y="-35" on="0"/>
        <pt x="-95" y="-43" on="0"/>
        <pt x="-95" y="-46" on="0"/>
        <pt x="-96" y="-53" on="1"/>
        <pt x="-100" y="-69" on="0"/>
        <pt x="-100" y="-132" on="0"/>
        <pt x="-64" y="-172" on="0"/>
        <pt x="-40" y="-172" on="1"/>
        <pt x="11" y="-172" on="0"/>
        <pt x="99" y="-78" on="0"/>
        <pt x="170" y="80" on="0"/>
        <pt x="201" y="164" on="1"/>
        <pt x="290" y="407" on="0"/>
        <pt x="350" y="500" on="1"/>
        <pt x="365" y="523" on="0"/>
        <pt x="414" y="550" on="0"/>
        <pt x="450" y="550" on="0"/>
      </contour>
      <contour>
        <pt x="459" y="328" on="0"/>
        <pt x="497" y="328" on="0"/>
        <pt x="535" y="318" on="1"/>
        <pt x="561" y="351" on="0"/>
        <pt x="605" y="445" on="0"/>
        <pt x="605" y="519" on="0"/>
        <pt x="584" y="564" on="0"/>
        <pt x="504" y="602" on="0"/>
        <pt x="344" y="616" on="0"/>
        <pt x="206" y="616" on="1"/>
        <pt x="177" y="616" on="0"/>
        <pt x="121" y="528" on="0"/>
        <pt x="121" y="456" on="1"/>
        <pt x="121" y="440" on="0"/>
        <pt x="140" y="421" on="0"/>
        <pt x="154" y="421" on="1"/>
        <pt x="186" y="421" on="0"/>
        <pt x="203" y="444" on="1"/>
        <pt x="209" y="444" on="0"/>
        <pt x="225" y="430" on="1"/>
        <pt x="222" y="419" on="0"/>
        <pt x="195" y="381" on="0"/>
        <pt x="182" y="368" on="1"/>
        <pt x="145" y="335" on="0"/>
        <pt x="58" y="335" on="0"/>
        <pt x="9" y="383" on="0"/>
        <pt x="9" y="421" on="1"/>
        <pt x="9" y="480" on="0"/>
        <pt x="86" y="613" on="0"/>
        <pt x="216" y="708" on="0"/>
        <pt x="284" y="708" on="1"/>
        <pt x="537" y="708" on="0"/>
        <pt x="748" y="632" on="0"/>
        <pt x="748" y="532" on="1"/>
        <pt x="748" y="487" on="0"/>
        <pt x="701" y="399" on="0"/>
        <pt x="664" y="366" on="1"/>
        <pt x="611" y="318" on="0"/>
        <pt x="578" y="298" on="1"/>
        <pt x="617" y="285" on="0"/>
        <pt x="619" y="284" on="1"/>
        <pt x="703" y="246" on="0"/>
        <pt x="703" y="168" on="1"/>
        <pt x="703" y="75" on="0"/>
        <pt x="521" y="-65" on="0"/>
        <pt x="395" y="-65" on="1"/>
        <pt x="305" y="-65" on="0"/>
        <pt x="305" y="-8" on="1"/>
        <pt x="305" y="10" on="0"/>
        <pt x="319" y="26" on="0"/>
        <pt x="321" y="25" on="1"/>
        <pt x="364" y="15" on="0"/>
        <pt x="403" y="15" on="1"/>
        <pt x="480" y="15" on="0"/>
        <pt x="564" y="87" on="0"/>
        <pt x="564" y="143" on="1"/>
        <pt x="564" y="176" on="0"/>
        <pt x="538" y="225" on="0"/>
        <pt x="524" y="234" on="1"/>
        <pt x="511" y="242" on="1"/>
        <pt x="475" y="223" on="0"/>
        <pt x="424" y="223" on="0"/>
        <pt x="424" y="280" on="0"/>
      </contour>
      <contour>
        <pt x="1549" y="151" on="1"/>
        <pt x="1536" y="151" on="1"/>
        <pt x="1494" y="151" on="0"/>
        <pt x="1441" y="166" on="1"/>
        <pt x="1146" y="-234" on="0"/>
        <pt x="804" y="-234" on="1"/>
        <pt x="716" y="-234" on="0"/>
        <pt x="628" y="-165" on="0"/>
        <pt x="628" y="-111" on="1"/>
        <pt x="628" y="-82" on="0"/>
        <pt x="664" y="-24" on="0"/>
        <pt x="674" y="-24" on="1"/>
        <pt x="680" y="-24" on="0"/>
        <pt x="680" y="-30" on="1"/>
        <pt x="680" y="-66" on="0"/>
        <pt x="766" y="-123" on="0"/>
        <pt x="845" y="-123" on="1"/>
        <pt x="1007" y="-123" on="0"/>
        <pt x="1265" y="41" on="0"/>
        <pt x="1381" y="185" on="1"/>
        <pt x="1273" y="223" on="0"/>
        <pt x="1220" y="223" on="0"/>
        <pt x="1192" y="200" on="0"/>
        <pt x="1190" y="186" on="1"/>
        <pt x="1178" y="186" on="0"/>
        <pt x="1154" y="216" on="0"/>
        <pt x="1154" y="269" on="0"/>
        <pt x="1195" y="319" on="0"/>
        <pt x="1247" y="319" on="1"/>
        <pt x="1273" y="319" on="0"/>
        <pt x="1341" y="293" on="0"/>
        <pt x="1384" y="269" on="0"/>
        <pt x="1426" y="243" on="1"/>
        <pt x="1467" y="299" on="0"/>
        <pt x="1606" y="502" on="0"/>
        <pt x="1628" y="534" on="1"/>
        <pt x="1671" y="714" on="0"/>
        <pt x="1747" y="714" on="1"/>
        <pt x="1777" y="714" on="0"/>
        <pt x="1827" y="681" on="0"/>
        <pt x="1827" y="644" on="0"/>
        <pt x="1788" y="593" on="0"/>
        <pt x="1759" y="573" on="1"/>
        <pt x="1743" y="504" on="0"/>
        <pt x="1677" y="171" on="0"/>
        <pt x="1677" y="79" on="0"/>
        <pt x="1703" y="55" on="0"/>
        <pt x="1746" y="55" on="0"/>
        <pt x="1772" y="66" on="1"/>
        <pt x="1771" y="70" on="0"/>
        <pt x="1771" y="78" on="1"/>
        <pt x="1771" y="158" on="0"/>
        <pt x="1830" y="158" on="1"/>
        <pt x="1853" y="158" on="0"/>
        <pt x="1888" y="138" on="0"/>
        <pt x="1888" y="122" on="1"/>
        <pt x="1888" y="96" on="0"/>
        <pt x="1871" y="77" on="1"/>
        <pt x="1863" y="68" on="1"/>
        <pt x="1886" y="51" on="0"/>
        <pt x="1964" y="51" on="0"/>
        <pt x="2009" y="87" on="0"/>
        <pt x="2009" y="140" on="0"/>
        <pt x="1978" y="175" on="0"/>
        <pt x="1933" y="206" on="0"/>
        <pt x="1910" y="224" on="1"/>
        <pt x="1857" y="265" on="0"/>
        <pt x="1857" y="329" on="1"/>
        <pt x="1857" y="409" on="0"/>
        <pt x="1991" y="502" on="0"/>
        <pt x="2077" y="502" on="1"/>
        <pt x="2132" y="502" on="0"/>
        <pt x="2200" y="460" on="0"/>
        <pt x="2200" y="420" on="1"/>
        <pt x="2200" y="394" on="0"/>
        <pt x="2178" y="356" on="0"/>
        <pt x="2150" y="338" on="0"/>
        <pt x="2132" y="333" on="1"/>
        <pt x="2110" y="327" on="0"/>
        <pt x="2087" y="327" on="0"/>
        <pt x="2085" y="338" on="0"/>
        <pt x="2097" y="367" on="0"/>
        <pt x="2097" y="407" on="0"/>
        <pt x="2060" y="433" on="0"/>
        <pt x="2013" y="433" on="0"/>
        <pt x="1987" y="427" on="1"/>
        <pt x="1972" y="402" on="0"/>
        <pt x="1972" y="347" on="0"/>
        <pt x="2023" y="288" on="0"/>
        <pt x="2084" y="247" on="0"/>
        <pt x="2135" y="190" on="0"/>
        <pt x="2135" y="162" on="1"/>
        <pt x="2135" y="82" on="0"/>
        <pt x="1999" y="-9" on="0"/>
        <pt x="1838" y="-9" on="0"/>
        <pt x="1800" y="26" on="1"/>
        <pt x="1723" y="-20" on="0"/>
        <pt x="1648" y="-20" on="1"/>
        <pt x="1544" y="-20" on="0"/>
        <pt x="1544" y="88" on="1"/>
        <pt x="1544" y="119" on="0"/>
      </contour>
    </TTGlyph>
    <TTGlyph name="C" xMin="70" yMin="-24" xMax="663" yMax="667">
      <contour>
        <pt x="531" y="101" on="1"/>
        <pt x="498" y="49" on="0"/>
        <pt x="341" y="-24" on="0"/>
        <pt x="163" y="-24" on="0"/>
        <pt x="70" y="72" on="0"/>
        <pt x="70" y="213" on="0"/>
        <pt x="120" y="355" on="0"/>
        <pt x="211" y="489" on="0"/>
        <pt x="325" y="600" on="0"/>
        <pt x="469" y="667" on="0"/>
        <pt x="603" y="667" on="0"/>
        <pt x="663" y="628" on="0"/>
        <pt x="663" y="558" on="0"/>
        <pt x="583" y="478" on="0"/>
        <pt x="530" y="468" on="1"/>
        <pt x="523" y="469" on="0"/>
        <pt x="509" y="485" on="0"/>
        <pt x="509" y="495" on="0"/>
        <pt x="511" y="497" on="1"/>
        <pt x="529" y="528" on="0"/>
        <pt x="529" y="553" on="1"/>
        <pt x="529" y="605" on="0"/>
        <pt x="454" y="606" on="1"/>
        <pt x="409" y="587" on="0"/>
        <pt x="300" y="438" on="0"/>
        <pt x="222" y="246" on="0"/>
        <pt x="222" y="176" on="1"/>
        <pt x="222" y="66" on="0"/>
        <pt x="320" y="66" on="1"/>
        <pt x="428" y="66" on="0"/>
        <pt x="497" y="135" on="1"/>
        <pt x="525" y="126" on="0"/>
      </contour>
    </TTGlyph>
    <TTGlyph name="C.alt" xMin="70" yMin="-126" xMax="663" yMax="667">
      <contour>
        <pt x="541" y="21" on="1"/>
        <pt x="503" y="-37" on="0"/>
        <pt x="352" y="-126" on="0"/>
        <pt x="268" y="-126" on="1"/>
        <pt x="70" y="-126" on="0"/>
        <pt x="70" y="112" on="1"/>
        <pt x="70" y="241" on="0"/>
        <pt x="201" y="499" on="0"/>
        <pt x="421" y="667" on="0"/>
        <pt x="539" y="667" on="1"/>
        <pt x="603" y="667" on="0"/>
        <pt x="663" y="628" on="0"/>
        <pt x="663" y="558" on="0"/>
        <pt x="583" y="478" on="0"/>
        <pt x="530" y="468" on="1"/>
        <pt x="523" y="469" on="0"/>
        <pt x="509" y="485" on="0"/>
        <pt x="509" y="495" on="0"/>
        <pt x="511" y="497" on="1"/>
        <pt x="529" y="528" on="0"/>
        <pt x="529" y="553" on="1"/>
        <pt x="529" y="605" on="0"/>
        <pt x="454" y="606" on="1"/>
        <pt x="380" y="575" on="0"/>
        <pt x="222" y="280" on="0"/>
        <pt x="222" y="136" on="1"/>
        <pt x="222" y="41" on="0"/>
        <pt x="271" y="-36" on="0"/>
        <pt x="330" y="-36" on="1"/>
        <pt x="423" y="-36" on="0"/>
        <pt x="507" y="55" on="1"/>
        <pt x="535" y="46" on="0"/>
      </contour>
    </TTGlyph>
    <TTGlyph name="C.smcp" xMin="19" yMin="-19" xMax="516" yMax="524">
      <contour>
        <pt x="406" y="98" on="1"/>
        <pt x="379" y="55" on="0"/>
        <pt x="239" y="-19" on="0"/>
        <pt x="95" y="-19" on="0"/>
        <pt x="19" y="57" on="0"/>
        <pt x="19" y="181" on="0"/>
        <pt x="82" y="322" on="0"/>
        <pt x="182" y="443" on="0"/>
        <pt x="322" y="524" on="0"/>
        <pt x="446" y="524" on="0"/>
        <pt x="516" y="490" on="0"/>
        <pt x="516" y="434" on="0"/>
        <pt x="449" y="370" on="0"/>
        <pt x="404" y="361" on="1"/>
        <pt x="396" y="362" on="0"/>
        <pt x="379" y="379" on="0"/>
        <pt x="379" y="390" on="0"/>
        <pt x="393" y="415" on="0"/>
        <pt x="393" y="445" on="0"/>
        <pt x="353" y="465" on="0"/>
        <pt x="328" y="467" on="1"/>
        <pt x="276" y="443" on="0"/>
        <pt x="156" y="222" on="0"/>
        <pt x="156" y="60" on="0"/>
        <pt x="221" y="60" on="1"/>
        <pt x="299" y="60" on="0"/>
        <pt x="366" y="131" on="1"/>
        <pt x="400" y="125" on="0"/>
      </contour>
    </TTGlyph>
    <TTGlyph name="C.smcp.titl" xMin="-10" yMin="-206" xMax="673" yMax="716">
      <contour>
        <pt x="673" y="-206" on="1"/>
        <pt x="-10" y="-206" on="1"/>
        <pt x="-10" y="-180" on="1"/>
        <pt x="673" y="-180" on="1"/>
      </contour>
      <contour>
        <pt x="673" y="690" on="1"/>
        <pt x="-10" y="690" on="1"/>
        <pt x="-10" y="716" on="1"/>
        <pt x="673" y="716" on="1"/>
      </contour>
      <contour>
        <pt x="673" y="-106" on="1"/>
        <pt x="-10" y="-106" on="1"/>
        <pt x="-10" y="636" on="1"/>
        <pt x="673" y="636" on="1"/>
      </contour>
      <contour>
        <pt x="466" y="131" on="1"/>
        <pt x="399" y="60" on="0"/>
        <pt x="321" y="60" on="1"/>
        <pt x="256" y="60" on="0"/>
        <pt x="256" y="222" on="0"/>
        <pt x="376" y="443" on="0"/>
        <pt x="428" y="467" on="1"/>
        <pt x="453" y="465" on="0"/>
        <pt x="493" y="445" on="0"/>
        <pt x="493" y="415" on="0"/>
        <pt x="479" y="390" on="0"/>
        <pt x="479" y="379" on="0"/>
        <pt x="496" y="362" on="0"/>
        <pt x="504" y="361" on="1"/>
        <pt x="549" y="370" on="0"/>
        <pt x="616" y="434" on="0"/>
        <pt x="616" y="490" on="0"/>
        <pt x="546" y="524" on="0"/>
        <pt x="422" y="524" on="0"/>
        <pt x="282" y="443" on="0"/>
        <pt x="182" y="322" on="0"/>
        <pt x="119" y="181" on="0"/>
        <pt x="119" y="57" on="0"/>
        <pt x="195" y="-19" on="0"/>
        <pt x="339" y="-19" on="0"/>
        <pt x="479" y="55" on="0"/>
        <pt x="506" y="98" on="1"/>
        <pt x="503" y="110" on="0"/>
        <pt x="483" y="127" on="0"/>
      </contour>
    </TTGlyph>
    <TTGlyph name="C_h" xMin="70" yMin="-24" xMax="1070" yMax="721">
      <contour>
        <pt x="686" y="704" on="1"/>
        <pt x="801" y="700" on="1"/>
        <pt x="844" y="700" on="0"/>
        <pt x="890" y="721" on="0"/>
        <pt x="897" y="721" on="0"/>
        <pt x="906" y="705" on="0"/>
        <pt x="906" y="701" on="1"/>
        <pt x="906" y="620" on="0"/>
        <pt x="764" y="346" on="1"/>
        <pt x="769" y="342" on="1"/>
        <pt x="789" y="376" on="0"/>
        <pt x="947" y="503" on="0"/>
        <pt x="1030" y="503" on="0"/>
        <pt x="1070" y="457" on="0"/>
        <pt x="1070" y="421" on="1"/>
        <pt x="1070" y="367" on="0"/>
        <pt x="957" y="107" on="0"/>
        <pt x="957" y="72" on="1"/>
        <pt x="957" y="60" on="0"/>
        <pt x="967" y="60" on="1"/>
        <pt x="992" y="60" on="0"/>
        <pt x="1026" y="84" on="1"/>
        <pt x="1038" y="92" on="1"/>
        <pt x="1044" y="92" on="0"/>
        <pt x="1056" y="68" on="0"/>
        <pt x="1056" y="54" on="0"/>
        <pt x="1015" y="22" on="0"/>
        <pt x="934" y="-10" on="0"/>
        <pt x="891" y="-10" on="1"/>
        <pt x="826" y="-10" on="0"/>
        <pt x="826" y="44" on="1"/>
        <pt x="826" y="78" on="0"/>
        <pt x="931" y="325" on="0"/>
        <pt x="931" y="382" on="1"/>
        <pt x="931" y="395" on="0"/>
        <pt x="920" y="411" on="0"/>
        <pt x="910" y="413" on="1"/>
        <pt x="899" y="406" on="0"/>
        <pt x="862" y="381" on="0"/>
        <pt x="780" y="302" on="0"/>
        <pt x="756" y="261" on="1"/>
        <pt x="734" y="161" on="0"/>
        <pt x="644" y="-8" on="0"/>
        <pt x="595" y="-8" on="0"/>
        <pt x="549" y="11" on="0"/>
        <pt x="549" y="30" on="1"/>
        <pt x="549" y="62" on="0"/>
        <pt x="570" y="104" on="1"/>
        <pt x="427" y="-24" on="0"/>
        <pt x="258" y="-24" on="1"/>
        <pt x="163" y="-24" on="0"/>
        <pt x="70" y="72" on="0"/>
        <pt x="70" y="213" on="0"/>
        <pt x="120" y="355" on="0"/>
        <pt x="211" y="489" on="0"/>
        <pt x="325" y="600" on="0"/>
        <pt x="469" y="667" on="0"/>
        <pt x="603" y="667" on="0"/>
        <pt x="663" y="628" on="0"/>
        <pt x="663" y="558" on="0"/>
        <pt x="583" y="478" on="0"/>
        <pt x="530" y="468" on="1"/>
        <pt x="523" y="469" on="0"/>
        <pt x="509" y="485" on="0"/>
        <pt x="509" y="495" on="0"/>
        <pt x="511" y="497" on="1"/>
        <pt x="529" y="528" on="0"/>
        <pt x="529" y="553" on="1"/>
        <pt x="529" y="605" on="0"/>
        <pt x="454" y="606" on="1"/>
        <pt x="409" y="587" on="0"/>
        <pt x="300" y="438" on="0"/>
        <pt x="222" y="246" on="0"/>
        <pt x="222" y="176" on="1"/>
        <pt x="222" y="66" on="0"/>
        <pt x="320" y="66" on="1"/>
        <pt x="420" y="66" on="0"/>
        <pt x="597" y="171" on="0"/>
        <pt x="660" y="242" on="1"/>
        <pt x="698" y="334" on="0"/>
        <pt x="750" y="567" on="0"/>
        <pt x="750" y="627" on="1"/>
        <pt x="750" y="654" on="0"/>
        <pt x="685" y="659" on="1"/>
        <pt x="677" y="660" on="0"/>
        <pt x="673" y="664" on="0"/>
        <pt x="673" y="682" on="0"/>
        <pt x="683" y="704" on="0"/>
      </contour>
    </TTGlyph>
    <TTGlyph name="Cacute" xMin="70" yMin="-24" xMax="745" yMax="913">
      <contour>
        <pt x="745" y="802" on="1"/>
        <pt x="680" y="802" on="0"/>
        <pt x="544" y="747" on="0"/>
        <pt x="496" y="701" on="1"/>
        <pt x="489" y="701" on="0"/>
        <pt x="475" y="719" on="0"/>
        <pt x="475" y="740" on="0"/>
        <pt x="546" y="829" on="0"/>
        <pt x="651" y="913" on="0"/>
        <pt x="688" y="913" on="1"/>
        <pt x="707" y="913" on="0"/>
        <pt x="745" y="850" on="0"/>
      </contour>
      <contour>
        <pt x="531" y="101" on="1"/>
        <pt x="498" y="49" on="0"/>
        <pt x="341" y="-24" on="0"/>
        <pt x="163" y="-24" on="0"/>
        <pt x="70" y="72" on="0"/>
        <pt x="70" y="213" on="0"/>
        <pt x="120" y="355" on="0"/>
        <pt x="211" y="489" on="0"/>
        <pt x="325" y="600" on="0"/>
        <pt x="469" y="667" on="0"/>
        <pt x="603" y="667" on="0"/>
        <pt x="663" y="628" on="0"/>
        <pt x="663" y="558" on="0"/>
        <pt x="583" y="478" on="0"/>
        <pt x="530" y="468" on="1"/>
        <pt x="523" y="469" on="0"/>
        <pt x="509" y="485" on="0"/>
        <pt x="509" y="495" on="0"/>
        <pt x="511" y="497" on="1"/>
        <pt x="529" y="528" on="0"/>
        <pt x="529" y="553" on="1"/>
        <pt x="529" y="605" on="0"/>
        <pt x="454" y="606" on="1"/>
        <pt x="409" y="587" on="0"/>
        <pt x="300" y="438" on="0"/>
        <pt x="222" y="246" on="0"/>
        <pt x="222" y="176" on="1"/>
        <pt x="222" y="66" on="0"/>
        <pt x="320" y="66" on="1"/>
        <pt x="428" y="66" on="0"/>
        <pt x="497" y="135" on="1"/>
        <pt x="525" y="126" on="0"/>
      </contour>
    </TTGlyph>
    <TTGlyph name="Ccaron" xMin="70" yMin="-24" xMax="767" yMax="926">
      <contour>
        <pt x="735" y="924" on="1"/>
        <pt x="743" y="924" on="0"/>
        <pt x="767" y="901" on="0"/>
        <pt x="767" y="880" on="0"/>
        <pt x="609" y="707" on="0"/>
        <pt x="588" y="707" on="1"/>
        <pt x="562" y="707" on="0"/>
        <pt x="473" y="883" on="0"/>
        <pt x="473" y="906" on="0"/>
        <pt x="501" y="926" on="0"/>
        <pt x="509" y="926" on="1"/>
        <pt x="573" y="844" on="0"/>
        <pt x="602" y="819" on="1"/>
        <pt x="668" y="857" on="0"/>
      </contour>
      <contour>
        <pt x="531" y="101" on="1"/>
        <pt x="498" y="49" on="0"/>
        <pt x="341" y="-24" on="0"/>
        <pt x="163" y="-24" on="0"/>
        <pt x="70" y="72" on="0"/>
        <pt x="70" y="213" on="0"/>
        <pt x="120" y="355" on="0"/>
        <pt x="211" y="489" on="0"/>
        <pt x="325" y="600" on="0"/>
        <pt x="469" y="667" on="0"/>
        <pt x="603" y="667" on="0"/>
        <pt x="663" y="628" on="0"/>
        <pt x="663" y="558" on="0"/>
        <pt x="583" y="478" on="0"/>
        <pt x="530" y="468" on="1"/>
        <pt x="523" y="469" on="0"/>
        <pt x="509" y="485" on="0"/>
        <pt x="509" y="495" on="0"/>
        <pt x="511" y="497" on="1"/>
        <pt x="529" y="528" on="0"/>
        <pt x="529" y="553" on="1"/>
        <pt x="529" y="605" on="0"/>
        <pt x="454" y="606" on="1"/>
        <pt x="409" y="587" on="0"/>
        <pt x="300" y="438" on="0"/>
        <pt x="222" y="246" on="0"/>
        <pt x="222" y="176" on="1"/>
        <pt x="222" y="66" on="0"/>
        <pt x="320" y="66" on="1"/>
        <pt x="428" y="66" on="0"/>
        <pt x="497" y="135" on="1"/>
        <pt x="525" y="126" on="0"/>
      </contour>
    </TTGlyph>
    <TTGlyph name="Ccedilla" xMin="70" yMin="-249" xMax="663" yMax="667">
      <contour>
        <pt x="531" y="101" on="1"/>
        <pt x="505" y="60" on="0"/>
        <pt x="390" y="-6" on="0"/>
        <pt x="322" y="-18" on="1"/>
        <pt x="275" y="-57" on="1"/>
        <pt x="314" y="-65" on="0"/>
        <pt x="352" y="-105" on="0"/>
        <pt x="352" y="-131" on="1"/>
        <pt x="352" y="-174" on="0"/>
        <pt x="255" y="-249" on="0"/>
        <pt x="194" y="-249" on="1"/>
        <pt x="168" y="-249" on="0"/>
        <pt x="132" y="-219" on="0"/>
        <pt x="132" y="-176" on="0"/>
        <pt x="171" y="-141" on="0"/>
        <pt x="196" y="-141" on="0"/>
        <pt x="201" y="-156" on="1"/>
        <pt x="201" y="-159" on="0"/>
        <pt x="193" y="-176" on="0"/>
        <pt x="193" y="-184" on="1"/>
        <pt x="193" y="-200" on="0"/>
        <pt x="236" y="-200" on="0"/>
        <pt x="272" y="-157" on="0"/>
        <pt x="272" y="-118" on="0"/>
        <pt x="253" y="-93" on="0"/>
        <pt x="237" y="-92" on="1"/>
        <pt x="226" y="-106" on="0"/>
        <pt x="215" y="-106" on="1"/>
        <pt x="193" y="-106" on="0"/>
        <pt x="193" y="-73" on="1"/>
        <pt x="193" y="-56" on="0"/>
        <pt x="213" y="-56" on="1"/>
        <pt x="229" y="-38" on="0"/>
        <pt x="245" y="-24" on="1"/>
        <pt x="156" y="-20" on="0"/>
        <pt x="70" y="74" on="0"/>
        <pt x="70" y="213" on="0"/>
        <pt x="120" y="355" on="0"/>
        <pt x="211" y="489" on="0"/>
        <pt x="325" y="600" on="0"/>
        <pt x="469" y="667" on="0"/>
        <pt x="603" y="667" on="0"/>
        <pt x="663" y="628" on="0"/>
        <pt x="663" y="558" on="0"/>
        <pt x="583" y="478" on="0"/>
        <pt x="530" y="468" on="1"/>
        <pt x="523" y="469" on="0"/>
        <pt x="509" y="485" on="0"/>
        <pt x="509" y="495" on="0"/>
        <pt x="511" y="497" on="1"/>
        <pt x="529" y="528" on="0"/>
        <pt x="529" y="553" on="1"/>
        <pt x="529" y="605" on="0"/>
        <pt x="454" y="606" on="1"/>
        <pt x="409" y="587" on="0"/>
        <pt x="300" y="438" on="0"/>
        <pt x="222" y="246" on="0"/>
        <pt x="222" y="176" on="1"/>
        <pt x="222" y="66" on="0"/>
        <pt x="320" y="66" on="1"/>
        <pt x="336" y="66" on="0"/>
        <pt x="360" y="68" on="1"/>
        <pt x="464" y="143" on="0"/>
        <pt x="502" y="143" on="1"/>
        <pt x="515" y="143" on="0"/>
        <pt x="531" y="114" on="0"/>
      </contour>
    </TTGlyph>
    <TTGlyph name="Ccircumflex" xMin="70" yMin="-24" xMax="694" yMax="922">
      <contour>
        <pt x="652" y="703" on="1"/>
        <pt x="622" y="755" on="0"/>
        <pt x="579" y="801" on="1"/>
        <pt x="500" y="761" on="0"/>
        <pt x="427" y="705" on="1"/>
        <pt x="420" y="705" on="0"/>
        <pt x="400" y="732" on="0"/>
        <pt x="400" y="746" on="0"/>
        <pt x="494" y="835" on="0"/>
        <pt x="604" y="922" on="0"/>
        <pt x="620" y="922" on="1"/>
        <pt x="646" y="922" on="0"/>
        <pt x="694" y="755" on="0"/>
        <pt x="694" y="731" on="1"/>
        <pt x="693" y="723" on="0"/>
        <pt x="660" y="703" on="0"/>
      </contour>
      <contour>
        <pt x="531" y="101" on="1"/>
        <pt x="498" y="49" on="0"/>
        <pt x="341" y="-24" on="0"/>
        <pt x="163" y="-24" on="0"/>
        <pt x="70" y="72" on="0"/>
        <pt x="70" y="213" on="0"/>
        <pt x="120" y="355" on="0"/>
        <pt x="211" y="489" on="0"/>
        <pt x="325" y="600" on="0"/>
        <pt x="469" y="667" on="0"/>
        <pt x="603" y="667" on="0"/>
        <pt x="663" y="628" on="0"/>
        <pt x="663" y="558" on="0"/>
        <pt x="583" y="478" on="0"/>
        <pt x="530" y="468" on="1"/>
        <pt x="523" y="469" on="0"/>
        <pt x="509" y="485" on="0"/>
        <pt x="509" y="495" on="0"/>
        <pt x="511" y="497" on="1"/>
        <pt x="529" y="528" on="0"/>
        <pt x="529" y="553" on="1"/>
        <pt x="529" y="605" on="0"/>
        <pt x="454" y="606" on="1"/>
        <pt x="409" y="587" on="0"/>
        <pt x="300" y="438" on="0"/>
        <pt x="222" y="246" on="0"/>
        <pt x="222" y="176" on="1"/>
        <pt x="222" y="66" on="0"/>
        <pt x="320" y="66" on="1"/>
        <pt x="428" y="66" on="0"/>
        <pt x="497" y="135" on="1"/>
        <pt x="525" y="126" on="0"/>
      </contour>
    </TTGlyph>
    <TTGlyph name="Cdotaccent" xMin="70" yMin="-24" xMax="663" yMax="866">
      <contour>
        <pt x="585" y="735" on="1"/>
        <pt x="565" y="725" on="0"/>
        <pt x="463" y="725" on="0"/>
        <pt x="443" y="731" on="1"/>
        <pt x="451" y="760" on="0"/>
        <pt x="451" y="810" on="0"/>
        <pt x="450" y="818" on="1"/>
        <pt x="461" y="835" on="0"/>
        <pt x="565" y="866" on="0"/>
        <pt x="614" y="866" on="1"/>
        <pt x="620" y="866" on="0"/>
        <pt x="620" y="822" on="0"/>
        <pt x="598" y="746" on="0"/>
      </contour>
      <contour>
        <pt x="531" y="101" on="1"/>
        <pt x="498" y="49" on="0"/>
        <pt x="341" y="-24" on="0"/>
        <pt x="163" y="-24" on="0"/>
        <pt x="70" y="72" on="0"/>
        <pt x="70" y="213" on="0"/>
        <pt x="120" y="355" on="0"/>
        <pt x="211" y="489" on="0"/>
        <pt x="325" y="600" on="0"/>
        <pt x="469" y="667" on="0"/>
        <pt x="603" y="667" on="0"/>
        <pt x="663" y="628" on="0"/>
        <pt x="663" y="558" on="0"/>
        <pt x="583" y="478" on="0"/>
        <pt x="530" y="468" on="1"/>
        <pt x="523" y="469" on="0"/>
        <pt x="509" y="485" on="0"/>
        <pt x="509" y="495" on="0"/>
        <pt x="511" y="497" on="1"/>
        <pt x="529" y="528" on="0"/>
        <pt x="529" y="553" on="1"/>
        <pt x="529" y="605" on="0"/>
        <pt x="454" y="606" on="1"/>
        <pt x="409" y="587" on="0"/>
        <pt x="300" y="438" on="0"/>
        <pt x="222" y="246" on="0"/>
        <pt x="222" y="176" on="1"/>
        <pt x="222" y="66" on="0"/>
        <pt x="320" y="66" on="1"/>
        <pt x="428" y="66" on="0"/>
        <pt x="497" y="135" on="1"/>
        <pt x="525" y="126" on="0"/>
      </contour>
    </TTGlyph>
    <TTGlyph name="D" xMin="75" yMin="-14" xMax="699" yMax="661">
      <contour>
        <pt x="383" y="590" on="1"/>
        <pt x="383" y="562" on="0"/>
        <pt x="302" y="364" on="0"/>
        <pt x="220" y="155" on="0"/>
        <pt x="220" y="112" on="1"/>
        <pt x="220" y="65" on="0"/>
        <pt x="274" y="65" on="1"/>
        <pt x="315" y="65" on="0"/>
        <pt x="409" y="117" on="0"/>
        <pt x="492" y="206" on="0"/>
        <pt x="546" y="339" on="0"/>
        <pt x="546" y="503" on="0"/>
        <pt x="474" y="592" on="0"/>
        <pt x="412" y="592" on="1"/>
        <pt x="401" y="592" on="0"/>
      </contour>
      <contour>
        <pt x="170" y="661" on="1"/>
        <pt x="251" y="652" on="0"/>
        <pt x="332" y="652" on="0"/>
        <pt x="457" y="661" on="0"/>
        <pt x="509" y="661" on="1"/>
        <pt x="594" y="661" on="0"/>
        <pt x="699" y="550" on="0"/>
        <pt x="699" y="451" on="1"/>
        <pt x="699" y="326" on="0"/>
        <pt x="541" y="107" on="0"/>
        <pt x="309" y="-14" on="0"/>
        <pt x="75" y="-14" on="0"/>
        <pt x="75" y="73" on="1"/>
        <pt x="75" y="112" on="0"/>
        <pt x="153" y="310" on="0"/>
        <pt x="231" y="520" on="0"/>
        <pt x="231" y="573" on="1"/>
        <pt x="231" y="586" on="0"/>
        <pt x="211" y="601" on="0"/>
        <pt x="188" y="605" on="0"/>
        <pt x="163" y="608" on="1"/>
        <pt x="154" y="610" on="0"/>
        <pt x="154" y="637" on="0"/>
        <pt x="166" y="661" on="0"/>
      </contour>
    </TTGlyph>
    <TTGlyph name="D.alt" xMin="0" yMin="-37" xMax="761" yMax="714">
      <contour>
        <pt x="253" y="62" on="1"/>
        <pt x="282" y="53" on="0"/>
        <pt x="383" y="53" on="0"/>
        <pt x="484" y="100" on="0"/>
        <pt x="557" y="179" on="0"/>
        <pt x="584" y="229" on="1"/>
        <pt x="637" y="327" on="0"/>
        <pt x="637" y="528" on="0"/>
        <pt x="512" y="621" on="0"/>
        <pt x="420" y="621" on="1"/>
        <pt x="358" y="621" on="0"/>
        <pt x="243" y="583" on="0"/>
        <pt x="163" y="501" on="0"/>
        <pt x="163" y="448" on="1"/>
        <pt x="163" y="420" on="0"/>
        <pt x="196" y="385" on="0"/>
        <pt x="243" y="385" on="0"/>
        <pt x="267" y="391" on="1"/>
        <pt x="294" y="467" on="0"/>
        <pt x="350" y="546" on="0"/>
        <pt x="395" y="546" on="1"/>
        <pt x="467" y="546" on="0"/>
        <pt x="467" y="504" on="1"/>
        <pt x="467" y="476" on="0"/>
        <pt x="409" y="405" on="1"/>
        <pt x="393" y="367" on="0"/>
        <pt x="328" y="198" on="0"/>
        <pt x="281" y="99" on="0"/>
      </contour>
      <contour>
        <pt x="184" y="1" on="1"/>
        <pt x="149" y="-20" on="0"/>
        <pt x="101" y="-37" on="0"/>
        <pt x="38" y="-37" on="0"/>
        <pt x="0" y="18" on="0"/>
        <pt x="0" y="44" on="1"/>
        <pt x="0" y="99" on="0"/>
        <pt x="66" y="99" on="1"/>
        <pt x="101" y="99" on="0"/>
        <pt x="144" y="85" on="1"/>
        <pt x="191" y="153" on="0"/>
        <pt x="246" y="325" on="1"/>
        <pt x="198" y="308" on="0"/>
        <pt x="105" y="308" on="0"/>
        <pt x="47" y="365" on="0"/>
        <pt x="47" y="410" on="1"/>
        <pt x="47" y="476" on="0"/>
        <pt x="135" y="594" on="0"/>
        <pt x="270" y="670" on="0"/>
        <pt x="423" y="714" on="0"/>
        <pt x="491" y="714" on="1"/>
        <pt x="610" y="714" on="0"/>
        <pt x="761" y="583" on="0"/>
        <pt x="761" y="459" on="1"/>
        <pt x="761" y="378" on="0"/>
        <pt x="700" y="211" on="0"/>
        <pt x="591" y="70" on="0"/>
        <pt x="419" y="-19" on="0"/>
        <pt x="241" y="-19" on="0"/>
      </contour>
    </TTGlyph>
    <TTGlyph name="D.smcp" xMin="34" yMin="-12" xMax="551" yMax="520">
      <contour>
        <pt x="220" y="512" on="1"/>
        <pt x="395" y="520" on="1"/>
        <pt x="464" y="520" on="0"/>
        <pt x="551" y="431" on="0"/>
        <pt x="551" y="278" on="0"/>
        <pt x="483" y="141" on="0"/>
        <pt x="372" y="45" on="0"/>
        <pt x="229" y="-12" on="0"/>
        <pt x="167" y="-12" on="1"/>
        <pt x="34" y="-12" on="0"/>
        <pt x="34" y="62" on="1"/>
        <pt x="34" y="95" on="0"/>
        <pt x="154" y="397" on="0"/>
        <pt x="154" y="447" on="1"/>
        <pt x="154" y="463" on="0"/>
        <pt x="133" y="466" on="1"/>
        <pt x="125" y="468" on="0"/>
        <pt x="109" y="469" on="1"/>
        <pt x="96" y="472" on="0"/>
        <pt x="96" y="498" on="0"/>
        <pt x="114" y="520" on="0"/>
        <pt x="122" y="520" on="1"/>
        <pt x="174" y="512" on="0"/>
      </contour>
      <contour>
        <pt x="291" y="456" on="1"/>
        <pt x="287" y="420" on="0"/>
        <pt x="236" y="303" on="1"/>
        <pt x="166" y="136" on="0"/>
        <pt x="166" y="91" on="1"/>
        <pt x="166" y="76" on="0"/>
        <pt x="200" y="60" on="0"/>
        <pt x="218" y="60" on="1"/>
        <pt x="292" y="60" on="0"/>
        <pt x="414" y="220" on="0"/>
        <pt x="414" y="332" on="1"/>
        <pt x="414" y="456" on="0"/>
        <pt x="320" y="456" on="1"/>
      </contour>
    </TTGlyph>
    <TTGlyph name="D.smcp.titl" xMin="-13" yMin="-206" xMax="790" yMax="716">
      <contour>
        <pt x="790" y="-106" on="1"/>
        <pt x="-13" y="-106" on="1"/>
        <pt x="-13" y="636" on="1"/>
        <pt x="790" y="636" on="1"/>
      </contour>
      <contour>
        <pt x="495" y="520" on="1"/>
        <pt x="320" y="512" on="1"/>
        <pt x="274" y="512" on="0"/>
        <pt x="222" y="520" on="1"/>
        <pt x="214" y="520" on="0"/>
        <pt x="196" y="498" on="0"/>
        <pt x="196" y="472" on="0"/>
        <pt x="209" y="469" on="1"/>
        <pt x="238" y="467" on="0"/>
        <pt x="254" y="456" on="0"/>
        <pt x="254" y="447" on="1"/>
        <pt x="254" y="397" on="0"/>
        <pt x="134" y="95" on="0"/>
        <pt x="134" y="24" on="0"/>
        <pt x="205" y="-12" on="0"/>
        <pt x="329" y="-12" on="0"/>
        <pt x="472" y="45" on="0"/>
        <pt x="583" y="141" on="0"/>
        <pt x="651" y="278" on="0"/>
        <pt x="651" y="431" on="0"/>
        <pt x="564" y="520" on="0"/>
      </contour>
      <contour>
        <pt x="391" y="456" on="1"/>
        <pt x="420" y="456" on="1"/>
        <pt x="514" y="456" on="0"/>
        <pt x="514" y="332" on="1"/>
        <pt x="514" y="220" on="0"/>
        <pt x="392" y="60" on="0"/>
        <pt x="318" y="60" on="1"/>
        <pt x="300" y="60" on="0"/>
        <pt x="266" y="76" on="0"/>
        <pt x="266" y="91" on="1"/>
        <pt x="266" y="136" on="0"/>
        <pt x="336" y="303" on="1"/>
        <pt x="387" y="420" on="0"/>
      </contour>
      <contour>
        <pt x="790" y="-206" on="1"/>
        <pt x="-13" y="-206" on="1"/>
        <pt x="-13" y="-180" on="1"/>
        <pt x="790" y="-180" on="1"/>
      </contour>
      <contour>
        <pt x="790" y="690" on="1"/>
        <pt x="-13" y="690" on="1"/>
        <pt x="-13" y="716" on="1"/>
        <pt x="790" y="716" on="1"/>
      </contour>
    </TTGlyph>
    <TTGlyph name="Dcaron" xMin="75" yMin="-14" xMax="699" yMax="933">
      <contour>
        <pt x="622" y="931" on="1"/>
        <pt x="630" y="931" on="0"/>
        <pt x="654" y="908" on="0"/>
        <pt x="654" y="887" on="0"/>
        <pt x="496" y="714" on="0"/>
        <pt x="475" y="714" on="1"/>
        <pt x="449" y="714" on="0"/>
        <pt x="360" y="890" on="0"/>
        <pt x="360" y="913" on="0"/>
        <pt x="388" y="933" on="0"/>
        <pt x="396" y="933" on="1"/>
        <pt x="460" y="851" on="0"/>
        <pt x="489" y="826" on="1"/>
        <pt x="555" y="864" on="0"/>
      </contour>
      <contour>
        <pt x="383" y="590" on="1"/>
        <pt x="383" y="562" on="0"/>
        <pt x="302" y="364" on="0"/>
        <pt x="220" y="155" on="0"/>
        <pt x="220" y="112" on="1"/>
        <pt x="220" y="65" on="0"/>
        <pt x="274" y="65" on="1"/>
        <pt x="315" y="65" on="0"/>
        <pt x="409" y="117" on="0"/>
        <pt x="492" y="206" on="0"/>
        <pt x="546" y="339" on="0"/>
        <pt x="546" y="503" on="0"/>
        <pt x="474" y="592" on="0"/>
        <pt x="412" y="592" on="1"/>
        <pt x="401" y="592" on="0"/>
      </contour>
      <contour>
        <pt x="170" y="661" on="1"/>
        <pt x="251" y="652" on="0"/>
        <pt x="332" y="652" on="0"/>
        <pt x="457" y="661" on="0"/>
        <pt x="509" y="661" on="1"/>
        <pt x="594" y="661" on="0"/>
        <pt x="699" y="550" on="0"/>
        <pt x="699" y="451" on="1"/>
        <pt x="699" y="326" on="0"/>
        <pt x="541" y="107" on="0"/>
        <pt x="309" y="-14" on="0"/>
        <pt x="75" y="-14" on="0"/>
        <pt x="75" y="73" on="1"/>
        <pt x="75" y="112" on="0"/>
        <pt x="153" y="310" on="0"/>
        <pt x="231" y="520" on="0"/>
        <pt x="231" y="573" on="1"/>
        <pt x="231" y="586" on="0"/>
        <pt x="211" y="601" on="0"/>
        <pt x="188" y="605" on="0"/>
        <pt x="163" y="608" on="1"/>
        <pt x="154" y="610" on="0"/>
        <pt x="154" y="637" on="0"/>
        <pt x="166" y="661" on="0"/>
      </contour>
    </TTGlyph>
    <TTGlyph name="Dcroat" xMin="28" yMin="-14" xMax="699" yMax="661">
      <contour>
        <pt x="170" y="661" on="1"/>
        <pt x="251" y="652" on="0"/>
        <pt x="332" y="652" on="0"/>
        <pt x="457" y="661" on="0"/>
        <pt x="509" y="661" on="1"/>
        <pt x="594" y="661" on="0"/>
        <pt x="699" y="550" on="0"/>
        <pt x="699" y="451" on="1"/>
        <pt x="699" y="326" on="0"/>
        <pt x="541" y="107" on="0"/>
        <pt x="309" y="-14" on="0"/>
        <pt x="75" y="-14" on="0"/>
        <pt x="75" y="73" on="1"/>
        <pt x="75" y="119" on="0"/>
        <pt x="136" y="271" on="1"/>
        <pt x="70" y="261" on="0"/>
        <pt x="65" y="225" on="1"/>
        <pt x="54" y="225" on="0"/>
        <pt x="28" y="255" on="0"/>
        <pt x="28" y="280" on="1"/>
        <pt x="28" y="328" on="0"/>
        <pt x="100" y="365" on="0"/>
        <pt x="175" y="367" on="1"/>
        <pt x="231" y="514" on="0"/>
        <pt x="231" y="573" on="1"/>
        <pt x="231" y="586" on="0"/>
        <pt x="211" y="601" on="0"/>
        <pt x="188" y="605" on="0"/>
        <pt x="163" y="608" on="1"/>
        <pt x="154" y="610" on="0"/>
        <pt x="154" y="637" on="0"/>
        <pt x="166" y="661" on="0"/>
      </contour>
      <contour>
        <pt x="383" y="590" on="1"/>
        <pt x="383" y="557" on="0"/>
        <pt x="305" y="372" on="1"/>
        <pt x="367" y="381" on="0"/>
        <pt x="395" y="409" on="1"/>
        <pt x="412" y="385" on="0"/>
        <pt x="412" y="356" on="1"/>
        <pt x="412" y="314" on="0"/>
        <pt x="336" y="283" on="0"/>
        <pt x="268" y="279" on="1"/>
        <pt x="220" y="156" on="0"/>
        <pt x="220" y="112" on="1"/>
        <pt x="220" y="65" on="0"/>
        <pt x="274" y="65" on="1"/>
        <pt x="315" y="65" on="0"/>
        <pt x="409" y="117" on="0"/>
        <pt x="492" y="206" on="0"/>
        <pt x="546" y="339" on="0"/>
        <pt x="546" y="503" on="0"/>
        <pt x="474" y="592" on="0"/>
        <pt x="412" y="592" on="1"/>
        <pt x="401" y="592" on="0"/>
      </contour>
    </TTGlyph>
    <TTGlyph name="Delta" xMin="-130" yMin="-39" xMax="584" yMax="747">
      <contour>
        <pt x="70" y="55" on="1"/>
        <pt x="268" y="52" on="1"/>
        <pt x="317" y="52" on="0"/>
        <pt x="399" y="54" on="1"/>
        <pt x="362" y="154" on="0"/>
        <pt x="362" y="383" on="1"/>
        <pt x="362" y="433" on="0"/>
        <pt x="364" y="507" on="1"/>
        <pt x="211" y="200" on="0"/>
      </contour>
      <contour>
        <pt x="462" y="-21" on="1"/>
        <pt x="-8" y="-14" on="1"/>
        <pt x="-40" y="-32" on="0"/>
        <pt x="-96" y="-32" on="0"/>
        <pt x="-130" y="1" on="0"/>
        <pt x="-130" y="44" on="0"/>
        <pt x="-98" y="73" on="0"/>
        <pt x="-67" y="74" on="1"/>
        <pt x="-28" y="74" on="0"/>
        <pt x="139" y="252" on="0"/>
        <pt x="312" y="502" on="0"/>
        <pt x="366" y="609" on="1"/>
        <pt x="368" y="615" on="0"/>
        <pt x="380" y="696" on="0"/>
        <pt x="405" y="747" on="0"/>
        <pt x="455" y="747" on="0"/>
        <pt x="519" y="698" on="0"/>
        <pt x="519" y="663" on="0"/>
        <pt x="499" y="631" on="0"/>
        <pt x="464" y="592" on="0"/>
        <pt x="455" y="577" on="1"/>
        <pt x="449" y="513" on="0"/>
        <pt x="449" y="447" on="1"/>
        <pt x="449" y="160" on="0"/>
        <pt x="533" y="72" on="1"/>
        <pt x="584" y="58" on="0"/>
        <pt x="584" y="17" on="1"/>
        <pt x="584" y="-5" on="0"/>
        <pt x="549" y="-39" on="0"/>
        <pt x="492" y="-39" on="0"/>
      </contour>
    </TTGlyph>
    <TTGlyph name="E" xMin="35" yMin="-24" xMax="627" yMax="667">
      <contour>
        <pt x="455" y="338" on="0"/>
        <pt x="377" y="286" on="0"/>
        <pt x="284" y="286" on="0"/>
        <pt x="259" y="305" on="1"/>
        <pt x="256" y="303" on="0"/>
        <pt x="246" y="297" on="0"/>
        <pt x="222" y="274" on="0"/>
        <pt x="212" y="261" on="1"/>
        <pt x="187" y="226" on="0"/>
        <pt x="187" y="176" on="1"/>
        <pt x="187" y="66" on="0"/>
        <pt x="287" y="66" on="1"/>
        <pt x="395" y="66" on="0"/>
        <pt x="464" y="135" on="1"/>
        <pt x="492" y="126" on="0"/>
        <pt x="498" y="101" on="1"/>
        <pt x="465" y="49" on="0"/>
        <pt x="308" y="-24" on="0"/>
        <pt x="138" y="-24" on="0"/>
        <pt x="35" y="53" on="0"/>
        <pt x="35" y="204" on="0"/>
        <pt x="131" y="321" on="0"/>
        <pt x="208" y="362" on="1"/>
        <pt x="187" y="390" on="0"/>
        <pt x="187" y="434" on="1"/>
        <pt x="187" y="539" on="0"/>
        <pt x="366" y="667" on="0"/>
        <pt x="506" y="667" on="1"/>
        <pt x="567" y="667" on="0"/>
        <pt x="627" y="627" on="0"/>
        <pt x="627" y="554" on="0"/>
        <pt x="539" y="474" on="0"/>
        <pt x="482" y="470" on="1"/>
        <pt x="475" y="471" on="0"/>
        <pt x="461" y="487" on="0"/>
        <pt x="461" y="497" on="0"/>
        <pt x="463" y="499" on="1"/>
        <pt x="497" y="534" on="0"/>
        <pt x="497" y="571" on="1"/>
        <pt x="497" y="588" on="0"/>
        <pt x="450" y="605" on="0"/>
        <pt x="391" y="605" on="0"/>
        <pt x="380" y="598" on="1"/>
        <pt x="319" y="543" on="0"/>
        <pt x="319" y="456" on="1"/>
        <pt x="319" y="436" on="0"/>
        <pt x="328" y="404" on="1"/>
        <pt x="356" y="415" on="0"/>
        <pt x="455" y="415" on="0"/>
        <pt x="455" y="375" on="1"/>
      </contour>
    </TTGlyph>
    <TTGlyph name="E.smcp" xMin="-12" yMin="-19" xMax="533" yMax="514">
      <contour>
        <pt x="98" y="37" on="1"/>
        <pt x="66" y="5" on="0"/>
        <pt x="29" y="5" on="1"/>
        <pt x="11" y="5" on="0"/>
        <pt x="-12" y="35" on="0"/>
        <pt x="-12" y="54" on="1"/>
        <pt x="-12" y="93" on="0"/>
        <pt x="60" y="95" on="1"/>
        <pt x="93" y="145" on="0"/>
        <pt x="172" y="395" on="0"/>
        <pt x="172" y="436" on="1"/>
        <pt x="172" y="461" on="0"/>
        <pt x="109" y="464" on="0"/>
        <pt x="109" y="483" on="1"/>
        <pt x="109" y="493" on="0"/>
        <pt x="126" y="514" on="0"/>
        <pt x="134" y="514" on="1"/>
        <pt x="206" y="508" on="0"/>
        <pt x="457" y="508" on="0"/>
        <pt x="533" y="514" on="1"/>
        <pt x="533" y="488" on="0"/>
        <pt x="492" y="388" on="0"/>
        <pt x="470" y="365" on="1"/>
        <pt x="466" y="364" on="0"/>
        <pt x="439" y="364" on="0"/>
        <pt x="426" y="374" on="1"/>
        <pt x="427" y="380" on="0"/>
        <pt x="427" y="419" on="0"/>
        <pt x="407" y="453" on="0"/>
        <pt x="391" y="453" on="1"/>
        <pt x="330" y="453" on="0"/>
        <pt x="309" y="448" on="1"/>
        <pt x="279" y="333" on="0"/>
        <pt x="258" y="275" on="1"/>
        <pt x="284" y="276" on="0"/>
        <pt x="406" y="287" on="1"/>
        <pt x="410" y="277" on="0"/>
        <pt x="410" y="268" on="1"/>
        <pt x="410" y="236" on="0"/>
        <pt x="380" y="216" on="1"/>
        <pt x="364" y="214" on="0"/>
        <pt x="268" y="214" on="0"/>
        <pt x="237" y="217" on="1"/>
        <pt x="202" y="131" on="0"/>
        <pt x="152" y="88" on="1"/>
        <pt x="250" y="74" on="0"/>
        <pt x="296" y="74" on="1"/>
        <pt x="370" y="74" on="0"/>
        <pt x="402" y="92" on="1"/>
        <pt x="414" y="99" on="1"/>
        <pt x="420" y="87" on="0"/>
        <pt x="420" y="71" on="1"/>
        <pt x="420" y="37" on="0"/>
        <pt x="366" y="-19" on="0"/>
        <pt x="326" y="-19" on="1"/>
        <pt x="263" y="-19" on="0"/>
        <pt x="110" y="36" on="0"/>
      </contour>
    </TTGlyph>
    <TTGlyph name="E.smcp.titl" xMin="-16" yMin="-206" xMax="707" yMax="716">
      <contour>
        <pt x="707" y="-206" on="1"/>
        <pt x="-16" y="-206" on="1"/>
        <pt x="-16" y="-180" on="1"/>
        <pt x="707" y="-180" on="1"/>
      </contour>
      <contour>
        <pt x="707" y="690" on="1"/>
        <pt x="-16" y="690" on="1"/>
        <pt x="-16" y="716" on="1"/>
        <pt x="707" y="716" on="1"/>
      </contour>
      <contour>
        <pt x="707" y="-106" on="1"/>
        <pt x="-16" y="-106" on="1"/>
        <pt x="-16" y="636" on="1"/>
        <pt x="707" y="636" on="1"/>
      </contour>
      <contour>
        <pt x="514" y="99" on="1"/>
        <pt x="474" y="74" on="0"/>
        <pt x="350" y="74" on="0"/>
        <pt x="252" y="88" on="1"/>
        <pt x="302" y="131" on="0"/>
        <pt x="337" y="217" on="1"/>
        <pt x="369" y="214" on="0"/>
        <pt x="464" y="214" on="0"/>
        <pt x="480" y="216" on="1"/>
        <pt x="510" y="236" on="0"/>
        <pt x="510" y="268" on="1"/>
        <pt x="510" y="277" on="0"/>
        <pt x="506" y="287" on="1"/>
        <pt x="384" y="276" on="0"/>
        <pt x="358" y="275" on="1"/>
        <pt x="379" y="333" on="0"/>
        <pt x="409" y="448" on="1"/>
        <pt x="430" y="453" on="0"/>
        <pt x="491" y="453" on="1"/>
        <pt x="507" y="453" on="0"/>
        <pt x="527" y="419" on="0"/>
        <pt x="527" y="380" on="0"/>
        <pt x="526" y="374" on="1"/>
        <pt x="539" y="364" on="0"/>
        <pt x="566" y="364" on="0"/>
        <pt x="570" y="365" on="1"/>
        <pt x="592" y="388" on="0"/>
        <pt x="633" y="488" on="0"/>
        <pt x="633" y="514" on="1"/>
        <pt x="557" y="508" on="0"/>
        <pt x="306" y="508" on="0"/>
        <pt x="234" y="514" on="1"/>
        <pt x="226" y="514" on="0"/>
        <pt x="209" y="493" on="0"/>
        <pt x="209" y="472" on="0"/>
        <pt x="229" y="463" on="0"/>
        <pt x="240" y="462" on="1"/>
        <pt x="272" y="461" on="0"/>
        <pt x="272" y="436" on="1"/>
        <pt x="272" y="395" on="0"/>
        <pt x="193" y="145" on="0"/>
        <pt x="160" y="95" on="1"/>
        <pt x="125" y="94" on="0"/>
        <pt x="88" y="73" on="0"/>
        <pt x="88" y="35" on="0"/>
        <pt x="111" y="5" on="0"/>
        <pt x="129" y="5" on="1"/>
        <pt x="166" y="5" on="0"/>
        <pt x="198" y="37" on="1"/>
        <pt x="210" y="36" on="0"/>
        <pt x="363" y="-19" on="0"/>
        <pt x="426" y="-19" on="1"/>
        <pt x="466" y="-19" on="0"/>
        <pt x="520" y="37" on="0"/>
        <pt x="520" y="71" on="1"/>
        <pt x="520" y="87" on="0"/>
      </contour>
    </TTGlyph>
    <TTGlyph name="Eacute" xMin="35" yMin="-24" xMax="715" yMax="898">
      <contour>
        <pt x="715" y="787" on="1"/>
        <pt x="650" y="787" on="0"/>
        <pt x="514" y="732" on="0"/>
        <pt x="466" y="686" on="1"/>
        <pt x="459" y="686" on="0"/>
        <pt x="445" y="704" on="0"/>
        <pt x="445" y="725" on="0"/>
        <pt x="516" y="814" on="0"/>
        <pt x="621" y="898" on="0"/>
        <pt x="658" y="898" on="1"/>
        <pt x="677" y="898" on="0"/>
        <pt x="715" y="835" on="0"/>
      </contour>
      <contour>
        <pt x="455" y="338" on="0"/>
        <pt x="377" y="286" on="0"/>
        <pt x="284" y="286" on="0"/>
        <pt x="259" y="305" on="1"/>
        <pt x="256" y="303" on="0"/>
        <pt x="246" y="297" on="0"/>
        <pt x="222" y="274" on="0"/>
        <pt x="212" y="261" on="1"/>
        <pt x="187" y="226" on="0"/>
        <pt x="187" y="176" on="1"/>
        <pt x="187" y="66" on="0"/>
        <pt x="287" y="66" on="1"/>
        <pt x="395" y="66" on="0"/>
        <pt x="464" y="135" on="1"/>
        <pt x="492" y="126" on="0"/>
        <pt x="498" y="101" on="1"/>
        <pt x="465" y="49" on="0"/>
        <pt x="308" y="-24" on="0"/>
        <pt x="138" y="-24" on="0"/>
        <pt x="35" y="53" on="0"/>
        <pt x="35" y="204" on="0"/>
        <pt x="131" y="321" on="0"/>
        <pt x="208" y="362" on="1"/>
        <pt x="187" y="390" on="0"/>
        <pt x="187" y="434" on="1"/>
        <pt x="187" y="539" on="0"/>
        <pt x="366" y="667" on="0"/>
        <pt x="506" y="667" on="1"/>
        <pt x="567" y="667" on="0"/>
        <pt x="627" y="627" on="0"/>
        <pt x="627" y="554" on="0"/>
        <pt x="539" y="474" on="0"/>
        <pt x="482" y="470" on="1"/>
        <pt x="475" y="471" on="0"/>
        <pt x="461" y="487" on="0"/>
        <pt x="461" y="497" on="0"/>
        <pt x="463" y="499" on="1"/>
        <pt x="497" y="534" on="0"/>
        <pt x="497" y="571" on="1"/>
        <pt x="497" y="588" on="0"/>
        <pt x="450" y="605" on="0"/>
        <pt x="391" y="605" on="0"/>
        <pt x="380" y="598" on="1"/>
        <pt x="319" y="543" on="0"/>
        <pt x="319" y="456" on="1"/>
        <pt x="319" y="436" on="0"/>
        <pt x="328" y="404" on="1"/>
        <pt x="356" y="415" on="0"/>
        <pt x="455" y="415" on="0"/>
        <pt x="455" y="375" on="1"/>
      </contour>
    </TTGlyph>
    <TTGlyph name="Ecaron" xMin="35" yMin="-24" xMax="727" yMax="930">
      <contour>
        <pt x="695" y="928" on="1"/>
        <pt x="703" y="928" on="0"/>
        <pt x="727" y="905" on="0"/>
        <pt x="727" y="884" on="0"/>
        <pt x="569" y="711" on="0"/>
        <pt x="548" y="711" on="1"/>
        <pt x="522" y="711" on="0"/>
        <pt x="433" y="887" on="0"/>
        <pt x="433" y="910" on="0"/>
        <pt x="461" y="930" on="0"/>
        <pt x="469" y="930" on="1"/>
        <pt x="533" y="848" on="0"/>
        <pt x="562" y="823" on="1"/>
        <pt x="628" y="861" on="0"/>
      </contour>
      <contour>
        <pt x="455" y="338" on="0"/>
        <pt x="377" y="286" on="0"/>
        <pt x="284" y="286" on="0"/>
        <pt x="259" y="305" on="1"/>
        <pt x="256" y="303" on="0"/>
        <pt x="246" y="297" on="0"/>
        <pt x="222" y="274" on="0"/>
        <pt x="212" y="261" on="1"/>
        <pt x="187" y="226" on="0"/>
        <pt x="187" y="176" on="1"/>
        <pt x="187" y="66" on="0"/>
        <pt x="287" y="66" on="1"/>
        <pt x="395" y="66" on="0"/>
        <pt x="464" y="135" on="1"/>
        <pt x="492" y="126" on="0"/>
        <pt x="498" y="101" on="1"/>
        <pt x="465" y="49" on="0"/>
        <pt x="308" y="-24" on="0"/>
        <pt x="138" y="-24" on="0"/>
        <pt x="35" y="53" on="0"/>
        <pt x="35" y="204" on="0"/>
        <pt x="131" y="321" on="0"/>
        <pt x="208" y="362" on="1"/>
        <pt x="187" y="390" on="0"/>
        <pt x="187" y="434" on="1"/>
        <pt x="187" y="539" on="0"/>
        <pt x="366" y="667" on="0"/>
        <pt x="506" y="667" on="1"/>
        <pt x="567" y="667" on="0"/>
        <pt x="627" y="627" on="0"/>
        <pt x="627" y="554" on="0"/>
        <pt x="539" y="474" on="0"/>
        <pt x="482" y="470" on="1"/>
        <pt x="475" y="471" on="0"/>
        <pt x="461" y="487" on="0"/>
        <pt x="461" y="497" on="0"/>
        <pt x="463" y="499" on="1"/>
        <pt x="497" y="534" on="0"/>
        <pt x="497" y="571" on="1"/>
        <pt x="497" y="588" on="0"/>
        <pt x="450" y="605" on="0"/>
        <pt x="391" y="605" on="0"/>
        <pt x="380" y="598" on="1"/>
        <pt x="319" y="543" on="0"/>
        <pt x="319" y="456" on="1"/>
        <pt x="319" y="436" on="0"/>
        <pt x="328" y="404" on="1"/>
        <pt x="356" y="415" on="0"/>
        <pt x="455" y="415" on="0"/>
        <pt x="455" y="375" on="1"/>
      </contour>
    </TTGlyph>
    <TTGlyph name="Ecircumflex" xMin="35" yMin="-24" xMax="630" yMax="912">
      <contour>
        <pt x="588" y="693" on="1"/>
        <pt x="558" y="745" on="0"/>
        <pt x="515" y="791" on="1"/>
        <pt x="436" y="751" on="0"/>
        <pt x="363" y="695" on="1"/>
        <pt x="356" y="695" on="0"/>
        <pt x="336" y="722" on="0"/>
        <pt x="336" y="736" on="0"/>
        <pt x="430" y="825" on="0"/>
        <pt x="540" y="912" on="0"/>
        <pt x="556" y="912" on="1"/>
        <pt x="582" y="912" on="0"/>
        <pt x="630" y="745" on="0"/>
        <pt x="630" y="721" on="1"/>
        <pt x="629" y="713" on="0"/>
        <pt x="596" y="693" on="0"/>
      </contour>
      <contour>
        <pt x="455" y="338" on="0"/>
        <pt x="377" y="286" on="0"/>
        <pt x="284" y="286" on="0"/>
        <pt x="259" y="305" on="1"/>
        <pt x="256" y="303" on="0"/>
        <pt x="246" y="297" on="0"/>
        <pt x="222" y="274" on="0"/>
        <pt x="212" y="261" on="1"/>
        <pt x="187" y="226" on="0"/>
        <pt x="187" y="176" on="1"/>
        <pt x="187" y="66" on="0"/>
        <pt x="287" y="66" on="1"/>
        <pt x="395" y="66" on="0"/>
        <pt x="464" y="135" on="1"/>
        <pt x="492" y="126" on="0"/>
        <pt x="498" y="101" on="1"/>
        <pt x="465" y="49" on="0"/>
        <pt x="308" y="-24" on="0"/>
        <pt x="138" y="-24" on="0"/>
        <pt x="35" y="53" on="0"/>
        <pt x="35" y="204" on="0"/>
        <pt x="131" y="321" on="0"/>
        <pt x="208" y="362" on="1"/>
        <pt x="187" y="390" on="0"/>
        <pt x="187" y="434" on="1"/>
        <pt x="187" y="539" on="0"/>
        <pt x="366" y="667" on="0"/>
        <pt x="506" y="667" on="1"/>
        <pt x="567" y="667" on="0"/>
        <pt x="627" y="627" on="0"/>
        <pt x="627" y="554" on="0"/>
        <pt x="539" y="474" on="0"/>
        <pt x="482" y="470" on="1"/>
        <pt x="475" y="471" on="0"/>
        <pt x="461" y="487" on="0"/>
        <pt x="461" y="497" on="0"/>
        <pt x="463" y="499" on="1"/>
        <pt x="497" y="534" on="0"/>
        <pt x="497" y="571" on="1"/>
        <pt x="497" y="588" on="0"/>
        <pt x="450" y="605" on="0"/>
        <pt x="391" y="605" on="0"/>
        <pt x="380" y="598" on="1"/>
        <pt x="319" y="543" on="0"/>
        <pt x="319" y="456" on="1"/>
        <pt x="319" y="436" on="0"/>
        <pt x="328" y="404" on="1"/>
        <pt x="356" y="415" on="0"/>
        <pt x="455" y="415" on="0"/>
        <pt x="455" y="375" on="1"/>
      </contour>
    </TTGlyph>
    <TTGlyph name="Edieresis" xMin="35" yMin="-24" xMax="692" yMax="854">
      <contour>
        <pt x="461" y="723" on="1"/>
        <pt x="441" y="713" on="0"/>
        <pt x="354" y="713" on="0"/>
        <pt x="339" y="719" on="1"/>
        <pt x="347" y="748" on="0"/>
        <pt x="347" y="798" on="0"/>
        <pt x="346" y="806" on="1"/>
        <pt x="358" y="824" on="0"/>
        <pt x="443" y="854" on="0"/>
        <pt x="490" y="854" on="1"/>
        <pt x="496" y="854" on="0"/>
        <pt x="496" y="809" on="0"/>
        <pt x="474" y="734" on="0"/>
      </contour>
      <contour>
        <pt x="657" y="723" on="1"/>
        <pt x="637" y="713" on="0"/>
        <pt x="550" y="713" on="0"/>
        <pt x="535" y="719" on="1"/>
        <pt x="543" y="748" on="0"/>
        <pt x="543" y="798" on="0"/>
        <pt x="542" y="806" on="1"/>
        <pt x="554" y="824" on="0"/>
        <pt x="639" y="854" on="0"/>
        <pt x="686" y="854" on="1"/>
        <pt x="692" y="854" on="0"/>
        <pt x="692" y="809" on="0"/>
        <pt x="670" y="734" on="0"/>
      </contour>
      <contour>
        <pt x="455" y="338" on="0"/>
        <pt x="377" y="286" on="0"/>
        <pt x="284" y="286" on="0"/>
        <pt x="259" y="305" on="1"/>
        <pt x="256" y="303" on="0"/>
        <pt x="246" y="297" on="0"/>
        <pt x="222" y="274" on="0"/>
        <pt x="212" y="261" on="1"/>
        <pt x="187" y="226" on="0"/>
        <pt x="187" y="176" on="1"/>
        <pt x="187" y="66" on="0"/>
        <pt x="287" y="66" on="1"/>
        <pt x="395" y="66" on="0"/>
        <pt x="464" y="135" on="1"/>
        <pt x="492" y="126" on="0"/>
        <pt x="498" y="101" on="1"/>
        <pt x="465" y="49" on="0"/>
        <pt x="308" y="-24" on="0"/>
        <pt x="138" y="-24" on="0"/>
        <pt x="35" y="53" on="0"/>
        <pt x="35" y="204" on="0"/>
        <pt x="131" y="321" on="0"/>
        <pt x="208" y="362" on="1"/>
        <pt x="187" y="390" on="0"/>
        <pt x="187" y="434" on="1"/>
        <pt x="187" y="539" on="0"/>
        <pt x="366" y="667" on="0"/>
        <pt x="506" y="667" on="1"/>
        <pt x="567" y="667" on="0"/>
        <pt x="627" y="627" on="0"/>
        <pt x="627" y="554" on="0"/>
        <pt x="539" y="474" on="0"/>
        <pt x="482" y="470" on="1"/>
        <pt x="475" y="471" on="0"/>
        <pt x="461" y="487" on="0"/>
        <pt x="461" y="497" on="0"/>
        <pt x="463" y="499" on="1"/>
        <pt x="497" y="534" on="0"/>
        <pt x="497" y="571" on="1"/>
        <pt x="497" y="588" on="0"/>
        <pt x="450" y="605" on="0"/>
        <pt x="391" y="605" on="0"/>
        <pt x="380" y="598" on="1"/>
        <pt x="319" y="543" on="0"/>
        <pt x="319" y="456" on="1"/>
        <pt x="319" y="436" on="0"/>
        <pt x="328" y="404" on="1"/>
        <pt x="356" y="415" on="0"/>
        <pt x="455" y="415" on="0"/>
        <pt x="455" y="375" on="1"/>
      </contour>
    </TTGlyph>
    <TTGlyph name="Edotaccent" xMin="35" yMin="-24" xMax="663" yMax="875">
      <contour>
        <pt x="628" y="744" on="1"/>
        <pt x="608" y="734" on="0"/>
        <pt x="506" y="734" on="0"/>
        <pt x="486" y="740" on="1"/>
        <pt x="494" y="769" on="0"/>
        <pt x="494" y="819" on="0"/>
        <pt x="493" y="827" on="1"/>
        <pt x="504" y="844" on="0"/>
        <pt x="608" y="875" on="0"/>
        <pt x="657" y="875" on="1"/>
        <pt x="663" y="875" on="0"/>
        <pt x="663" y="831" on="0"/>
        <pt x="641" y="755" on="0"/>
      </contour>
      <contour>
        <pt x="455" y="338" on="0"/>
        <pt x="377" y="286" on="0"/>
        <pt x="284" y="286" on="0"/>
        <pt x="259" y="305" on="1"/>
        <pt x="256" y="303" on="0"/>
        <pt x="246" y="297" on="0"/>
        <pt x="222" y="274" on="0"/>
        <pt x="212" y="261" on="1"/>
        <pt x="187" y="226" on="0"/>
        <pt x="187" y="176" on="1"/>
        <pt x="187" y="66" on="0"/>
        <pt x="287" y="66" on="1"/>
        <pt x="395" y="66" on="0"/>
        <pt x="464" y="135" on="1"/>
        <pt x="492" y="126" on="0"/>
        <pt x="498" y="101" on="1"/>
        <pt x="465" y="49" on="0"/>
        <pt x="308" y="-24" on="0"/>
        <pt x="138" y="-24" on="0"/>
        <pt x="35" y="53" on="0"/>
        <pt x="35" y="204" on="0"/>
        <pt x="131" y="321" on="0"/>
        <pt x="208" y="362" on="1"/>
        <pt x="187" y="390" on="0"/>
        <pt x="187" y="434" on="1"/>
        <pt x="187" y="539" on="0"/>
        <pt x="366" y="667" on="0"/>
        <pt x="506" y="667" on="1"/>
        <pt x="567" y="667" on="0"/>
        <pt x="627" y="627" on="0"/>
        <pt x="627" y="554" on="0"/>
        <pt x="539" y="474" on="0"/>
        <pt x="482" y="470" on="1"/>
        <pt x="475" y="471" on="0"/>
        <pt x="461" y="487" on="0"/>
        <pt x="461" y="497" on="0"/>
        <pt x="463" y="499" on="1"/>
        <pt x="497" y="534" on="0"/>
        <pt x="497" y="571" on="1"/>
        <pt x="497" y="588" on="0"/>
        <pt x="450" y="605" on="0"/>
        <pt x="391" y="605" on="0"/>
        <pt x="380" y="598" on="1"/>
        <pt x="319" y="543" on="0"/>
        <pt x="319" y="456" on="1"/>
        <pt x="319" y="436" on="0"/>
        <pt x="328" y="404" on="1"/>
        <pt x="356" y="415" on="0"/>
        <pt x="455" y="415" on="0"/>
        <pt x="455" y="375" on="1"/>
      </contour>
    </TTGlyph>
    <TTGlyph name="Egrave" xMin="35" yMin="-24" xMax="627" yMax="894">
      <contour>
        <pt x="404" y="894" on="1"/>
        <pt x="435" y="837" on="0"/>
        <pt x="550" y="746" on="0"/>
        <pt x="613" y="726" on="1"/>
        <pt x="614" y="724" on="0"/>
        <pt x="614" y="719" on="1"/>
        <pt x="614" y="693" on="0"/>
        <pt x="555" y="693" on="0"/>
        <pt x="442" y="717" on="0"/>
        <pt x="332" y="771" on="0"/>
        <pt x="332" y="803" on="1"/>
        <pt x="332" y="823" on="0"/>
        <pt x="369" y="874" on="0"/>
      </contour>
      <contour>
        <pt x="455" y="338" on="0"/>
        <pt x="377" y="286" on="0"/>
        <pt x="284" y="286" on="0"/>
        <pt x="259" y="305" on="1"/>
        <pt x="256" y="303" on="0"/>
        <pt x="246" y="297" on="0"/>
        <pt x="222" y="274" on="0"/>
        <pt x="212" y="261" on="1"/>
        <pt x="187" y="226" on="0"/>
        <pt x="187" y="176" on="1"/>
        <pt x="187" y="66" on="0"/>
        <pt x="287" y="66" on="1"/>
        <pt x="395" y="66" on="0"/>
        <pt x="464" y="135" on="1"/>
        <pt x="492" y="126" on="0"/>
        <pt x="498" y="101" on="1"/>
        <pt x="465" y="49" on="0"/>
        <pt x="308" y="-24" on="0"/>
        <pt x="138" y="-24" on="0"/>
        <pt x="35" y="53" on="0"/>
        <pt x="35" y="204" on="0"/>
        <pt x="131" y="321" on="0"/>
        <pt x="208" y="362" on="1"/>
        <pt x="187" y="390" on="0"/>
        <pt x="187" y="434" on="1"/>
        <pt x="187" y="539" on="0"/>
        <pt x="366" y="667" on="0"/>
        <pt x="506" y="667" on="1"/>
        <pt x="567" y="667" on="0"/>
        <pt x="627" y="627" on="0"/>
        <pt x="627" y="554" on="0"/>
        <pt x="539" y="474" on="0"/>
        <pt x="482" y="470" on="1"/>
        <pt x="475" y="471" on="0"/>
        <pt x="461" y="487" on="0"/>
        <pt x="461" y="497" on="0"/>
        <pt x="463" y="499" on="1"/>
        <pt x="497" y="534" on="0"/>
        <pt x="497" y="571" on="1"/>
        <pt x="497" y="588" on="0"/>
        <pt x="450" y="605" on="0"/>
        <pt x="391" y="605" on="0"/>
        <pt x="380" y="598" on="1"/>
        <pt x="319" y="543" on="0"/>
        <pt x="319" y="456" on="1"/>
        <pt x="319" y="436" on="0"/>
        <pt x="328" y="404" on="1"/>
        <pt x="356" y="415" on="0"/>
        <pt x="455" y="415" on="0"/>
        <pt x="455" y="375" on="1"/>
      </contour>
    </TTGlyph>
    <TTGlyph name="Emacron" xMin="35" yMin="-24" xMax="687" yMax="812">
      <contour>
        <pt x="664" y="734" on="1"/>
        <pt x="542" y="708" on="0"/>
        <pt x="380" y="708" on="1"/>
        <pt x="373" y="708" on="0"/>
        <pt x="373" y="724" on="1"/>
        <pt x="373" y="767" on="0"/>
        <pt x="408" y="812" on="1"/>
        <pt x="490" y="801" on="0"/>
        <pt x="600" y="801" on="0"/>
        <pt x="682" y="806" on="1"/>
        <pt x="687" y="806" on="0"/>
        <pt x="687" y="793" on="1"/>
        <pt x="687" y="759" on="0"/>
      </contour>
      <contour>
        <pt x="455" y="338" on="0"/>
        <pt x="377" y="286" on="0"/>
        <pt x="284" y="286" on="0"/>
        <pt x="259" y="305" on="1"/>
        <pt x="256" y="303" on="0"/>
        <pt x="246" y="297" on="0"/>
        <pt x="222" y="274" on="0"/>
        <pt x="212" y="261" on="1"/>
        <pt x="187" y="226" on="0"/>
        <pt x="187" y="176" on="1"/>
        <pt x="187" y="66" on="0"/>
        <pt x="287" y="66" on="1"/>
        <pt x="395" y="66" on="0"/>
        <pt x="464" y="135" on="1"/>
        <pt x="492" y="126" on="0"/>
        <pt x="498" y="101" on="1"/>
        <pt x="465" y="49" on="0"/>
        <pt x="308" y="-24" on="0"/>
        <pt x="138" y="-24" on="0"/>
        <pt x="35" y="53" on="0"/>
        <pt x="35" y="204" on="0"/>
        <pt x="131" y="321" on="0"/>
        <pt x="208" y="362" on="1"/>
        <pt x="187" y="390" on="0"/>
        <pt x="187" y="434" on="1"/>
        <pt x="187" y="539" on="0"/>
        <pt x="366" y="667" on="0"/>
        <pt x="506" y="667" on="1"/>
        <pt x="567" y="667" on="0"/>
        <pt x="627" y="627" on="0"/>
        <pt x="627" y="554" on="0"/>
        <pt x="539" y="474" on="0"/>
        <pt x="482" y="470" on="1"/>
        <pt x="475" y="471" on="0"/>
        <pt x="461" y="487" on="0"/>
        <pt x="461" y="497" on="0"/>
        <pt x="463" y="499" on="1"/>
        <pt x="497" y="534" on="0"/>
        <pt x="497" y="571" on="1"/>
        <pt x="497" y="588" on="0"/>
        <pt x="450" y="605" on="0"/>
        <pt x="391" y="605" on="0"/>
        <pt x="380" y="598" on="1"/>
        <pt x="319" y="543" on="0"/>
        <pt x="319" y="456" on="1"/>
        <pt x="319" y="436" on="0"/>
        <pt x="328" y="404" on="1"/>
        <pt x="356" y="415" on="0"/>
        <pt x="455" y="415" on="0"/>
        <pt x="455" y="375" on="1"/>
      </contour>
    </TTGlyph>
    <TTGlyph name="Eng" xMin="-10" yMin="-274" xMax="818" yMax="697">
      <contour>
        <pt x="336" y="-93" on="1"/>
        <pt x="327" y="-160" on="1"/>
        <pt x="327" y="-183" on="0"/>
        <pt x="355" y="-212" on="0"/>
        <pt x="377" y="-212" on="1"/>
        <pt x="458" y="-212" on="0"/>
        <pt x="486" y="-47" on="1"/>
        <pt x="367" y="108" on="0"/>
        <pt x="268" y="354" on="1"/>
        <pt x="198" y="134" on="0"/>
        <pt x="163" y="68" on="1"/>
        <pt x="117" y="-19" on="0"/>
        <pt x="63" y="-19" on="1"/>
        <pt x="29" y="-19" on="0"/>
        <pt x="-10" y="20" on="0"/>
        <pt x="-10" y="57" on="0"/>
        <pt x="-2" y="67" on="1"/>
        <pt x="4" y="67" on="0"/>
        <pt x="26" y="69" on="1"/>
        <pt x="63" y="69" on="0"/>
        <pt x="184" y="298" on="0"/>
        <pt x="228" y="452" on="1"/>
        <pt x="207" y="551" on="0"/>
        <pt x="207" y="635" on="0"/>
        <pt x="233" y="684" on="0"/>
        <pt x="266" y="684" on="1"/>
        <pt x="358" y="684" on="0"/>
        <pt x="358" y="631" on="1"/>
        <pt x="358" y="604" on="0"/>
        <pt x="336" y="538" on="1"/>
        <pt x="345" y="516" on="0"/>
        <pt x="393" y="390" on="0"/>
        <pt x="415" y="338" on="0"/>
        <pt x="435" y="291" on="1"/>
        <pt x="469" y="212" on="0"/>
        <pt x="517" y="130" on="1"/>
        <pt x="530" y="205" on="0"/>
        <pt x="558" y="382" on="0"/>
        <pt x="573" y="476" on="0"/>
        <pt x="583" y="525" on="1"/>
        <pt x="601" y="615" on="0"/>
        <pt x="627" y="646" on="1"/>
        <pt x="668" y="697" on="0"/>
        <pt x="726" y="697" on="1"/>
        <pt x="764" y="697" on="0"/>
        <pt x="818" y="647" on="0"/>
        <pt x="818" y="605" on="1"/>
        <pt x="818" y="590" on="0"/>
        <pt x="815" y="575" on="1"/>
        <pt x="806" y="578" on="0"/>
        <pt x="774" y="578" on="0"/>
        <pt x="733" y="556" on="0"/>
        <pt x="679" y="485" on="0"/>
        <pt x="656" y="428" on="1"/>
        <pt x="601" y="292" on="0"/>
        <pt x="572" y="33" on="1"/>
        <pt x="553" y="-133" on="0"/>
        <pt x="439" y="-274" on="0"/>
        <pt x="338" y="-274" on="1"/>
        <pt x="280" y="-274" on="0"/>
        <pt x="209" y="-219" on="0"/>
        <pt x="209" y="-141" on="0"/>
        <pt x="283" y="-83" on="0"/>
        <pt x="320" y="-83" on="1"/>
        <pt x="336" y="-83" on="0"/>
      </contour>
    </TTGlyph>
    <TTGlyph name="Eogonek" xMin="35" yMin="-200" xMax="627" yMax="667">
      <contour>
        <pt x="455" y="338" on="0"/>
        <pt x="377" y="286" on="0"/>
        <pt x="284" y="286" on="0"/>
        <pt x="259" y="305" on="1"/>
        <pt x="256" y="303" on="0"/>
        <pt x="246" y="297" on="0"/>
        <pt x="222" y="274" on="0"/>
        <pt x="212" y="261" on="1"/>
        <pt x="187" y="226" on="0"/>
        <pt x="187" y="176" on="1"/>
        <pt x="187" y="66" on="0"/>
        <pt x="287" y="66" on="1"/>
        <pt x="395" y="66" on="0"/>
        <pt x="464" y="135" on="1"/>
        <pt x="492" y="126" on="0"/>
        <pt x="498" y="101" on="1"/>
        <pt x="473" y="64" on="0"/>
        <pt x="427" y="34" on="1"/>
        <pt x="358" y="-28" on="0"/>
        <pt x="358" y="-98" on="1"/>
        <pt x="358" y="-141" on="0"/>
        <pt x="391" y="-141" on="1"/>
        <pt x="416" y="-141" on="0"/>
        <pt x="461" y="-114" on="1"/>
        <pt x="477" y="-128" on="0"/>
        <pt x="477" y="-149" on="1"/>
        <pt x="455" y="-169" on="0"/>
        <pt x="377" y="-200" on="0"/>
        <pt x="343" y="-200" on="1"/>
        <pt x="271" y="-200" on="0"/>
        <pt x="271" y="-131" on="1"/>
        <pt x="271" y="-68" on="0"/>
        <pt x="327" y="-9" on="1"/>
        <pt x="278" y="-24" on="0"/>
        <pt x="225" y="-24" on="1"/>
        <pt x="138" y="-24" on="0"/>
        <pt x="35" y="53" on="0"/>
        <pt x="35" y="204" on="0"/>
        <pt x="131" y="321" on="0"/>
        <pt x="208" y="362" on="1"/>
        <pt x="187" y="390" on="0"/>
        <pt x="187" y="434" on="1"/>
        <pt x="187" y="539" on="0"/>
        <pt x="366" y="667" on="0"/>
        <pt x="506" y="667" on="1"/>
        <pt x="567" y="667" on="0"/>
        <pt x="627" y="627" on="0"/>
        <pt x="627" y="554" on="0"/>
        <pt x="539" y="474" on="0"/>
        <pt x="482" y="470" on="1"/>
        <pt x="475" y="471" on="0"/>
        <pt x="461" y="487" on="0"/>
        <pt x="461" y="497" on="0"/>
        <pt x="463" y="499" on="1"/>
        <pt x="497" y="534" on="0"/>
        <pt x="497" y="571" on="1"/>
        <pt x="497" y="588" on="0"/>
        <pt x="450" y="605" on="0"/>
        <pt x="391" y="605" on="0"/>
        <pt x="380" y="598" on="1"/>
        <pt x="319" y="543" on="0"/>
        <pt x="319" y="456" on="1"/>
        <pt x="319" y="436" on="0"/>
        <pt x="328" y="404" on="1"/>
        <pt x="356" y="415" on="0"/>
        <pt x="455" y="415" on="0"/>
        <pt x="455" y="375" on="1"/>
      </contour>
    </TTGlyph>
    <TTGlyph name="Eth" xMin="28" yMin="-14" xMax="699" yMax="661">
      <contour>
        <pt x="170" y="661" on="1"/>
        <pt x="251" y="652" on="0"/>
        <pt x="332" y="652" on="0"/>
        <pt x="457" y="661" on="0"/>
        <pt x="509" y="661" on="1"/>
        <pt x="594" y="661" on="0"/>
        <pt x="699" y="550" on="0"/>
        <pt x="699" y="451" on="1"/>
        <pt x="699" y="326" on="0"/>
        <pt x="541" y="107" on="0"/>
        <pt x="309" y="-14" on="0"/>
        <pt x="75" y="-14" on="0"/>
        <pt x="75" y="73" on="1"/>
        <pt x="75" y="119" on="0"/>
        <pt x="136" y="271" on="1"/>
        <pt x="70" y="261" on="0"/>
        <pt x="65" y="225" on="1"/>
        <pt x="54" y="225" on="0"/>
        <pt x="28" y="255" on="0"/>
        <pt x="28" y="280" on="1"/>
        <pt x="28" y="328" on="0"/>
        <pt x="100" y="365" on="0"/>
        <pt x="175" y="367" on="1"/>
        <pt x="231" y="514" on="0"/>
        <pt x="231" y="573" on="1"/>
        <pt x="231" y="586" on="0"/>
        <pt x="211" y="601" on="0"/>
        <pt x="188" y="605" on="0"/>
        <pt x="163" y="608" on="1"/>
        <pt x="154" y="610" on="0"/>
        <pt x="154" y="637" on="0"/>
        <pt x="166" y="661" on="0"/>
      </contour>
      <contour>
        <pt x="383" y="590" on="1"/>
        <pt x="383" y="557" on="0"/>
        <pt x="305" y="372" on="1"/>
        <pt x="367" y="381" on="0"/>
        <pt x="395" y="409" on="1"/>
        <pt x="412" y="385" on="0"/>
        <pt x="412" y="356" on="1"/>
        <pt x="412" y="314" on="0"/>
        <pt x="336" y="283" on="0"/>
        <pt x="268" y="279" on="1"/>
        <pt x="220" y="156" on="0"/>
        <pt x="220" y="112" on="1"/>
        <pt x="220" y="65" on="0"/>
        <pt x="274" y="65" on="1"/>
        <pt x="315" y="65" on="0"/>
        <pt x="409" y="117" on="0"/>
        <pt x="492" y="206" on="0"/>
        <pt x="546" y="339" on="0"/>
        <pt x="546" y="503" on="0"/>
        <pt x="474" y="592" on="0"/>
        <pt x="412" y="592" on="1"/>
        <pt x="401" y="592" on="0"/>
      </contour>
    </TTGlyph>
    <TTGlyph name="Euro" xMin="30" yMin="-16" xMax="582" yMax="571">
      <contour>
        <pt x="471" y="145" on="1"/>
        <pt x="483" y="138" on="0"/>
        <pt x="490" y="124" on="1"/>
        <pt x="449" y="57" on="0"/>
        <pt x="337" y="-16" on="0"/>
        <pt x="208" y="-16" on="0"/>
        <pt x="110" y="83" on="0"/>
        <pt x="104" y="175" on="1"/>
        <pt x="57" y="175" on="1"/>
        <pt x="30" y="195" on="0"/>
        <pt x="30" y="222" on="1"/>
        <pt x="30" y="230" on="0"/>
        <pt x="33" y="230" on="1"/>
        <pt x="81" y="232" on="0"/>
        <pt x="106" y="234" on="1"/>
        <pt x="109" y="267" on="0"/>
        <pt x="116" y="293" on="1"/>
        <pt x="57" y="293" on="1"/>
        <pt x="30" y="313" on="0"/>
        <pt x="30" y="340" on="1"/>
        <pt x="30" y="348" on="0"/>
        <pt x="33" y="348" on="1"/>
        <pt x="84" y="350" on="0"/>
        <pt x="136" y="354" on="1"/>
        <pt x="173" y="448" on="0"/>
        <pt x="318" y="571" on="0"/>
        <pt x="415" y="571" on="1"/>
        <pt x="491" y="571" on="0"/>
        <pt x="582" y="510" on="0"/>
        <pt x="582" y="465" on="1"/>
        <pt x="582" y="437" on="0"/>
        <pt x="546" y="384" on="0"/>
        <pt x="512" y="369" on="1"/>
        <pt x="506" y="408" on="0"/>
        <pt x="435" y="454" on="0"/>
        <pt x="329" y="454" on="0"/>
        <pt x="240" y="403" on="0"/>
        <pt x="213" y="360" on="1"/>
        <pt x="291" y="366" on="0"/>
        <pt x="379" y="378" on="1"/>
        <pt x="407" y="351" on="0"/>
        <pt x="407" y="318" on="1"/>
        <pt x="407" y="298" on="0"/>
        <pt x="185" y="294" on="1"/>
        <pt x="180" y="267" on="0"/>
        <pt x="180" y="246" on="1"/>
        <pt x="180" y="239" on="1"/>
        <pt x="284" y="247" on="0"/>
        <pt x="379" y="260" on="1"/>
        <pt x="407" y="233" on="0"/>
        <pt x="407" y="200" on="1"/>
        <pt x="407" y="182" on="0"/>
        <pt x="192" y="176" on="1"/>
        <pt x="224" y="99" on="0"/>
        <pt x="325" y="99" on="1"/>
        <pt x="394" y="99" on="0"/>
      </contour>
    </TTGlyph>
    <TTGlyph name="F" xMin="-20" yMin="-74" xMax="757" yMax="725">
      <contour>
        <pt x="435" y="363" on="1"/>
        <pt x="521" y="363" on="1"/>
        <pt x="568" y="363" on="0"/>
        <pt x="587" y="373" on="1"/>
        <pt x="590" y="361" on="0"/>
        <pt x="590" y="348" on="1"/>
        <pt x="590" y="314" on="0"/>
        <pt x="548" y="268" on="0"/>
        <pt x="471" y="268" on="0"/>
        <pt x="412" y="291" on="1"/>
        <pt x="305" y="-74" on="0"/>
        <pt x="122" y="-74" on="1"/>
        <pt x="58" y="-74" on="0"/>
        <pt x="-20" y="-21" on="0"/>
        <pt x="-20" y="73" on="0"/>
        <pt x="50" y="128" on="0"/>
        <pt x="94" y="128" on="1"/>
        <pt x="108" y="128" on="0"/>
        <pt x="108" y="116" on="1"/>
        <pt x="108" y="115" on="0"/>
        <pt x="92" y="75" on="0"/>
        <pt x="92" y="19" on="0"/>
        <pt x="117" y="-21" on="0"/>
        <pt x="140" y="-21" on="1"/>
        <pt x="175" y="-21" on="0"/>
        <pt x="225" y="105" on="0"/>
        <pt x="277" y="297" on="1"/>
        <pt x="227" y="297" on="0"/>
        <pt x="199" y="290" on="1"/>
        <pt x="189" y="308" on="0"/>
        <pt x="189" y="347" on="0"/>
        <pt x="218" y="374" on="0"/>
        <pt x="260" y="374" on="0"/>
        <pt x="300" y="369" on="1"/>
        <pt x="336" y="495" on="0"/>
        <pt x="424" y="568" on="1"/>
        <pt x="297" y="593" on="0"/>
        <pt x="238" y="593" on="1"/>
        <pt x="207" y="593" on="0"/>
        <pt x="179" y="544" on="0"/>
        <pt x="179" y="488" on="1"/>
        <pt x="173" y="482" on="0"/>
        <pt x="163" y="482" on="1"/>
        <pt x="144" y="482" on="0"/>
        <pt x="110" y="580" on="0"/>
        <pt x="110" y="666" on="0"/>
        <pt x="169" y="725" on="0"/>
        <pt x="278" y="725" on="0"/>
        <pt x="435" y="663" on="0"/>
        <pt x="497" y="626" on="1"/>
        <pt x="609" y="686" on="0"/>
        <pt x="699" y="686" on="1"/>
        <pt x="757" y="686" on="0"/>
        <pt x="757" y="647" on="1"/>
        <pt x="757" y="604" on="0"/>
        <pt x="689" y="531" on="0"/>
        <pt x="586" y="531" on="0"/>
        <pt x="491" y="557" on="1"/>
      </contour>
    </TTGlyph>
    <TTGlyph name="F.smcp" xMin="19" yMin="-8" xMax="494" yMax="514">
      <contour>
        <pt x="483" y="513" on="1"/>
        <pt x="494" y="509" on="1"/>
        <pt x="494" y="484" on="0"/>
        <pt x="453" y="388" on="0"/>
        <pt x="431" y="365" on="1"/>
        <pt x="427" y="364" on="0"/>
        <pt x="399" y="364" on="0"/>
        <pt x="386" y="374" on="1"/>
        <pt x="387" y="379" on="0"/>
        <pt x="387" y="418" on="0"/>
        <pt x="365" y="453" on="0"/>
        <pt x="348" y="453" on="1"/>
        <pt x="307" y="453" on="0"/>
        <pt x="280" y="448" on="1"/>
        <pt x="254" y="359" on="0"/>
        <pt x="215" y="255" on="1"/>
        <pt x="284" y="255" on="0"/>
        <pt x="372" y="264" on="1"/>
        <pt x="375" y="256" on="0"/>
        <pt x="375" y="246" on="1"/>
        <pt x="375" y="214" on="0"/>
        <pt x="346" y="194" on="1"/>
        <pt x="316" y="192" on="0"/>
        <pt x="225" y="192" on="0"/>
        <pt x="192" y="196" on="1"/>
        <pt x="158" y="98" on="0"/>
        <pt x="158" y="39" on="0"/>
        <pt x="166" y="27" on="1"/>
        <pt x="156" y="16" on="0"/>
        <pt x="108" y="-8" on="0"/>
        <pt x="52" y="-8" on="0"/>
        <pt x="19" y="13" on="0"/>
        <pt x="19" y="44" on="1"/>
        <pt x="19" y="62" on="0"/>
        <pt x="30" y="88" on="1"/>
        <pt x="57" y="155" on="0"/>
        <pt x="74" y="193" on="0"/>
        <pt x="99" y="254" on="0"/>
        <pt x="108" y="275" on="0"/>
        <pt x="130" y="331" on="0"/>
        <pt x="140" y="361" on="0"/>
        <pt x="146" y="383" on="1"/>
        <pt x="159" y="426" on="0"/>
        <pt x="161" y="452" on="1"/>
        <pt x="134" y="460" on="0"/>
        <pt x="99" y="466" on="1"/>
        <pt x="84" y="469" on="0"/>
        <pt x="84" y="493" on="0"/>
        <pt x="101" y="514" on="0"/>
        <pt x="106" y="514" on="1"/>
        <pt x="220" y="508" on="0"/>
        <pt x="414" y="508" on="0"/>
      </contour>
    </TTGlyph>
    <TTGlyph name="F.smcp.titl" xMin="-18" yMin="-206" xMax="640" yMax="716">
      <contour>
        <pt x="640" y="-206" on="1"/>
        <pt x="-18" y="-206" on="1"/>
        <pt x="-18" y="-180" on="1"/>
        <pt x="640" y="-180" on="1"/>
      </contour>
      <contour>
        <pt x="640" y="690" on="1"/>
        <pt x="-18" y="690" on="1"/>
        <pt x="-18" y="716" on="1"/>
        <pt x="640" y="716" on="1"/>
      </contour>
      <contour>
        <pt x="640" y="-106" on="1"/>
        <pt x="-18" y="-106" on="1"/>
        <pt x="-18" y="636" on="1"/>
        <pt x="640" y="636" on="1"/>
      </contour>
      <contour>
        <pt x="594" y="509" on="1"/>
        <pt x="583" y="513" on="1"/>
        <pt x="514" y="508" on="0"/>
        <pt x="320" y="508" on="0"/>
        <pt x="206" y="514" on="1"/>
        <pt x="201" y="514" on="0"/>
        <pt x="184" y="493" on="0"/>
        <pt x="184" y="469" on="0"/>
        <pt x="199" y="466" on="1"/>
        <pt x="234" y="460" on="0"/>
        <pt x="261" y="452" on="1"/>
        <pt x="255" y="373" on="0"/>
        <pt x="119" y="71" on="0"/>
        <pt x="119" y="13" on="0"/>
        <pt x="152" y="-8" on="0"/>
        <pt x="208" y="-8" on="0"/>
        <pt x="256" y="16" on="0"/>
        <pt x="266" y="27" on="1"/>
        <pt x="258" y="39" on="0"/>
        <pt x="258" y="98" on="0"/>
        <pt x="292" y="196" on="1"/>
        <pt x="325" y="192" on="0"/>
        <pt x="416" y="192" on="0"/>
        <pt x="446" y="194" on="1"/>
        <pt x="475" y="214" on="0"/>
        <pt x="475" y="246" on="1"/>
        <pt x="475" y="256" on="0"/>
        <pt x="472" y="264" on="1"/>
        <pt x="384" y="255" on="0"/>
        <pt x="315" y="255" on="1"/>
        <pt x="354" y="359" on="0"/>
        <pt x="380" y="448" on="1"/>
        <pt x="407" y="453" on="0"/>
        <pt x="448" y="453" on="1"/>
        <pt x="465" y="453" on="0"/>
        <pt x="487" y="418" on="0"/>
        <pt x="487" y="379" on="0"/>
        <pt x="486" y="374" on="1"/>
        <pt x="499" y="364" on="0"/>
        <pt x="527" y="364" on="0"/>
        <pt x="531" y="365" on="1"/>
        <pt x="553" y="388" on="0"/>
        <pt x="594" y="484" on="0"/>
      </contour>
    </TTGlyph>
    <TTGlyph name="G" xMin="13" yMin="-280" xMax="749" yMax="672">
      <contour>
        <pt x="465" y="218" on="1"/>
        <pt x="466" y="236" on="1"/>
        <pt x="472" y="421" on="0"/>
        <pt x="556" y="421" on="1"/>
        <pt x="584" y="421" on="0"/>
        <pt x="635" y="386" on="0"/>
        <pt x="635" y="362" on="1"/>
        <pt x="635" y="313" on="0"/>
        <pt x="562" y="229" on="1"/>
        <pt x="579" y="133" on="0"/>
        <pt x="579" y="69" on="1"/>
        <pt x="579" y="-107" on="0"/>
        <pt x="363" y="-280" on="0"/>
        <pt x="13" y="-280" on="0"/>
        <pt x="13" y="-170" on="1"/>
        <pt x="13" y="-107" on="0"/>
        <pt x="109" y="-25" on="0"/>
        <pt x="152" y="-25" on="1"/>
        <pt x="168" y="-25" on="0"/>
        <pt x="168" y="-39" on="1"/>
        <pt x="168" y="-40" on="0"/>
        <pt x="149" y="-101" on="0"/>
        <pt x="149" y="-134" on="1"/>
        <pt x="149" y="-223" on="0"/>
        <pt x="228" y="-223" on="1"/>
        <pt x="323" y="-223" on="0"/>
        <pt x="446" y="-36" on="0"/>
        <pt x="458" y="152" on="1"/>
        <pt x="313" y="23" on="0"/>
        <pt x="193" y="23" on="1"/>
        <pt x="136" y="23" on="0"/>
        <pt x="72" y="99" on="0"/>
        <pt x="72" y="245" on="0"/>
        <pt x="156" y="416" on="0"/>
        <pt x="295" y="569" on="0"/>
        <pt x="503" y="672" on="0"/>
        <pt x="615" y="672" on="1"/>
        <pt x="678" y="672" on="0"/>
        <pt x="749" y="628" on="0"/>
        <pt x="749" y="597" on="1"/>
        <pt x="749" y="551" on="0"/>
        <pt x="667" y="469" on="0"/>
        <pt x="612" y="458" on="1"/>
        <pt x="605" y="459" on="0"/>
        <pt x="592" y="474" on="0"/>
        <pt x="592" y="485" on="0"/>
        <pt x="613" y="519" on="0"/>
        <pt x="613" y="568" on="0"/>
        <pt x="557" y="606" on="0"/>
        <pt x="461" y="606" on="0"/>
        <pt x="329" y="475" on="0"/>
        <pt x="232" y="281" on="0"/>
        <pt x="232" y="118" on="0"/>
        <pt x="297" y="118" on="1"/>
        <pt x="375" y="118" on="0"/>
      </contour>
    </TTGlyph>
    <TTGlyph name="G.alt" xMin="-87" yMin="-298" xMax="689" yMax="667">
      <contour>
        <pt x="509" y="82" on="1"/>
        <pt x="381" y="-298" on="0"/>
        <pt x="99" y="-298" on="1"/>
        <pt x="15" y="-298" on="0"/>
        <pt x="-87" y="-227" on="0"/>
        <pt x="-87" y="-119" on="0"/>
        <pt x="11" y="-42" on="0"/>
        <pt x="53" y="-42" on="1"/>
        <pt x="55" y="-42" on="0"/>
        <pt x="66" y="-60" on="0"/>
        <pt x="66" y="-68" on="0"/>
        <pt x="46" y="-111" on="0"/>
        <pt x="46" y="-122" on="1"/>
        <pt x="46" y="-161" on="0"/>
        <pt x="134" y="-227" on="0"/>
        <pt x="193" y="-227" on="1"/>
        <pt x="245" y="-227" on="0"/>
        <pt x="284" y="-154" on="1"/>
        <pt x="317" y="-91" on="0"/>
        <pt x="348" y="1" on="1"/>
        <pt x="294" y="-24" on="0"/>
        <pt x="256" y="-24" on="1"/>
        <pt x="170" y="-24" on="0"/>
        <pt x="68" y="66" on="0"/>
        <pt x="68" y="152" on="1"/>
        <pt x="68" y="213" on="0"/>
        <pt x="118" y="355" on="0"/>
        <pt x="209" y="489" on="0"/>
        <pt x="323" y="600" on="0"/>
        <pt x="467" y="667" on="0"/>
        <pt x="606" y="667" on="0"/>
        <pt x="689" y="617" on="0"/>
        <pt x="689" y="541" on="0"/>
        <pt x="618" y="465" on="0"/>
        <pt x="568" y="455" on="1"/>
        <pt x="561" y="456" on="0"/>
        <pt x="547" y="472" on="0"/>
        <pt x="547" y="482" on="0"/>
        <pt x="562" y="507" on="0"/>
        <pt x="562" y="558" on="0"/>
        <pt x="497" y="605" on="0"/>
        <pt x="452" y="606" on="1"/>
        <pt x="407" y="588" on="0"/>
        <pt x="298" y="439" on="0"/>
        <pt x="220" y="248" on="0"/>
        <pt x="220" y="177" on="1"/>
        <pt x="220" y="66" on="0"/>
        <pt x="318" y="66" on="1"/>
        <pt x="350" y="66" on="0"/>
        <pt x="371" y="70" on="1"/>
        <pt x="371" y="72" on="0"/>
        <pt x="375" y="80" on="1"/>
        <pt x="449" y="295" on="0"/>
        <pt x="521" y="295" on="1"/>
        <pt x="537" y="295" on="0"/>
        <pt x="597" y="262" on="0"/>
        <pt x="597" y="240" on="1"/>
        <pt x="597" y="170" on="0"/>
      </contour>
    </TTGlyph>
    <TTGlyph name="G.smcp" xMin="12" yMin="-18" xMax="522" yMax="525">
      <contour>
        <pt x="418" y="151" on="1"/>
        <pt x="413" y="139" on="0"/>
        <pt x="402" y="116" on="1"/>
        <pt x="379" y="65" on="0"/>
        <pt x="379" y="46" on="1"/>
        <pt x="385" y="3" on="1"/>
        <pt x="361" y="-16" on="0"/>
        <pt x="306" y="-16" on="0"/>
        <pt x="283" y="5" on="0"/>
        <pt x="282" y="16" on="1"/>
        <pt x="280" y="26" on="1"/>
        <pt x="219" y="-18" on="0"/>
        <pt x="161" y="-18" on="1"/>
        <pt x="12" y="-18" on="0"/>
        <pt x="12" y="119" on="1"/>
        <pt x="12" y="181" on="0"/>
        <pt x="77" y="326" on="0"/>
        <pt x="179" y="445" on="0"/>
        <pt x="316" y="525" on="0"/>
        <pt x="443" y="525" on="0"/>
        <pt x="522" y="479" on="0"/>
        <pt x="522" y="439" on="1"/>
        <pt x="522" y="411" on="0"/>
        <pt x="472" y="368" on="0"/>
        <pt x="432" y="360" on="1"/>
        <pt x="423" y="361" on="0"/>
        <pt x="402" y="379" on="0"/>
        <pt x="402" y="386" on="0"/>
        <pt x="403" y="386" on="0"/>
        <pt x="415" y="405" on="0"/>
        <pt x="415" y="417" on="1"/>
        <pt x="415" y="466" on="0"/>
        <pt x="321" y="466" on="1"/>
        <pt x="263" y="435" on="0"/>
        <pt x="144" y="211" on="0"/>
        <pt x="144" y="128" on="1"/>
        <pt x="144" y="94" on="0"/>
        <pt x="180" y="58" on="0"/>
        <pt x="205" y="58" on="1"/>
        <pt x="252" y="58" on="0"/>
        <pt x="278" y="74" on="1"/>
        <pt x="286" y="80" on="1"/>
        <pt x="316" y="142" on="0"/>
        <pt x="322" y="168" on="1"/>
        <pt x="288" y="175" on="0"/>
        <pt x="256" y="189" on="1"/>
        <pt x="251" y="197" on="0"/>
        <pt x="251" y="227" on="0"/>
        <pt x="255" y="233" on="1"/>
        <pt x="380" y="228" on="0"/>
        <pt x="426" y="228" on="0"/>
        <pt x="457" y="237" on="1"/>
        <pt x="482" y="225" on="0"/>
        <pt x="482" y="178" on="0"/>
        <pt x="449" y="151" on="0"/>
        <pt x="421" y="151" on="1"/>
      </contour>
    </TTGlyph>
    <TTGlyph name="G.smcp.titl" xMin="-10" yMin="-206" xMax="723" yMax="716">
      <contour>
        <pt x="723" y="-106" on="1"/>
        <pt x="-10" y="-106" on="1"/>
        <pt x="-10" y="636" on="1"/>
        <pt x="723" y="636" on="1"/>
      </contour>
      <contour>
        <pt x="557" y="237" on="1"/>
        <pt x="526" y="228" on="0"/>
        <pt x="480" y="228" on="0"/>
        <pt x="355" y="233" on="1"/>
        <pt x="351" y="227" on="0"/>
        <pt x="351" y="197" on="0"/>
        <pt x="356" y="189" on="1"/>
        <pt x="388" y="175" on="0"/>
        <pt x="422" y="168" on="1"/>
        <pt x="416" y="142" on="0"/>
        <pt x="386" y="80" on="1"/>
        <pt x="357" y="58" on="0"/>
        <pt x="308" y="58" on="1"/>
        <pt x="280" y="58" on="0"/>
        <pt x="244" y="94" on="0"/>
        <pt x="244" y="128" on="1"/>
        <pt x="244" y="211" on="0"/>
        <pt x="363" y="435" on="0"/>
        <pt x="421" y="466" on="1"/>
        <pt x="515" y="466" on="0"/>
        <pt x="515" y="419" on="1"/>
        <pt x="515" y="417" on="1"/>
        <pt x="515" y="408" on="0"/>
        <pt x="502" y="385" on="1"/>
        <pt x="502" y="379" on="0"/>
        <pt x="523" y="361" on="0"/>
        <pt x="532" y="360" on="1"/>
        <pt x="572" y="368" on="0"/>
        <pt x="622" y="411" on="0"/>
        <pt x="622" y="439" on="1"/>
        <pt x="622" y="479" on="0"/>
        <pt x="543" y="525" on="0"/>
        <pt x="416" y="525" on="0"/>
        <pt x="279" y="445" on="0"/>
        <pt x="177" y="326" on="0"/>
        <pt x="112" y="181" on="0"/>
        <pt x="112" y="119" on="1"/>
        <pt x="112" y="-18" on="0"/>
        <pt x="261" y="-18" on="1"/>
        <pt x="287" y="-18" on="0"/>
        <pt x="346" y="4" on="0"/>
        <pt x="363" y="15" on="1"/>
        <pt x="380" y="26" on="1"/>
        <pt x="380" y="10" on="0"/>
        <pt x="406" y="-16" on="0"/>
        <pt x="424" y="-16" on="1"/>
        <pt x="458" y="-16" on="0"/>
        <pt x="485" y="3" on="1"/>
        <pt x="479" y="33" on="0"/>
        <pt x="479" y="58" on="0"/>
        <pt x="492" y="93" on="0"/>
        <pt x="513" y="139" on="0"/>
        <pt x="518" y="151" on="1"/>
        <pt x="521" y="151" on="1"/>
        <pt x="549" y="151" on="0"/>
        <pt x="582" y="178" on="0"/>
        <pt x="582" y="225" on="0"/>
      </contour>
      <contour>
        <pt x="723" y="-206" on="1"/>
        <pt x="-10" y="-206" on="1"/>
        <pt x="-10" y="-180" on="1"/>
        <pt x="723" y="-180" on="1"/>
      </contour>
      <contour>
        <pt x="723" y="690" on="1"/>
        <pt x="-10" y="690" on="1"/>
        <pt x="-10" y="716" on="1"/>
        <pt x="723" y="716" on="1"/>
      </contour>
    </TTGlyph>
    <TTGlyph name="Gbreve" xMin="13" yMin="-280" xMax="822" yMax="921">
      <contour>
        <pt x="766" y="921" on="1"/>
        <pt x="766" y="921" on="0"/>
        <pt x="792" y="920" on="1"/>
        <pt x="818" y="920" on="0"/>
        <pt x="821" y="907" on="1"/>
        <pt x="822" y="903" on="0"/>
        <pt x="822" y="898" on="1"/>
        <pt x="822" y="822" on="0"/>
        <pt x="703" y="738" on="0"/>
        <pt x="567" y="738" on="0"/>
        <pt x="484" y="791" on="0"/>
        <pt x="484" y="839" on="1"/>
        <pt x="484" y="863" on="0"/>
        <pt x="514" y="908" on="0"/>
        <pt x="543" y="921" on="1"/>
        <pt x="550" y="883" on="0"/>
        <pt x="620" y="833" on="0"/>
        <pt x="699" y="833" on="0"/>
        <pt x="756" y="877" on="0"/>
      </contour>
      <contour>
        <pt x="465" y="218" on="1"/>
        <pt x="466" y="236" on="1"/>
        <pt x="472" y="421" on="0"/>
        <pt x="556" y="421" on="1"/>
        <pt x="584" y="421" on="0"/>
        <pt x="635" y="386" on="0"/>
        <pt x="635" y="362" on="1"/>
        <pt x="635" y="313" on="0"/>
        <pt x="562" y="229" on="1"/>
        <pt x="579" y="133" on="0"/>
        <pt x="579" y="69" on="1"/>
        <pt x="579" y="-107" on="0"/>
        <pt x="363" y="-280" on="0"/>
        <pt x="13" y="-280" on="0"/>
        <pt x="13" y="-170" on="1"/>
        <pt x="13" y="-107" on="0"/>
        <pt x="109" y="-25" on="0"/>
        <pt x="152" y="-25" on="1"/>
        <pt x="168" y="-25" on="0"/>
        <pt x="168" y="-39" on="1"/>
        <pt x="168" y="-40" on="0"/>
        <pt x="149" y="-101" on="0"/>
        <pt x="149" y="-134" on="1"/>
        <pt x="149" y="-223" on="0"/>
        <pt x="228" y="-223" on="1"/>
        <pt x="323" y="-223" on="0"/>
        <pt x="446" y="-36" on="0"/>
        <pt x="458" y="152" on="1"/>
        <pt x="313" y="23" on="0"/>
        <pt x="193" y="23" on="1"/>
        <pt x="136" y="23" on="0"/>
        <pt x="72" y="99" on="0"/>
        <pt x="72" y="245" on="0"/>
        <pt x="156" y="416" on="0"/>
        <pt x="295" y="569" on="0"/>
        <pt x="503" y="672" on="0"/>
        <pt x="615" y="672" on="1"/>
        <pt x="678" y="672" on="0"/>
        <pt x="749" y="628" on="0"/>
        <pt x="749" y="597" on="1"/>
        <pt x="749" y="551" on="0"/>
        <pt x="667" y="469" on="0"/>
        <pt x="612" y="458" on="1"/>
        <pt x="605" y="459" on="0"/>
        <pt x="592" y="474" on="0"/>
        <pt x="592" y="485" on="0"/>
        <pt x="613" y="519" on="0"/>
        <pt x="613" y="568" on="0"/>
        <pt x="557" y="606" on="0"/>
        <pt x="461" y="606" on="0"/>
        <pt x="329" y="475" on="0"/>
        <pt x="232" y="281" on="0"/>
        <pt x="232" y="118" on="0"/>
        <pt x="297" y="118" on="1"/>
        <pt x="375" y="118" on="0"/>
      </contour>
    </TTGlyph>
    <TTGlyph name="Gcircumflex" xMin="13" yMin="-280" xMax="749" yMax="955">
      <contour>
        <pt x="689" y="736" on="1"/>
        <pt x="659" y="788" on="0"/>
        <pt x="616" y="834" on="1"/>
        <pt x="537" y="794" on="0"/>
        <pt x="464" y="738" on="1"/>
        <pt x="457" y="738" on="0"/>
        <pt x="437" y="765" on="0"/>
        <pt x="437" y="779" on="0"/>
        <pt x="531" y="868" on="0"/>
        <pt x="641" y="955" on="0"/>
        <pt x="657" y="955" on="1"/>
        <pt x="683" y="955" on="0"/>
        <pt x="731" y="788" on="0"/>
        <pt x="731" y="764" on="1"/>
        <pt x="730" y="756" on="0"/>
        <pt x="697" y="736" on="0"/>
      </contour>
      <contour>
        <pt x="465" y="218" on="1"/>
        <pt x="466" y="236" on="1"/>
        <pt x="472" y="421" on="0"/>
        <pt x="556" y="421" on="1"/>
        <pt x="584" y="421" on="0"/>
        <pt x="635" y="386" on="0"/>
        <pt x="635" y="362" on="1"/>
        <pt x="635" y="313" on="0"/>
        <pt x="562" y="229" on="1"/>
        <pt x="579" y="133" on="0"/>
        <pt x="579" y="69" on="1"/>
        <pt x="579" y="-107" on="0"/>
        <pt x="363" y="-280" on="0"/>
        <pt x="13" y="-280" on="0"/>
        <pt x="13" y="-170" on="1"/>
        <pt x="13" y="-107" on="0"/>
        <pt x="109" y="-25" on="0"/>
        <pt x="152" y="-25" on="1"/>
        <pt x="168" y="-25" on="0"/>
        <pt x="168" y="-39" on="1"/>
        <pt x="168" y="-40" on="0"/>
        <pt x="149" y="-101" on="0"/>
        <pt x="149" y="-134" on="1"/>
        <pt x="149" y="-223" on="0"/>
        <pt x="228" y="-223" on="1"/>
        <pt x="323" y="-223" on="0"/>
        <pt x="446" y="-36" on="0"/>
        <pt x="458" y="152" on="1"/>
        <pt x="313" y="23" on="0"/>
        <pt x="193" y="23" on="1"/>
        <pt x="136" y="23" on="0"/>
        <pt x="72" y="99" on="0"/>
        <pt x="72" y="245" on="0"/>
        <pt x="156" y="416" on="0"/>
        <pt x="295" y="569" on="0"/>
        <pt x="503" y="672" on="0"/>
        <pt x="615" y="672" on="1"/>
        <pt x="678" y="672" on="0"/>
        <pt x="749" y="628" on="0"/>
        <pt x="749" y="597" on="1"/>
        <pt x="749" y="551" on="0"/>
        <pt x="667" y="469" on="0"/>
        <pt x="612" y="458" on="1"/>
        <pt x="605" y="459" on="0"/>
        <pt x="592" y="474" on="0"/>
        <pt x="592" y="485" on="0"/>
        <pt x="613" y="519" on="0"/>
        <pt x="613" y="568" on="0"/>
        <pt x="557" y="606" on="0"/>
        <pt x="461" y="606" on="0"/>
        <pt x="329" y="475" on="0"/>
        <pt x="232" y="281" on="0"/>
        <pt x="232" y="118" on="0"/>
        <pt x="297" y="118" on="1"/>
        <pt x="375" y="118" on="0"/>
      </contour>
    </TTGlyph>
    <TTGlyph name="Gcommaaccent" xMin="13" yMin="-591" xMax="749" yMax="672">
      <contour>
        <pt x="49" y="-550" on="1"/>
        <pt x="86" y="-548" on="0"/>
        <pt x="158" y="-508" on="0"/>
        <pt x="176" y="-471" on="1"/>
        <pt x="136" y="-471" on="0"/>
        <pt x="122" y="-462" on="1"/>
        <pt x="119" y="-453" on="0"/>
        <pt x="119" y="-441" on="1"/>
        <pt x="119" y="-391" on="0"/>
        <pt x="150" y="-363" on="1"/>
        <pt x="182" y="-336" on="0"/>
        <pt x="234" y="-336" on="1"/>
        <pt x="258" y="-336" on="0"/>
        <pt x="277" y="-342" on="1"/>
        <pt x="284" y="-346" on="0"/>
        <pt x="284" y="-360" on="1"/>
        <pt x="284" y="-408" on="0"/>
        <pt x="234" y="-513" on="0"/>
        <pt x="139" y="-591" on="0"/>
        <pt x="83" y="-591" on="1"/>
        <pt x="49" y="-591" on="0"/>
      </contour>
      <contour>
        <pt x="465" y="218" on="1"/>
        <pt x="466" y="236" on="1"/>
        <pt x="472" y="421" on="0"/>
        <pt x="556" y="421" on="1"/>
        <pt x="584" y="421" on="0"/>
        <pt x="635" y="386" on="0"/>
        <pt x="635" y="362" on="1"/>
        <pt x="635" y="313" on="0"/>
        <pt x="562" y="229" on="1"/>
        <pt x="579" y="133" on="0"/>
        <pt x="579" y="69" on="1"/>
        <pt x="579" y="-107" on="0"/>
        <pt x="363" y="-280" on="0"/>
        <pt x="13" y="-280" on="0"/>
        <pt x="13" y="-170" on="1"/>
        <pt x="13" y="-107" on="0"/>
        <pt x="109" y="-25" on="0"/>
        <pt x="152" y="-25" on="1"/>
        <pt x="168" y="-25" on="0"/>
        <pt x="168" y="-39" on="1"/>
        <pt x="168" y="-40" on="0"/>
        <pt x="149" y="-101" on="0"/>
        <pt x="149" y="-134" on="1"/>
        <pt x="149" y="-223" on="0"/>
        <pt x="228" y="-223" on="1"/>
        <pt x="323" y="-223" on="0"/>
        <pt x="446" y="-36" on="0"/>
        <pt x="458" y="152" on="1"/>
        <pt x="313" y="23" on="0"/>
        <pt x="193" y="23" on="1"/>
        <pt x="136" y="23" on="0"/>
        <pt x="72" y="99" on="0"/>
        <pt x="72" y="245" on="0"/>
        <pt x="156" y="416" on="0"/>
        <pt x="295" y="569" on="0"/>
        <pt x="503" y="672" on="0"/>
        <pt x="615" y="672" on="1"/>
        <pt x="678" y="672" on="0"/>
        <pt x="749" y="628" on="0"/>
        <pt x="749" y="597" on="1"/>
        <pt x="749" y="551" on="0"/>
        <pt x="667" y="469" on="0"/>
        <pt x="612" y="458" on="1"/>
        <pt x="605" y="459" on="0"/>
        <pt x="592" y="474" on="0"/>
        <pt x="592" y="485" on="0"/>
        <pt x="613" y="519" on="0"/>
        <pt x="613" y="568" on="0"/>
        <pt x="557" y="606" on="0"/>
        <pt x="461" y="606" on="0"/>
        <pt x="329" y="475" on="0"/>
        <pt x="232" y="281" on="0"/>
        <pt x="232" y="118" on="0"/>
        <pt x="297" y="118" on="1"/>
        <pt x="375" y="118" on="0"/>
      </contour>
    </TTGlyph>
    <TTGlyph name="Gdotaccent" xMin="13" yMin="-280" xMax="749" yMax="895">
      <contour>
        <pt x="692" y="764" on="1"/>
        <pt x="672" y="754" on="0"/>
        <pt x="570" y="754" on="0"/>
        <pt x="550" y="760" on="1"/>
        <pt x="558" y="789" on="0"/>
        <pt x="558" y="839" on="0"/>
        <pt x="557" y="847" on="1"/>
        <pt x="568" y="864" on="0"/>
        <pt x="672" y="895" on="0"/>
        <pt x="721" y="895" on="1"/>
        <pt x="727" y="895" on="0"/>
        <pt x="727" y="851" on="0"/>
        <pt x="705" y="775" on="0"/>
      </contour>
      <contour>
        <pt x="465" y="218" on="1"/>
        <pt x="466" y="236" on="1"/>
        <pt x="472" y="421" on="0"/>
        <pt x="556" y="421" on="1"/>
        <pt x="584" y="421" on="0"/>
        <pt x="635" y="386" on="0"/>
        <pt x="635" y="362" on="1"/>
        <pt x="635" y="313" on="0"/>
        <pt x="562" y="229" on="1"/>
        <pt x="579" y="133" on="0"/>
        <pt x="579" y="69" on="1"/>
        <pt x="579" y="-107" on="0"/>
        <pt x="363" y="-280" on="0"/>
        <pt x="13" y="-280" on="0"/>
        <pt x="13" y="-170" on="1"/>
        <pt x="13" y="-107" on="0"/>
        <pt x="109" y="-25" on="0"/>
        <pt x="152" y="-25" on="1"/>
        <pt x="168" y="-25" on="0"/>
        <pt x="168" y="-39" on="1"/>
        <pt x="168" y="-40" on="0"/>
        <pt x="149" y="-101" on="0"/>
        <pt x="149" y="-134" on="1"/>
        <pt x="149" y="-223" on="0"/>
        <pt x="228" y="-223" on="1"/>
        <pt x="323" y="-223" on="0"/>
        <pt x="446" y="-36" on="0"/>
        <pt x="458" y="152" on="1"/>
        <pt x="313" y="23" on="0"/>
        <pt x="193" y="23" on="1"/>
        <pt x="136" y="23" on="0"/>
        <pt x="72" y="99" on="0"/>
        <pt x="72" y="245" on="0"/>
        <pt x="156" y="416" on="0"/>
        <pt x="295" y="569" on="0"/>
        <pt x="503" y="672" on="0"/>
        <pt x="615" y="672" on="1"/>
        <pt x="678" y="672" on="0"/>
        <pt x="749" y="628" on="0"/>
        <pt x="749" y="597" on="1"/>
        <pt x="749" y="551" on="0"/>
        <pt x="667" y="469" on="0"/>
        <pt x="612" y="458" on="1"/>
        <pt x="605" y="459" on="0"/>
        <pt x="592" y="474" on="0"/>
        <pt x="592" y="485" on="0"/>
        <pt x="613" y="519" on="0"/>
        <pt x="613" y="568" on="0"/>
        <pt x="557" y="606" on="0"/>
        <pt x="461" y="606" on="0"/>
        <pt x="329" y="475" on="0"/>
        <pt x="232" y="281" on="0"/>
        <pt x="232" y="118" on="0"/>
        <pt x="297" y="118" on="1"/>
        <pt x="375" y="118" on="0"/>
      </contour>
    </TTGlyph>
    <TTGlyph name="H" xMin="60" yMin="-10" xMax="797" yMax="675">
      <contour>
        <pt x="238" y="188" on="0"/>
        <pt x="212" y="105" on="0"/>
        <pt x="212" y="49" on="0"/>
        <pt x="221" y="31" on="1"/>
        <pt x="212" y="16" on="0"/>
        <pt x="157" y="-10" on="0"/>
        <pt x="93" y="-10" on="0"/>
        <pt x="60" y="17" on="0"/>
        <pt x="60" y="92" on="0"/>
        <pt x="154" y="299" on="0"/>
        <pt x="248" y="517" on="0"/>
        <pt x="248" y="572" on="1"/>
        <pt x="248" y="584" on="0"/>
        <pt x="188" y="607" on="0"/>
        <pt x="169" y="607" on="1"/>
        <pt x="160" y="607" on="0"/>
        <pt x="160" y="632" on="0"/>
        <pt x="173" y="656" on="0"/>
        <pt x="176" y="656" on="1"/>
        <pt x="191" y="655" on="0"/>
        <pt x="214" y="652" on="0"/>
        <pt x="228" y="651" on="1"/>
        <pt x="256" y="649" on="0"/>
        <pt x="318" y="649" on="0"/>
        <pt x="363" y="656" on="0"/>
        <pt x="394" y="665" on="0"/>
        <pt x="400" y="665" on="0"/>
        <pt x="412" y="648" on="0"/>
        <pt x="412" y="621" on="0"/>
        <pt x="391" y="552" on="0"/>
        <pt x="369" y="498" on="0"/>
        <pt x="321" y="388" on="0"/>
        <pt x="310" y="362" on="1"/>
        <pt x="350" y="354" on="0"/>
        <pt x="458" y="354" on="0"/>
        <pt x="505" y="361" on="1"/>
        <pt x="510" y="371" on="0"/>
        <pt x="514" y="381" on="1"/>
        <pt x="636" y="675" on="0"/>
        <pt x="708" y="675" on="1"/>
        <pt x="737" y="675" on="0"/>
        <pt x="797" y="649" on="0"/>
        <pt x="797" y="619" on="1"/>
        <pt x="797" y="572" on="0"/>
        <pt x="700" y="418" on="0"/>
        <pt x="630" y="364" on="1"/>
        <pt x="601" y="300" on="0"/>
        <pt x="552" y="124" on="0"/>
        <pt x="552" y="76" on="1"/>
        <pt x="552" y="64" on="0"/>
        <pt x="615" y="51" on="0"/>
        <pt x="640" y="51" on="1"/>
        <pt x="653" y="51" on="0"/>
        <pt x="646" y="15" on="1"/>
        <pt x="643" y="0" on="0"/>
        <pt x="638" y="0" on="1"/>
        <pt x="478" y="0" on="0"/>
        <pt x="428" y="-10" on="1"/>
        <pt x="424" y="-10" on="0"/>
        <pt x="410" y="7" on="0"/>
        <pt x="410" y="12" on="1"/>
        <pt x="410" y="84" on="0"/>
        <pt x="456" y="214" on="1"/>
        <pt x="476" y="272" on="0"/>
        <pt x="483" y="301" on="1"/>
        <pt x="385" y="273" on="0"/>
        <pt x="272" y="273" on="1"/>
      </contour>
    </TTGlyph>
    <TTGlyph name="H.alt" xMin="0" yMin="-20" xMax="859" yMax="694">
      <contour>
        <pt x="399" y="357" on="1"/>
        <pt x="423" y="357" on="1"/>
        <pt x="505" y="357" on="0"/>
        <pt x="586" y="374" on="1"/>
        <pt x="689" y="675" on="0"/>
        <pt x="767" y="675" on="1"/>
        <pt x="812" y="675" on="0"/>
        <pt x="859" y="636" on="0"/>
        <pt x="859" y="613" on="1"/>
        <pt x="859" y="565" on="0"/>
        <pt x="772" y="416" on="0"/>
        <pt x="707" y="364" on="1"/>
        <pt x="639" y="157" on="0"/>
        <pt x="639" y="76" on="1"/>
        <pt x="639" y="57" on="0"/>
        <pt x="649" y="31" on="0"/>
        <pt x="650" y="31" on="1"/>
        <pt x="647" y="26" on="0"/>
        <pt x="635" y="13" on="0"/>
        <pt x="588" y="-10" on="0"/>
        <pt x="522" y="-10" on="0"/>
        <pt x="485" y="19" on="0"/>
        <pt x="485" y="55" on="1"/>
        <pt x="485" y="105" on="0"/>
        <pt x="563" y="308" on="1"/>
        <pt x="466" y="283" on="0"/>
        <pt x="371" y="277" on="1"/>
        <pt x="357" y="238" on="0"/>
        <pt x="315" y="128" on="1"/>
        <pt x="290" y="63" on="0"/>
        <pt x="202" y="-20" on="0"/>
        <pt x="77" y="-20" on="0"/>
        <pt x="0" y="46" on="0"/>
        <pt x="0" y="78" on="1"/>
        <pt x="0" y="93" on="0"/>
        <pt x="10" y="103" on="1"/>
        <pt x="46" y="90" on="0"/>
        <pt x="105" y="90" on="0"/>
        <pt x="153" y="107" on="0"/>
        <pt x="192" y="149" on="0"/>
        <pt x="223" y="190" on="0"/>
        <pt x="252" y="267" on="0"/>
        <pt x="272" y="323" on="0"/>
        <pt x="284" y="375" on="1"/>
        <pt x="302" y="448" on="0"/>
        <pt x="324" y="551" on="1"/>
        <pt x="248" y="574" on="0"/>
        <pt x="200" y="574" on="0"/>
        <pt x="179" y="529" on="0"/>
        <pt x="172" y="477" on="1"/>
        <pt x="135" y="477" on="1"/>
        <pt x="112" y="565" on="0"/>
        <pt x="112" y="642" on="0"/>
        <pt x="165" y="694" on="0"/>
        <pt x="249" y="694" on="0"/>
        <pt x="416" y="626" on="0"/>
        <pt x="471" y="626" on="1"/>
        <pt x="471" y="571" on="0"/>
      </contour>
    </TTGlyph>
    <TTGlyph name="H.smcp" xMin="25" yMin="-8" xMax="644" yMax="530">
      <contour>
        <pt x="164" y="81" on="0"/>
        <pt x="162" y="64" on="0"/>
        <pt x="162" y="47" on="0"/>
        <pt x="169" y="28" on="1"/>
        <pt x="166" y="24" on="0"/>
        <pt x="156" y="12" on="0"/>
        <pt x="114" y="-8" on="0"/>
        <pt x="56" y="-8" on="0"/>
        <pt x="25" y="15" on="0"/>
        <pt x="25" y="82" on="0"/>
        <pt x="170" y="392" on="0"/>
        <pt x="170" y="446" on="1"/>
        <pt x="170" y="453" on="0"/>
        <pt x="131" y="468" on="0"/>
        <pt x="112" y="468" on="0"/>
        <pt x="103" y="479" on="0"/>
        <pt x="103" y="494" on="0"/>
        <pt x="121" y="516" on="0"/>
        <pt x="126" y="516" on="1"/>
        <pt x="176" y="510" on="0"/>
        <pt x="248" y="510" on="0"/>
        <pt x="290" y="523" on="0"/>
        <pt x="299" y="523" on="0"/>
        <pt x="316" y="505" on="0"/>
        <pt x="316" y="501" on="1"/>
        <pt x="316" y="462" on="0"/>
        <pt x="262" y="341" on="1"/>
        <pt x="239" y="287" on="1"/>
        <pt x="265" y="282" on="0"/>
        <pt x="370" y="282" on="0"/>
        <pt x="401" y="288" on="1"/>
        <pt x="409" y="307" on="1"/>
        <pt x="499" y="530" on="0"/>
        <pt x="565" y="530" on="1"/>
        <pt x="591" y="530" on="0"/>
        <pt x="644" y="508" on="0"/>
        <pt x="644" y="446" on="0"/>
        <pt x="567" y="325" on="0"/>
        <pt x="514" y="284" on="1"/>
        <pt x="454" y="148" on="0"/>
        <pt x="454" y="64" on="1"/>
        <pt x="454" y="57" on="0"/>
        <pt x="497" y="49" on="0"/>
        <pt x="529" y="49" on="0"/>
        <pt x="529" y="33" on="1"/>
        <pt x="529" y="25" on="0"/>
        <pt x="516" y="0" on="0"/>
        <pt x="512" y="0" on="1"/>
        <pt x="391" y="0" on="0"/>
        <pt x="351" y="-8" on="1"/>
        <pt x="346" y="-8" on="0"/>
        <pt x="326" y="10" on="0"/>
        <pt x="326" y="14" on="1"/>
        <pt x="326" y="71" on="0"/>
        <pt x="362" y="171" on="1"/>
        <pt x="365" y="180" on="0"/>
        <pt x="385" y="224" on="0"/>
        <pt x="388" y="235" on="1"/>
        <pt x="294" y="211" on="0"/>
        <pt x="206" y="211" on="1"/>
        <pt x="204" y="204" on="0"/>
        <pt x="190" y="167" on="0"/>
        <pt x="186" y="156" on="0"/>
        <pt x="175" y="128" on="0"/>
        <pt x="172" y="116" on="0"/>
        <pt x="166" y="94" on="0"/>
      </contour>
    </TTGlyph>
    <TTGlyph name="H.smcp.titl" xMin="-20" yMin="-206" xMax="853" yMax="716">
      <contour>
        <pt x="853" y="-206" on="1"/>
        <pt x="-20" y="-206" on="1"/>
        <pt x="-20" y="-180" on="1"/>
        <pt x="853" y="-180" on="1"/>
      </contour>
      <contour>
        <pt x="853" y="690" on="1"/>
        <pt x="-20" y="690" on="1"/>
        <pt x="-20" y="716" on="1"/>
        <pt x="853" y="716" on="1"/>
      </contour>
      <contour>
        <pt x="853" y="-106" on="1"/>
        <pt x="-20" y="-106" on="1"/>
        <pt x="-20" y="636" on="1"/>
        <pt x="853" y="636" on="1"/>
      </contour>
      <contour>
        <pt x="614" y="284" on="1"/>
        <pt x="667" y="326" on="0"/>
        <pt x="744" y="446" on="0"/>
        <pt x="744" y="508" on="0"/>
        <pt x="691" y="530" on="0"/>
        <pt x="665" y="530" on="1"/>
        <pt x="599" y="530" on="0"/>
        <pt x="509" y="307" on="1"/>
        <pt x="501" y="288" on="1"/>
        <pt x="469" y="282" on="0"/>
        <pt x="365" y="282" on="0"/>
        <pt x="339" y="287" on="1"/>
        <pt x="362" y="341" on="1"/>
        <pt x="416" y="462" on="0"/>
        <pt x="416" y="501" on="1"/>
        <pt x="416" y="505" on="0"/>
        <pt x="399" y="523" on="0"/>
        <pt x="390" y="523" on="0"/>
        <pt x="348" y="510" on="0"/>
        <pt x="299" y="510" on="0"/>
        <pt x="229" y="515" on="1"/>
        <pt x="226" y="516" on="1"/>
        <pt x="221" y="516" on="0"/>
        <pt x="203" y="494" on="0"/>
        <pt x="203" y="479" on="0"/>
        <pt x="212" y="468" on="0"/>
        <pt x="231" y="468" on="0"/>
        <pt x="270" y="453" on="0"/>
        <pt x="270" y="446" on="1"/>
        <pt x="270" y="392" on="0"/>
        <pt x="125" y="82" on="0"/>
        <pt x="125" y="15" on="0"/>
        <pt x="156" y="-8" on="0"/>
        <pt x="214" y="-8" on="0"/>
        <pt x="254" y="10" on="0"/>
        <pt x="262" y="19" on="1"/>
        <pt x="269" y="28" on="1"/>
        <pt x="262" y="42" on="0"/>
        <pt x="262" y="64" on="0"/>
        <pt x="264" y="81" on="0"/>
        <pt x="266" y="94" on="0"/>
        <pt x="272" y="116" on="0"/>
        <pt x="275" y="128" on="0"/>
        <pt x="286" y="156" on="0"/>
        <pt x="290" y="167" on="0"/>
        <pt x="304" y="204" on="0"/>
        <pt x="306" y="211" on="1"/>
        <pt x="384" y="211" on="0"/>
        <pt x="462" y="229" on="1"/>
        <pt x="488" y="235" on="1"/>
        <pt x="485" y="224" on="0"/>
        <pt x="465" y="180" on="0"/>
        <pt x="462" y="171" on="1"/>
        <pt x="426" y="71" on="0"/>
        <pt x="426" y="14" on="1"/>
        <pt x="426" y="10" on="0"/>
        <pt x="446" y="-8" on="0"/>
        <pt x="451" y="-8" on="1"/>
        <pt x="491" y="0" on="0"/>
        <pt x="612" y="0" on="1"/>
        <pt x="617" y="0" on="0"/>
        <pt x="622" y="8" on="1"/>
        <pt x="629" y="23" on="0"/>
        <pt x="629" y="33" on="1"/>
        <pt x="628" y="49" on="0"/>
        <pt x="597" y="49" on="0"/>
        <pt x="554" y="57" on="0"/>
        <pt x="554" y="64" on="1"/>
        <pt x="554" y="101" on="0"/>
        <pt x="584" y="211" on="0"/>
        <pt x="599" y="248" on="1"/>
      </contour>
    </TTGlyph>
    <TTGlyph name="Hbar" xMin="60" yMin="-10" xMax="797" yMax="675">
      <contour>
        <pt x="238" y="188" on="0"/>
        <pt x="212" y="105" on="0"/>
        <pt x="212" y="49" on="0"/>
        <pt x="221" y="31" on="1"/>
        <pt x="212" y="16" on="0"/>
        <pt x="157" y="-10" on="0"/>
        <pt x="93" y="-10" on="0"/>
        <pt x="60" y="17" on="0"/>
        <pt x="60" y="81" on="0"/>
        <pt x="105" y="197" on="0"/>
        <pt x="189" y="377" on="0"/>
        <pt x="207" y="420" on="1"/>
        <pt x="149" y="420" on="1"/>
        <pt x="103" y="417" on="0"/>
        <pt x="101" y="401" on="1"/>
        <pt x="93" y="403" on="0"/>
        <pt x="77" y="431" on="0"/>
        <pt x="77" y="462" on="0"/>
        <pt x="108" y="489" on="0"/>
        <pt x="154" y="489" on="0"/>
        <pt x="231" y="487" on="1"/>
        <pt x="248" y="541" on="0"/>
        <pt x="248" y="572" on="1"/>
        <pt x="248" y="584" on="0"/>
        <pt x="188" y="607" on="0"/>
        <pt x="169" y="607" on="1"/>
        <pt x="160" y="607" on="0"/>
        <pt x="160" y="632" on="0"/>
        <pt x="173" y="656" on="0"/>
        <pt x="176" y="656" on="1"/>
        <pt x="191" y="655" on="0"/>
        <pt x="214" y="652" on="0"/>
        <pt x="228" y="651" on="1"/>
        <pt x="256" y="649" on="0"/>
        <pt x="318" y="649" on="0"/>
        <pt x="363" y="656" on="0"/>
        <pt x="394" y="665" on="0"/>
        <pt x="400" y="665" on="0"/>
        <pt x="412" y="648" on="0"/>
        <pt x="412" y="643" on="1"/>
        <pt x="412" y="599" on="0"/>
        <pt x="362" y="483" on="1"/>
        <pt x="555" y="477" on="1"/>
        <pt x="646" y="675" on="0"/>
        <pt x="708" y="675" on="1"/>
        <pt x="737" y="675" on="0"/>
        <pt x="797" y="649" on="0"/>
        <pt x="797" y="619" on="1"/>
        <pt x="797" y="572" on="0"/>
        <pt x="700" y="418" on="0"/>
        <pt x="630" y="364" on="1"/>
        <pt x="601" y="300" on="0"/>
        <pt x="552" y="124" on="0"/>
        <pt x="552" y="76" on="1"/>
        <pt x="552" y="64" on="0"/>
        <pt x="615" y="51" on="0"/>
        <pt x="640" y="51" on="1"/>
        <pt x="653" y="51" on="0"/>
        <pt x="646" y="15" on="1"/>
        <pt x="643" y="0" on="0"/>
        <pt x="638" y="0" on="1"/>
        <pt x="478" y="0" on="0"/>
        <pt x="428" y="-10" on="1"/>
        <pt x="424" y="-10" on="0"/>
        <pt x="410" y="7" on="0"/>
        <pt x="410" y="12" on="1"/>
        <pt x="410" y="84" on="0"/>
        <pt x="456" y="214" on="1"/>
        <pt x="476" y="272" on="0"/>
        <pt x="483" y="301" on="1"/>
        <pt x="385" y="273" on="0"/>
        <pt x="272" y="273" on="1"/>
      </contour>
      <contour>
        <pt x="514" y="381" on="1"/>
        <pt x="530" y="421" on="1"/>
        <pt x="335" y="420" on="1"/>
        <pt x="323" y="396" on="0"/>
        <pt x="310" y="362" on="1"/>
        <pt x="350" y="354" on="0"/>
        <pt x="458" y="354" on="0"/>
        <pt x="505" y="361" on="1"/>
        <pt x="510" y="371" on="0"/>
      </contour>
    </TTGlyph>
    <TTGlyph name="Hcircumflex" xMin="72" yMin="-10" xMax="809" yMax="929">
      <contour>
        <pt x="647" y="710" on="1"/>
        <pt x="617" y="762" on="0"/>
        <pt x="574" y="808" on="1"/>
        <pt x="495" y="768" on="0"/>
        <pt x="422" y="712" on="1"/>
        <pt x="415" y="712" on="0"/>
        <pt x="395" y="739" on="0"/>
        <pt x="395" y="753" on="0"/>
        <pt x="489" y="842" on="0"/>
        <pt x="599" y="929" on="0"/>
        <pt x="615" y="929" on="1"/>
        <pt x="641" y="929" on="0"/>
        <pt x="689" y="762" on="0"/>
        <pt x="689" y="738" on="1"/>
        <pt x="688" y="730" on="0"/>
        <pt x="655" y="710" on="0"/>
      </contour>
      <contour>
        <pt x="250" y="188" on="0"/>
        <pt x="224" y="105" on="0"/>
        <pt x="224" y="49" on="0"/>
        <pt x="233" y="31" on="1"/>
        <pt x="224" y="16" on="0"/>
        <pt x="169" y="-10" on="0"/>
        <pt x="105" y="-10" on="0"/>
        <pt x="72" y="17" on="0"/>
        <pt x="72" y="92" on="0"/>
        <pt x="166" y="299" on="0"/>
        <pt x="260" y="517" on="0"/>
        <pt x="260" y="572" on="1"/>
        <pt x="260" y="584" on="0"/>
        <pt x="200" y="607" on="0"/>
        <pt x="181" y="607" on="1"/>
        <pt x="172" y="607" on="0"/>
        <pt x="172" y="632" on="0"/>
        <pt x="185" y="656" on="0"/>
        <pt x="188" y="656" on="1"/>
        <pt x="203" y="655" on="0"/>
        <pt x="226" y="652" on="0"/>
        <pt x="240" y="651" on="1"/>
        <pt x="268" y="649" on="0"/>
        <pt x="330" y="649" on="0"/>
        <pt x="375" y="656" on="0"/>
        <pt x="406" y="665" on="0"/>
        <pt x="412" y="665" on="0"/>
        <pt x="424" y="648" on="0"/>
        <pt x="424" y="621" on="0"/>
        <pt x="403" y="552" on="0"/>
        <pt x="381" y="498" on="0"/>
        <pt x="333" y="388" on="0"/>
        <pt x="322" y="362" on="1"/>
        <pt x="362" y="354" on="0"/>
        <pt x="470" y="354" on="0"/>
        <pt x="517" y="361" on="1"/>
        <pt x="522" y="371" on="0"/>
        <pt x="526" y="381" on="1"/>
        <pt x="648" y="675" on="0"/>
        <pt x="720" y="675" on="1"/>
        <pt x="749" y="675" on="0"/>
        <pt x="809" y="649" on="0"/>
        <pt x="809" y="619" on="1"/>
        <pt x="809" y="572" on="0"/>
        <pt x="712" y="418" on="0"/>
        <pt x="642" y="364" on="1"/>
        <pt x="613" y="300" on="0"/>
        <pt x="564" y="124" on="0"/>
        <pt x="564" y="76" on="1"/>
        <pt x="564" y="64" on="0"/>
        <pt x="627" y="51" on="0"/>
        <pt x="652" y="51" on="1"/>
        <pt x="665" y="51" on="0"/>
        <pt x="658" y="15" on="1"/>
        <pt x="655" y="0" on="0"/>
        <pt x="650" y="0" on="1"/>
        <pt x="490" y="0" on="0"/>
        <pt x="440" y="-10" on="1"/>
        <pt x="436" y="-10" on="0"/>
        <pt x="422" y="7" on="0"/>
        <pt x="422" y="12" on="1"/>
        <pt x="422" y="84" on="0"/>
        <pt x="468" y="214" on="1"/>
        <pt x="488" y="272" on="0"/>
        <pt x="495" y="301" on="1"/>
        <pt x="397" y="273" on="0"/>
        <pt x="284" y="273" on="1"/>
      </contour>
    </TTGlyph>
    <TTGlyph name="I" xMin="20" yMin="-22" xMax="553" yMax="672">
      <contour>
        <pt x="381" y="113" on="1"/>
        <pt x="394" y="86" on="0"/>
        <pt x="394" y="28" on="0"/>
        <pt x="356" y="-11" on="0"/>
        <pt x="295" y="-11" on="0"/>
        <pt x="173" y="1" on="0"/>
        <pt x="138" y="1" on="1"/>
        <pt x="62" y="1" on="0"/>
        <pt x="30" y="-22" on="1"/>
        <pt x="20" y="-6" on="0"/>
        <pt x="20" y="14" on="1"/>
        <pt x="20" y="48" on="0"/>
        <pt x="84" y="100" on="0"/>
        <pt x="136" y="100" on="1"/>
        <pt x="143" y="100" on="0"/>
        <pt x="157" y="98" on="1"/>
        <pt x="167" y="185" on="0"/>
        <pt x="247" y="467" on="0"/>
        <pt x="295" y="561" on="1"/>
        <pt x="286" y="562" on="0"/>
        <pt x="271" y="562" on="1"/>
        <pt x="231" y="562" on="0"/>
        <pt x="192" y="537" on="1"/>
        <pt x="179" y="564" on="0"/>
        <pt x="179" y="622" on="0"/>
        <pt x="217" y="661" on="0"/>
        <pt x="278" y="661" on="0"/>
        <pt x="400" y="649" on="0"/>
        <pt x="435" y="649" on="1"/>
        <pt x="511" y="649" on="0"/>
        <pt x="543" y="672" on="1"/>
        <pt x="553" y="656" on="0"/>
        <pt x="553" y="636" on="1"/>
        <pt x="553" y="602" on="0"/>
        <pt x="489" y="550" on="0"/>
        <pt x="437" y="550" on="1"/>
        <pt x="430" y="550" on="0"/>
        <pt x="416" y="552" on="1"/>
        <pt x="388" y="508" on="0"/>
        <pt x="279" y="163" on="0"/>
        <pt x="278" y="89" on="1"/>
        <pt x="287" y="88" on="0"/>
        <pt x="302" y="88" on="1"/>
        <pt x="342" y="88" on="0"/>
      </contour>
    </TTGlyph>
    <TTGlyph name="I.alt" xMin="-30" yMin="-52" xMax="606" yMax="701">
      <contour>
        <pt x="136" y="16" on="1"/>
        <pt x="87" y="-5" on="0"/>
        <pt x="26" y="-5" on="1"/>
        <pt x="-30" y="-5" on="0"/>
        <pt x="-30" y="54" on="1"/>
        <pt x="-30" y="80" on="0"/>
        <pt x="4" y="124" on="0"/>
        <pt x="27" y="124" on="1"/>
        <pt x="65" y="124" on="0"/>
        <pt x="128" y="108" on="1"/>
        <pt x="149" y="102" on="1"/>
        <pt x="164" y="125" on="0"/>
        <pt x="188" y="253" on="0"/>
        <pt x="210" y="381" on="0"/>
        <pt x="279" y="529" on="0"/>
        <pt x="333" y="575" on="1"/>
        <pt x="301" y="591" on="0"/>
        <pt x="252" y="591" on="1"/>
        <pt x="194" y="591" on="0"/>
        <pt x="191" y="528" on="1"/>
        <pt x="189" y="519" on="0"/>
        <pt x="158" y="519" on="0"/>
        <pt x="124" y="588" on="0"/>
        <pt x="124" y="660" on="0"/>
        <pt x="172" y="701" on="0"/>
        <pt x="210" y="701" on="1"/>
        <pt x="305" y="701" on="0"/>
        <pt x="419" y="628" on="1"/>
        <pt x="481" y="641" on="0"/>
        <pt x="606" y="641" on="0"/>
        <pt x="606" y="586" on="1"/>
        <pt x="606" y="561" on="0"/>
        <pt x="556" y="502" on="0"/>
        <pt x="481" y="502" on="0"/>
        <pt x="411" y="537" on="1"/>
        <pt x="368" y="487" on="0"/>
        <pt x="330" y="314" on="1"/>
        <pt x="316" y="250" on="0"/>
        <pt x="256" y="113" on="0"/>
        <pt x="215" y="77" on="1"/>
        <pt x="253" y="58" on="0"/>
        <pt x="293" y="58" on="1"/>
        <pt x="375" y="58" on="0"/>
        <pt x="377" y="100" on="1"/>
        <pt x="385" y="105" on="0"/>
        <pt x="409" y="105" on="1"/>
        <pt x="416" y="102" on="0"/>
        <pt x="425" y="47" on="0"/>
        <pt x="425" y="32" on="1"/>
        <pt x="425" y="-11" on="0"/>
        <pt x="373" y="-52" on="0"/>
        <pt x="335" y="-52" on="1"/>
        <pt x="242" y="-52" on="0"/>
      </contour>
    </TTGlyph>
    <TTGlyph name="I.smcp" xMin="-44" yMin="-11" xMax="453" yMax="517">
      <contour>
        <pt x="393" y="422" on="1"/>
        <pt x="326" y="429" on="1"/>
        <pt x="319" y="411" on="0"/>
        <pt x="268" y="287" on="0"/>
        <pt x="254" y="250" on="1"/>
        <pt x="213" y="140" on="0"/>
        <pt x="213" y="73" on="1"/>
        <pt x="213" y="63" on="1"/>
        <pt x="227" y="63" on="1"/>
        <pt x="263" y="63" on="0"/>
        <pt x="304" y="74" on="1"/>
        <pt x="319" y="78" on="1"/>
        <pt x="324" y="64" on="0"/>
        <pt x="324" y="21" on="0"/>
        <pt x="287" y="-11" on="0"/>
        <pt x="238" y="-11" on="0"/>
        <pt x="99" y="2" on="0"/>
        <pt x="70" y="2" on="1"/>
        <pt x="21" y="2" on="0"/>
        <pt x="-22" y="-7" on="1"/>
        <pt x="-37" y="-10" on="1"/>
        <pt x="-44" y="3" on="0"/>
        <pt x="-44" y="56" on="0"/>
        <pt x="-17" y="80" on="0"/>
        <pt x="32" y="80" on="0"/>
        <pt x="85" y="75" on="1"/>
        <pt x="94" y="125" on="0"/>
        <pt x="197" y="395" on="0"/>
        <pt x="209" y="438" on="1"/>
        <pt x="188" y="438" on="1"/>
        <pt x="156" y="438" on="0"/>
        <pt x="106" y="426" on="1"/>
        <pt x="90" y="422" on="1"/>
        <pt x="85" y="440" on="0"/>
        <pt x="85" y="483" on="0"/>
        <pt x="122" y="517" on="0"/>
        <pt x="171" y="517" on="0"/>
        <pt x="310" y="504" on="0"/>
        <pt x="339" y="504" on="1"/>
        <pt x="388" y="504" on="0"/>
        <pt x="432" y="513" on="1"/>
        <pt x="446" y="516" on="1"/>
        <pt x="453" y="503" on="0"/>
        <pt x="453" y="475" on="1"/>
        <pt x="453" y="422" on="0"/>
      </contour>
    </TTGlyph>
    <TTGlyph name="I.smcp.titl" xMin="-10" yMin="-206" xMax="633" yMax="716">
      <contour>
        <pt x="633" y="-206" on="1"/>
        <pt x="-10" y="-206" on="1"/>
        <pt x="-10" y="-180" on="1"/>
        <pt x="633" y="-180" on="1"/>
      </contour>
      <contour>
        <pt x="633" y="690" on="1"/>
        <pt x="-10" y="690" on="1"/>
        <pt x="-10" y="716" on="1"/>
        <pt x="633" y="716" on="1"/>
      </contour>
      <contour>
        <pt x="633" y="-106" on="1"/>
        <pt x="-10" y="-106" on="1"/>
        <pt x="-10" y="636" on="1"/>
        <pt x="633" y="636" on="1"/>
      </contour>
      <contour>
        <pt x="426" y="429" on="1"/>
        <pt x="493" y="422" on="1"/>
        <pt x="553" y="422" on="0"/>
        <pt x="553" y="475" on="1"/>
        <pt x="553" y="502" on="0"/>
        <pt x="546" y="516" on="1"/>
        <pt x="493" y="504" on="0"/>
        <pt x="410" y="504" on="0"/>
        <pt x="271" y="517" on="0"/>
        <pt x="222" y="517" on="0"/>
        <pt x="185" y="483" on="0"/>
        <pt x="185" y="454" on="1"/>
        <pt x="190" y="422" on="1"/>
        <pt x="251" y="438" on="0"/>
        <pt x="288" y="438" on="1"/>
        <pt x="309" y="438" on="1"/>
        <pt x="297" y="395" on="0"/>
        <pt x="194" y="125" on="0"/>
        <pt x="185" y="75" on="1"/>
        <pt x="133" y="80" on="0"/>
        <pt x="108" y="80" on="1"/>
        <pt x="56" y="80" on="0"/>
        <pt x="56" y="31" on="1"/>
        <pt x="56" y="9" on="0"/>
        <pt x="63" y="-10" on="1"/>
        <pt x="116" y="2" on="0"/>
        <pt x="199" y="2" on="0"/>
        <pt x="338" y="-11" on="0"/>
        <pt x="387" y="-11" on="0"/>
        <pt x="424" y="21" on="0"/>
        <pt x="424" y="50" on="1"/>
        <pt x="419" y="78" on="1"/>
        <pt x="364" y="63" on="0"/>
        <pt x="327" y="63" on="1"/>
        <pt x="313" y="63" on="1"/>
        <pt x="313" y="73" on="1"/>
        <pt x="313" y="140" on="0"/>
        <pt x="354" y="250" on="1"/>
        <pt x="368" y="287" on="0"/>
        <pt x="419" y="411" on="0"/>
      </contour>
    </TTGlyph>
    <TTGlyph name="Iacute" xMin="20" yMin="-22" xMax="617" yMax="916">
      <contour>
        <pt x="617" y="805" on="1"/>
        <pt x="552" y="805" on="0"/>
        <pt x="416" y="750" on="0"/>
        <pt x="368" y="704" on="1"/>
        <pt x="361" y="704" on="0"/>
        <pt x="347" y="722" on="0"/>
        <pt x="347" y="743" on="0"/>
        <pt x="418" y="832" on="0"/>
        <pt x="523" y="916" on="0"/>
        <pt x="560" y="916" on="1"/>
        <pt x="579" y="916" on="0"/>
        <pt x="617" y="853" on="0"/>
      </contour>
      <contour>
        <pt x="381" y="113" on="1"/>
        <pt x="394" y="86" on="0"/>
        <pt x="394" y="28" on="0"/>
        <pt x="356" y="-11" on="0"/>
        <pt x="295" y="-11" on="0"/>
        <pt x="173" y="1" on="0"/>
        <pt x="138" y="1" on="1"/>
        <pt x="62" y="1" on="0"/>
        <pt x="30" y="-22" on="1"/>
        <pt x="20" y="-6" on="0"/>
        <pt x="20" y="14" on="1"/>
        <pt x="20" y="48" on="0"/>
        <pt x="84" y="100" on="0"/>
        <pt x="136" y="100" on="1"/>
        <pt x="143" y="100" on="0"/>
        <pt x="157" y="98" on="1"/>
        <pt x="167" y="185" on="0"/>
        <pt x="247" y="467" on="0"/>
        <pt x="295" y="561" on="1"/>
        <pt x="286" y="562" on="0"/>
        <pt x="271" y="562" on="1"/>
        <pt x="231" y="562" on="0"/>
        <pt x="192" y="537" on="1"/>
        <pt x="179" y="564" on="0"/>
        <pt x="179" y="622" on="0"/>
        <pt x="217" y="661" on="0"/>
        <pt x="278" y="661" on="0"/>
        <pt x="400" y="649" on="0"/>
        <pt x="435" y="649" on="1"/>
        <pt x="511" y="649" on="0"/>
        <pt x="543" y="672" on="1"/>
        <pt x="553" y="656" on="0"/>
        <pt x="553" y="636" on="1"/>
        <pt x="553" y="602" on="0"/>
        <pt x="489" y="550" on="0"/>
        <pt x="437" y="550" on="1"/>
        <pt x="430" y="550" on="0"/>
        <pt x="416" y="552" on="1"/>
        <pt x="388" y="508" on="0"/>
        <pt x="279" y="163" on="0"/>
        <pt x="278" y="89" on="1"/>
        <pt x="287" y="88" on="0"/>
        <pt x="302" y="88" on="1"/>
        <pt x="342" y="88" on="0"/>
      </contour>
    </TTGlyph>
    <TTGlyph name="Icircumflex" xMin="20" yMin="-22" xMax="557" yMax="932">
      <contour>
        <pt x="515" y="713" on="1"/>
        <pt x="485" y="765" on="0"/>
        <pt x="442" y="811" on="1"/>
        <pt x="363" y="771" on="0"/>
        <pt x="290" y="715" on="1"/>
        <pt x="283" y="715" on="0"/>
        <pt x="263" y="742" on="0"/>
        <pt x="263" y="756" on="0"/>
        <pt x="357" y="845" on="0"/>
        <pt x="467" y="932" on="0"/>
        <pt x="483" y="932" on="1"/>
        <pt x="509" y="932" on="0"/>
        <pt x="557" y="765" on="0"/>
        <pt x="557" y="741" on="1"/>
        <pt x="556" y="733" on="0"/>
        <pt x="523" y="713" on="0"/>
      </contour>
      <contour>
        <pt x="381" y="113" on="1"/>
        <pt x="394" y="86" on="0"/>
        <pt x="394" y="28" on="0"/>
        <pt x="356" y="-11" on="0"/>
        <pt x="295" y="-11" on="0"/>
        <pt x="173" y="1" on="0"/>
        <pt x="138" y="1" on="1"/>
        <pt x="62" y="1" on="0"/>
        <pt x="30" y="-22" on="1"/>
        <pt x="20" y="-6" on="0"/>
        <pt x="20" y="14" on="1"/>
        <pt x="20" y="48" on="0"/>
        <pt x="84" y="100" on="0"/>
        <pt x="136" y="100" on="1"/>
        <pt x="143" y="100" on="0"/>
        <pt x="157" y="98" on="1"/>
        <pt x="167" y="185" on="0"/>
        <pt x="247" y="467" on="0"/>
        <pt x="295" y="561" on="1"/>
        <pt x="286" y="562" on="0"/>
        <pt x="271" y="562" on="1"/>
        <pt x="231" y="562" on="0"/>
        <pt x="192" y="537" on="1"/>
        <pt x="179" y="564" on="0"/>
        <pt x="179" y="622" on="0"/>
        <pt x="217" y="661" on="0"/>
        <pt x="278" y="661" on="0"/>
        <pt x="400" y="649" on="0"/>
        <pt x="435" y="649" on="1"/>
        <pt x="511" y="649" on="0"/>
        <pt x="543" y="672" on="1"/>
        <pt x="553" y="656" on="0"/>
        <pt x="553" y="636" on="1"/>
        <pt x="553" y="602" on="0"/>
        <pt x="489" y="550" on="0"/>
        <pt x="437" y="550" on="1"/>
        <pt x="430" y="550" on="0"/>
        <pt x="416" y="552" on="1"/>
        <pt x="388" y="508" on="0"/>
        <pt x="279" y="163" on="0"/>
        <pt x="278" y="89" on="1"/>
        <pt x="287" y="88" on="0"/>
        <pt x="302" y="88" on="1"/>
        <pt x="342" y="88" on="0"/>
      </contour>
    </TTGlyph>
    <TTGlyph name="Idieresis" xMin="20" yMin="-22" xMax="620" yMax="876">
      <contour>
        <pt x="389" y="745" on="1"/>
        <pt x="369" y="735" on="0"/>
        <pt x="282" y="735" on="0"/>
        <pt x="267" y="741" on="1"/>
        <pt x="275" y="770" on="0"/>
        <pt x="275" y="820" on="0"/>
        <pt x="274" y="828" on="1"/>
        <pt x="286" y="846" on="0"/>
        <pt x="371" y="876" on="0"/>
        <pt x="418" y="876" on="1"/>
        <pt x="424" y="876" on="0"/>
        <pt x="424" y="831" on="0"/>
        <pt x="402" y="756" on="0"/>
      </contour>
      <contour>
        <pt x="585" y="745" on="1"/>
        <pt x="565" y="735" on="0"/>
        <pt x="478" y="735" on="0"/>
        <pt x="463" y="741" on="1"/>
        <pt x="471" y="770" on="0"/>
        <pt x="471" y="820" on="0"/>
        <pt x="470" y="828" on="1"/>
        <pt x="482" y="846" on="0"/>
        <pt x="567" y="876" on="0"/>
        <pt x="614" y="876" on="1"/>
        <pt x="620" y="876" on="0"/>
        <pt x="620" y="831" on="0"/>
        <pt x="598" y="756" on="0"/>
      </contour>
      <contour>
        <pt x="381" y="113" on="1"/>
        <pt x="394" y="86" on="0"/>
        <pt x="394" y="28" on="0"/>
        <pt x="356" y="-11" on="0"/>
        <pt x="295" y="-11" on="0"/>
        <pt x="173" y="1" on="0"/>
        <pt x="138" y="1" on="1"/>
        <pt x="62" y="1" on="0"/>
        <pt x="30" y="-22" on="1"/>
        <pt x="20" y="-6" on="0"/>
        <pt x="20" y="14" on="1"/>
        <pt x="20" y="48" on="0"/>
        <pt x="84" y="100" on="0"/>
        <pt x="136" y="100" on="1"/>
        <pt x="143" y="100" on="0"/>
        <pt x="157" y="98" on="1"/>
        <pt x="167" y="185" on="0"/>
        <pt x="247" y="467" on="0"/>
        <pt x="295" y="561" on="1"/>
        <pt x="286" y="562" on="0"/>
        <pt x="271" y="562" on="1"/>
        <pt x="231" y="562" on="0"/>
        <pt x="192" y="537" on="1"/>
        <pt x="179" y="564" on="0"/>
        <pt x="179" y="622" on="0"/>
        <pt x="217" y="661" on="0"/>
        <pt x="278" y="661" on="0"/>
        <pt x="400" y="649" on="0"/>
        <pt x="435" y="649" on="1"/>
        <pt x="511" y="649" on="0"/>
        <pt x="543" y="672" on="1"/>
        <pt x="553" y="656" on="0"/>
        <pt x="553" y="636" on="1"/>
        <pt x="553" y="602" on="0"/>
        <pt x="489" y="550" on="0"/>
        <pt x="437" y="550" on="1"/>
        <pt x="430" y="550" on="0"/>
        <pt x="416" y="552" on="1"/>
        <pt x="388" y="508" on="0"/>
        <pt x="279" y="163" on="0"/>
        <pt x="278" y="89" on="1"/>
        <pt x="287" y="88" on="0"/>
        <pt x="302" y="88" on="1"/>
        <pt x="342" y="88" on="0"/>
      </contour>
    </TTGlyph>
    <TTGlyph name="Idotaccent" xMin="20" yMin="-22" xMax="553" yMax="905">
      <contour>
        <pt x="501" y="774" on="1"/>
        <pt x="481" y="764" on="0"/>
        <pt x="379" y="764" on="0"/>
        <pt x="359" y="770" on="1"/>
        <pt x="367" y="799" on="0"/>
        <pt x="367" y="849" on="0"/>
        <pt x="366" y="857" on="1"/>
        <pt x="377" y="874" on="0"/>
        <pt x="481" y="905" on="0"/>
        <pt x="530" y="905" on="1"/>
        <pt x="536" y="905" on="0"/>
        <pt x="536" y="861" on="0"/>
        <pt x="514" y="785" on="0"/>
      </contour>
      <contour>
        <pt x="381" y="113" on="1"/>
        <pt x="394" y="86" on="0"/>
        <pt x="394" y="28" on="0"/>
        <pt x="356" y="-11" on="0"/>
        <pt x="295" y="-11" on="0"/>
        <pt x="173" y="1" on="0"/>
        <pt x="138" y="1" on="1"/>
        <pt x="62" y="1" on="0"/>
        <pt x="30" y="-22" on="1"/>
        <pt x="20" y="-6" on="0"/>
        <pt x="20" y="14" on="1"/>
        <pt x="20" y="48" on="0"/>
        <pt x="84" y="100" on="0"/>
        <pt x="136" y="100" on="1"/>
        <pt x="143" y="100" on="0"/>
        <pt x="157" y="98" on="1"/>
        <pt x="167" y="185" on="0"/>
        <pt x="247" y="467" on="0"/>
        <pt x="295" y="561" on="1"/>
        <pt x="286" y="562" on="0"/>
        <pt x="271" y="562" on="1"/>
        <pt x="231" y="562" on="0"/>
        <pt x="192" y="537" on="1"/>
        <pt x="179" y="564" on="0"/>
        <pt x="179" y="622" on="0"/>
        <pt x="217" y="661" on="0"/>
        <pt x="278" y="661" on="0"/>
        <pt x="400" y="649" on="0"/>
        <pt x="435" y="649" on="1"/>
        <pt x="511" y="649" on="0"/>
        <pt x="543" y="672" on="1"/>
        <pt x="553" y="656" on="0"/>
        <pt x="553" y="636" on="1"/>
        <pt x="553" y="602" on="0"/>
        <pt x="489" y="550" on="0"/>
        <pt x="437" y="550" on="1"/>
        <pt x="430" y="550" on="0"/>
        <pt x="416" y="552" on="1"/>
        <pt x="388" y="508" on="0"/>
        <pt x="279" y="163" on="0"/>
        <pt x="278" y="89" on="1"/>
        <pt x="287" y="88" on="0"/>
        <pt x="302" y="88" on="1"/>
        <pt x="342" y="88" on="0"/>
      </contour>
    </TTGlyph>
    <TTGlyph name="Igrave" xMin="20" yMin="-22" xMax="553" yMax="894">
      <contour>
        <pt x="310" y="894" on="1"/>
        <pt x="341" y="837" on="0"/>
        <pt x="456" y="746" on="0"/>
        <pt x="519" y="726" on="1"/>
        <pt x="520" y="724" on="0"/>
        <pt x="520" y="719" on="1"/>
        <pt x="520" y="693" on="0"/>
        <pt x="461" y="693" on="0"/>
        <pt x="348" y="717" on="0"/>
        <pt x="238" y="771" on="0"/>
        <pt x="238" y="803" on="1"/>
        <pt x="238" y="823" on="0"/>
        <pt x="275" y="874" on="0"/>
      </contour>
      <contour>
        <pt x="381" y="113" on="1"/>
        <pt x="394" y="86" on="0"/>
        <pt x="394" y="28" on="0"/>
        <pt x="356" y="-11" on="0"/>
        <pt x="295" y="-11" on="0"/>
        <pt x="173" y="1" on="0"/>
        <pt x="138" y="1" on="1"/>
        <pt x="62" y="1" on="0"/>
        <pt x="30" y="-22" on="1"/>
        <pt x="20" y="-6" on="0"/>
        <pt x="20" y="14" on="1"/>
        <pt x="20" y="48" on="0"/>
        <pt x="84" y="100" on="0"/>
        <pt x="136" y="100" on="1"/>
        <pt x="143" y="100" on="0"/>
        <pt x="157" y="98" on="1"/>
        <pt x="167" y="185" on="0"/>
        <pt x="247" y="467" on="0"/>
        <pt x="295" y="561" on="1"/>
        <pt x="286" y="562" on="0"/>
        <pt x="271" y="562" on="1"/>
        <pt x="231" y="562" on="0"/>
        <pt x="192" y="537" on="1"/>
        <pt x="179" y="564" on="0"/>
        <pt x="179" y="622" on="0"/>
        <pt x="217" y="661" on="0"/>
        <pt x="278" y="661" on="0"/>
        <pt x="400" y="649" on="0"/>
        <pt x="435" y="649" on="1"/>
        <pt x="511" y="649" on="0"/>
        <pt x="543" y="672" on="1"/>
        <pt x="553" y="656" on="0"/>
        <pt x="553" y="636" on="1"/>
        <pt x="553" y="602" on="0"/>
        <pt x="489" y="550" on="0"/>
        <pt x="437" y="550" on="1"/>
        <pt x="430" y="550" on="0"/>
        <pt x="416" y="552" on="1"/>
        <pt x="388" y="508" on="0"/>
        <pt x="279" y="163" on="0"/>
        <pt x="278" y="89" on="1"/>
        <pt x="287" y="88" on="0"/>
        <pt x="302" y="88" on="1"/>
        <pt x="342" y="88" on="0"/>
      </contour>
    </TTGlyph>
    <TTGlyph name="Imacron" xMin="20" yMin="-22" xMax="617" yMax="852">
      <contour>
        <pt x="594" y="774" on="1"/>
        <pt x="472" y="748" on="0"/>
        <pt x="310" y="748" on="1"/>
        <pt x="303" y="748" on="0"/>
        <pt x="303" y="764" on="1"/>
        <pt x="303" y="807" on="0"/>
        <pt x="338" y="852" on="1"/>
        <pt x="420" y="841" on="0"/>
        <pt x="530" y="841" on="0"/>
        <pt x="612" y="846" on="1"/>
        <pt x="617" y="846" on="0"/>
        <pt x="617" y="833" on="1"/>
        <pt x="617" y="799" on="0"/>
      </contour>
      <contour>
        <pt x="381" y="113" on="1"/>
        <pt x="394" y="86" on="0"/>
        <pt x="394" y="28" on="0"/>
        <pt x="356" y="-11" on="0"/>
        <pt x="295" y="-11" on="0"/>
        <pt x="173" y="1" on="0"/>
        <pt x="138" y="1" on="1"/>
        <pt x="62" y="1" on="0"/>
        <pt x="30" y="-22" on="1"/>
        <pt x="20" y="-6" on="0"/>
        <pt x="20" y="14" on="1"/>
        <pt x="20" y="48" on="0"/>
        <pt x="84" y="100" on="0"/>
        <pt x="136" y="100" on="1"/>
        <pt x="143" y="100" on="0"/>
        <pt x="157" y="98" on="1"/>
        <pt x="167" y="185" on="0"/>
        <pt x="247" y="467" on="0"/>
        <pt x="295" y="561" on="1"/>
        <pt x="286" y="562" on="0"/>
        <pt x="271" y="562" on="1"/>
        <pt x="231" y="562" on="0"/>
        <pt x="192" y="537" on="1"/>
        <pt x="179" y="564" on="0"/>
        <pt x="179" y="622" on="0"/>
        <pt x="217" y="661" on="0"/>
        <pt x="278" y="661" on="0"/>
        <pt x="400" y="649" on="0"/>
        <pt x="435" y="649" on="1"/>
        <pt x="511" y="649" on="0"/>
        <pt x="543" y="672" on="1"/>
        <pt x="553" y="656" on="0"/>
        <pt x="553" y="636" on="1"/>
        <pt x="553" y="602" on="0"/>
        <pt x="489" y="550" on="0"/>
        <pt x="437" y="550" on="1"/>
        <pt x="430" y="550" on="0"/>
        <pt x="416" y="552" on="1"/>
        <pt x="388" y="508" on="0"/>
        <pt x="279" y="163" on="0"/>
        <pt x="278" y="89" on="1"/>
        <pt x="287" y="88" on="0"/>
        <pt x="302" y="88" on="1"/>
        <pt x="342" y="88" on="0"/>
      </contour>
    </TTGlyph>
    <TTGlyph name="Iogonek" xMin="-20" yMin="-199" xMax="545" yMax="693">
      <contour>
        <pt x="245" y="98" on="1"/>
        <pt x="279" y="97" on="1"/>
        <pt x="321" y="97" on="0"/>
        <pt x="349" y="110" on="1"/>
        <pt x="362" y="83" on="0"/>
        <pt x="362" y="59" on="1"/>
        <pt x="362" y="17" on="0"/>
        <pt x="329" y="-1" on="1"/>
        <pt x="292" y="-49" on="0"/>
        <pt x="292" y="-141" on="0"/>
        <pt x="326" y="-141" on="1"/>
        <pt x="350" y="-141" on="0"/>
        <pt x="395" y="-114" on="1"/>
        <pt x="411" y="-128" on="0"/>
        <pt x="411" y="-149" on="1"/>
        <pt x="347" y="-199" on="0"/>
        <pt x="274" y="-199" on="1"/>
        <pt x="244" y="-199" on="0"/>
        <pt x="205" y="-160" on="0"/>
        <pt x="205" y="-131" on="1"/>
        <pt x="205" y="-68" on="0"/>
        <pt x="261" y="-10" on="1"/>
        <pt x="260" y="-10" on="0"/>
        <pt x="141" y="1" on="0"/>
        <pt x="108" y="1" on="1"/>
        <pt x="32" y="1" on="0"/>
        <pt x="0" y="-22" on="1"/>
        <pt x="-20" y="-22" on="0"/>
        <pt x="-20" y="8" on="1"/>
        <pt x="-20" y="55" on="0"/>
        <pt x="65" y="110" on="0"/>
        <pt x="120" y="111" on="1"/>
        <pt x="134" y="211" on="0"/>
        <pt x="217" y="485" on="0"/>
        <pt x="276" y="573" on="1"/>
        <pt x="275" y="573" on="1"/>
        <pt x="265" y="574" on="0"/>
        <pt x="205" y="574" on="0"/>
        <pt x="175" y="561" on="1"/>
        <pt x="162" y="588" on="0"/>
        <pt x="162" y="643" on="0"/>
        <pt x="200" y="682" on="0"/>
        <pt x="261" y="682" on="0"/>
        <pt x="383" y="670" on="0"/>
        <pt x="418" y="670" on="1"/>
        <pt x="494" y="670" on="0"/>
        <pt x="526" y="693" on="1"/>
        <pt x="545" y="693" on="0"/>
        <pt x="545" y="663" on="1"/>
        <pt x="545" y="615" on="0"/>
        <pt x="458" y="561" on="0"/>
        <pt x="404" y="560" on="1"/>
        <pt x="372" y="515" on="0"/>
        <pt x="246" y="172" on="0"/>
      </contour>
    </TTGlyph>
    <TTGlyph name="Itilde" xMin="20" yMin="-22" xMax="637" yMax="901">
      <contour>
        <pt x="611" y="899" on="1"/>
        <pt x="637" y="895" on="0"/>
        <pt x="637" y="875" on="1"/>
        <pt x="637" y="836" on="0"/>
        <pt x="553" y="735" on="0"/>
        <pt x="429" y="735" on="0"/>
        <pt x="377" y="789" on="1"/>
        <pt x="303" y="789" on="0"/>
        <pt x="264" y="737" on="1"/>
        <pt x="239" y="741" on="0"/>
        <pt x="239" y="761" on="1"/>
        <pt x="239" y="795" on="0"/>
        <pt x="332" y="893" on="0"/>
        <pt x="386" y="901" on="1"/>
        <pt x="456" y="837" on="0"/>
        <pt x="577" y="837" on="0"/>
      </contour>
      <contour>
        <pt x="381" y="113" on="1"/>
        <pt x="394" y="86" on="0"/>
        <pt x="394" y="28" on="0"/>
        <pt x="356" y="-11" on="0"/>
        <pt x="295" y="-11" on="0"/>
        <pt x="173" y="1" on="0"/>
        <pt x="138" y="1" on="1"/>
        <pt x="62" y="1" on="0"/>
        <pt x="30" y="-22" on="1"/>
        <pt x="20" y="-6" on="0"/>
        <pt x="20" y="14" on="1"/>
        <pt x="20" y="48" on="0"/>
        <pt x="84" y="100" on="0"/>
        <pt x="136" y="100" on="1"/>
        <pt x="143" y="100" on="0"/>
        <pt x="157" y="98" on="1"/>
        <pt x="167" y="185" on="0"/>
        <pt x="247" y="467" on="0"/>
        <pt x="295" y="561" on="1"/>
        <pt x="286" y="562" on="0"/>
        <pt x="271" y="562" on="1"/>
        <pt x="231" y="562" on="0"/>
        <pt x="192" y="537" on="1"/>
        <pt x="179" y="564" on="0"/>
        <pt x="179" y="622" on="0"/>
        <pt x="217" y="661" on="0"/>
        <pt x="278" y="661" on="0"/>
        <pt x="400" y="649" on="0"/>
        <pt x="435" y="649" on="1"/>
        <pt x="511" y="649" on="0"/>
        <pt x="543" y="672" on="1"/>
        <pt x="553" y="656" on="0"/>
        <pt x="553" y="636" on="1"/>
        <pt x="553" y="602" on="0"/>
        <pt x="489" y="550" on="0"/>
        <pt x="437" y="550" on="1"/>
        <pt x="430" y="550" on="0"/>
        <pt x="416" y="552" on="1"/>
        <pt x="388" y="508" on="0"/>
        <pt x="279" y="163" on="0"/>
        <pt x="278" y="89" on="1"/>
        <pt x="287" y="88" on="0"/>
        <pt x="302" y="88" on="1"/>
        <pt x="342" y="88" on="0"/>
      </contour>
    </TTGlyph>
    <TTGlyph name="J" xMin="-160" yMin="-266" xMax="568" yMax="715">
      <contour>
        <pt x="374" y="531" on="1"/>
        <pt x="250" y="582" on="0"/>
        <pt x="194" y="582" on="1"/>
        <pt x="161" y="582" on="0"/>
        <pt x="133" y="534" on="0"/>
        <pt x="133" y="478" on="1"/>
        <pt x="127" y="472" on="0"/>
        <pt x="117" y="472" on="1"/>
        <pt x="98" y="472" on="0"/>
        <pt x="64" y="570" on="0"/>
        <pt x="64" y="656" on="0"/>
        <pt x="123" y="715" on="0"/>
        <pt x="174" y="715" on="1"/>
        <pt x="285" y="715" on="0"/>
        <pt x="468" y="600" on="1"/>
        <pt x="506" y="616" on="0"/>
        <pt x="525" y="616" on="1"/>
        <pt x="568" y="616" on="0"/>
        <pt x="568" y="584" on="1"/>
        <pt x="568" y="536" on="0"/>
        <pt x="530" y="486" on="0"/>
        <pt x="476" y="486" on="0"/>
        <pt x="433" y="506" on="1"/>
        <pt x="376" y="207" on="0"/>
        <pt x="336" y="83" on="1"/>
        <pt x="254" y="-173" on="0"/>
        <pt x="112" y="-239" on="1"/>
        <pt x="56" y="-266" on="0"/>
        <pt x="-77" y="-266" on="0"/>
        <pt x="-160" y="-214" on="0"/>
        <pt x="-160" y="-103" on="0"/>
        <pt x="-59" y="-14" on="0"/>
        <pt x="-18" y="-14" on="1"/>
        <pt x="0" y="-14" on="0"/>
        <pt x="0" y="-26" on="1"/>
        <pt x="0" y="-27" on="0"/>
        <pt x="-21" y="-95" on="0"/>
        <pt x="-21" y="-145" on="0"/>
        <pt x="37" y="-190" on="0"/>
        <pt x="84" y="-190" on="1"/>
        <pt x="135" y="-190" on="0"/>
        <pt x="184" y="8" on="1"/>
        <pt x="206" y="97" on="0"/>
        <pt x="253" y="286" on="0"/>
        <pt x="329" y="477" on="0"/>
      </contour>
    </TTGlyph>
    <TTGlyph name="J.alt" xMin="-162" yMin="-279" xMax="589" yMax="715">
      <contour>
        <pt x="259" y="282" on="1"/>
        <pt x="228" y="283" on="1"/>
        <pt x="166" y="283" on="0"/>
        <pt x="164" y="263" on="1"/>
        <pt x="156" y="265" on="0"/>
        <pt x="140" y="293" on="0"/>
        <pt x="140" y="324" on="0"/>
        <pt x="171" y="351" on="0"/>
        <pt x="259" y="351" on="0"/>
        <pt x="283" y="348" on="1"/>
        <pt x="316" y="430" on="0"/>
        <pt x="367" y="501" on="1"/>
        <pt x="320" y="502" on="0"/>
        <pt x="237" y="543" on="0"/>
        <pt x="178" y="582" on="0"/>
        <pt x="160" y="582" on="1"/>
        <pt x="127" y="582" on="0"/>
        <pt x="99" y="534" on="0"/>
        <pt x="99" y="478" on="1"/>
        <pt x="93" y="472" on="0"/>
        <pt x="83" y="472" on="1"/>
        <pt x="64" y="472" on="0"/>
        <pt x="30" y="570" on="0"/>
        <pt x="30" y="656" on="0"/>
        <pt x="89" y="715" on="0"/>
        <pt x="178" y="715" on="0"/>
        <pt x="260" y="675" on="0"/>
        <pt x="290" y="652" on="1"/>
        <pt x="371" y="588" on="0"/>
        <pt x="429" y="588" on="1"/>
        <pt x="486" y="680" on="0"/>
        <pt x="534" y="680" on="1"/>
        <pt x="555" y="680" on="0"/>
        <pt x="589" y="640" on="0"/>
        <pt x="589" y="596" on="0"/>
        <pt x="509" y="531" on="0"/>
        <pt x="455" y="513" on="1"/>
        <pt x="450" y="494" on="0"/>
        <pt x="420" y="373" on="0"/>
        <pt x="411" y="341" on="1"/>
        <pt x="429" y="341" on="1"/>
        <pt x="504" y="341" on="0"/>
        <pt x="522" y="356" on="1"/>
        <pt x="531" y="338" on="0"/>
        <pt x="531" y="327" on="1"/>
        <pt x="531" y="304" on="0"/>
        <pt x="488" y="272" on="0"/>
        <pt x="410" y="272" on="0"/>
        <pt x="393" y="273" on="1"/>
        <pt x="301" y="-52" on="0"/>
        <pt x="192" y="-172" on="1"/>
        <pt x="149" y="-220" on="0"/>
        <pt x="32" y="-279" on="0"/>
        <pt x="-87" y="-279" on="0"/>
        <pt x="-162" y="-227" on="0"/>
        <pt x="-162" y="-133" on="0"/>
        <pt x="-68" y="-46" on="0"/>
        <pt x="-35" y="-46" on="1"/>
        <pt x="-19" y="-46" on="0"/>
        <pt x="-19" y="-55" on="1"/>
        <pt x="-19" y="-56" on="0"/>
        <pt x="-37" y="-117" on="0"/>
        <pt x="-37" y="-159" on="0"/>
        <pt x="13" y="-201" on="0"/>
        <pt x="57" y="-201" on="1"/>
        <pt x="99" y="-201" on="0"/>
        <pt x="139" y="-94" on="1"/>
        <pt x="164" y="-27" on="0"/>
        <pt x="241" y="228" on="0"/>
      </contour>
    </TTGlyph>
</ttFont>
